<svg width="1448" height="1086" viewBox="0 0 1448 1086" fill="none" xmlns="http://www.w3.org/2000/svg">
<g clip-path="url(#clip0_55_189)">
<path d="M623.999 304.537C629.131 250.672 690.69 245.901 699.499 304.397C721.716 304.972 744.327 304.482 766.599 304.581C771.442 246.642 838.306 250.848 841.636 304.472C863.822 304.681 886.016 304.717 908.21 304.581C911.66 248.827 979.542 248.603 983.077 304.61L1031.39 304.541C1042.77 304.53 1064.41 302.867 1073.3 310.612C1084.7 318.663 1086.21 327.162 1087.98 340.351C1090.02 355.546 1090.87 371.586 1093.38 386.637C1098.83 423.233 1102.86 465.312 1107.23 502.464L1132.32 718.492L1145.63 832.911C1147.99 852.666 1150.77 872.505 1152.3 892.323C1153.16 903.579 1147.21 912.919 1137.65 918.419C1135.68 919.388 1129.51 921.7 1128.85 922.216L580.21 921.127C519.08 920.993 456.125 921.424 395.09 920.491C393.882 919.749 387.275 917.507 385.468 916.871C373.991 910.946 369.113 899.81 369.695 887.353C370.341 873.516 371.383 859.828 372.379 846.012L377.349 774.355L393.206 544.157L401.57 422.062C402.203 413.786 403.17 387.493 404.357 381.436C404.884 367.444 405.734 353.299 406.443 339.221C407.669 314.857 422.2 304.084 445.786 304.554C457.933 304.796 471.456 304.55 483.751 304.58L484.57 296.3C487.994 284.189 493.383 273.082 504.907 266.735C512.879 262.376 522.263 261.388 530.968 263.992C548.91 269.334 557.648 286.961 558.953 304.514C580.635 304.652 602.317 304.66 623.999 304.537Z" fill="#FDFEFE"/>
<path d="M623.999 304.537C629.131 250.672 690.69 245.901 699.499 304.397C721.716 304.972 744.327 304.482 766.599 304.581C771.442 246.642 838.306 250.848 841.636 304.472C863.822 304.681 886.016 304.717 908.21 304.581C911.66 248.827 979.542 248.603 983.077 304.61L1031.39 304.541C1042.77 304.53 1064.41 302.867 1073.3 310.612C1084.7 318.663 1086.21 327.162 1087.98 340.351C1090.02 355.546 1090.87 371.586 1093.38 386.637C1093.24 387.57 1093.03 390.554 1092.39 390.609C1077.25 391.907 1049.84 391.076 1035.77 391.048L923.694 391.034L545.27 391.053L459.109 391.121C450.143 391.095 421.507 390.476 414.303 391.596C411.677 391.628 408.888 391.775 406.245 391.869L405.184 391.302C403.858 389.009 404.339 384.486 404.357 381.436C404.884 367.444 405.734 353.299 406.443 339.221C407.669 314.857 422.2 304.084 445.786 304.554C457.933 304.796 471.456 304.55 483.751 304.58L484.57 296.3C487.994 284.189 493.383 273.082 504.907 266.735C512.879 262.376 522.263 261.388 530.968 263.992C548.91 269.334 557.648 286.961 558.953 304.514C580.635 304.652 602.317 304.66 623.999 304.537Z" fill="#D6E5F3"/>
<path d="M623.999 304.537C629.131 250.672 690.69 245.901 699.499 304.397C721.716 304.972 744.327 304.482 766.599 304.581C771.442 246.642 838.306 250.848 841.636 304.472C863.823 304.681 886.016 304.717 908.21 304.581C911.66 248.827 979.542 248.603 983.078 304.61L1031.39 304.541C1042.77 304.53 1064.41 302.867 1073.3 310.612C1074.56 312.402 1075.72 313.99 1077.06 315.714L1076.24 316.185C1075.83 316.02 1074.25 315.354 1073.93 315.31C1058.94 304.177 1045.08 306.826 1027.23 306.882L978.956 307.071L978.68 304.58L920.597 304.617L920.548 307.153C920.505 314.761 921.135 317.918 924.245 325.154C925.115 327.177 926.459 328.954 927.13 330.948L932.553 336.838C931.478 339.497 931.189 340.624 929.131 342.664C924.839 343.747 922.916 340.31 920.131 337.27C921.05 339.804 921.41 340.178 920.64 342.582L918.653 342.883L919.325 343.573L917.854 342.086C917.804 338.135 912.29 329.474 910.72 324.192C908.528 316.83 908.457 314.603 908.139 307.061C892.818 306.528 875.057 306.956 859.545 306.99L778.908 306.983C779.17 315.177 780.534 324.295 785.554 331.114C803.866 329.153 792.921 359.391 779.742 348.793C775.338 345.25 777.289 341.835 775.479 338.461C769.314 327.003 766.931 319.846 766.443 306.941C752.783 306.934 640.923 308.085 636.425 306.246C636.576 313.709 638.248 324.245 642.881 330.326C644.995 333.051 645.991 334.32 648.498 336.74C646.9 340.076 645.979 341.708 643.005 344.215C640.319 341.652 638.302 339.455 635.821 336.69C636.359 345.322 638.633 339.593 642.193 345.671C642.406 346.034 642.36 346.66 642.354 347.092C640.57 346.366 638.66 346.048 636.78 345.659C635.588 343.081 634.93 341.939 634.526 339.057L633.731 338.761C626.557 329.608 624.451 318.375 624.034 307.092C611.538 306.529 595.521 306.976 582.884 307.038C564.705 307.127 546.525 307.088 528.345 306.922C521.339 306.912 501.427 307.66 495.613 306.852C496.463 317.031 497.03 321.246 502.263 330.482C503.57 332.365 506.541 335.195 508.247 336.929C507.3 338.623 506.365 340.165 505.347 341.819C502.275 343.539 499.606 343 497.463 340.006C489.141 328.381 485.601 314.864 486.948 300.654C486.317 298.176 486.329 298.055 484.57 296.3C487.994 284.189 493.383 273.082 504.907 266.735C512.879 262.376 522.264 261.388 530.968 263.992C548.91 269.334 557.648 286.961 558.954 304.514C580.635 304.652 602.317 304.66 623.999 304.537Z" fill="url(#paint0_linear_55_189)"/>
<path d="M486.948 300.654C497.871 247.759 553.283 258.564 555.845 304.155C549.943 304.962 538.371 304.739 531.962 304.712C520.022 304.678 508.083 304.568 496.144 304.383L495.613 306.852C496.462 317.031 497.029 321.246 502.263 330.482C503.57 332.365 506.541 335.195 508.247 336.929C507.3 338.623 506.364 340.166 505.347 341.819C502.275 343.539 499.606 343 497.463 340.006C489.14 328.381 485.601 314.864 486.948 300.654Z" fill="#FDFEFE"/>
<path d="M496.144 304.383C496.204 299.381 499.499 291.378 501.896 286.881C507.719 275.958 522.09 271.991 532.59 278.813C541.137 284.366 544.514 293.99 546.556 303.728C550.205 303.648 552.213 303.796 555.845 304.155C549.943 304.962 538.371 304.739 531.962 304.712C520.022 304.677 508.083 304.568 496.144 304.383Z" fill="#F0F1F3"/>
<path d="M635.821 336.69C625.062 318.44 622.294 293.315 637.35 277.293C662.574 250.452 694.135 272.295 695.954 304.418C680.402 304.951 651.368 303.382 637.516 304.881L636.425 306.246C636.576 313.709 638.248 324.245 642.881 330.326C644.995 333.051 645.991 334.32 648.498 336.74C646.9 340.076 645.979 341.708 643.005 344.215C640.319 341.652 638.301 339.455 635.821 336.69Z" fill="#F0F1F3"/>
<path d="M920.131 337.27C909.37 318.441 906.442 297.29 920.251 278.686C931.231 263.886 951.296 260.895 965.522 272.928C975.152 281.07 978.913 291.5 980.207 303.874L978.68 304.58L920.597 304.617L920.548 307.153C920.505 314.761 921.135 317.918 924.245 325.154C925.115 327.177 926.459 328.954 927.13 330.948L932.553 336.838C931.478 339.497 931.189 340.624 929.131 342.664C924.839 343.747 922.916 340.31 920.131 337.27Z" fill="#FDFEFE"/>
<path d="M920.597 304.617C922.669 298.22 921.622 295.088 925.348 288.3C932.093 276.028 943.66 271.075 956.338 278.466C965.154 283.604 969.191 294.001 971.489 303.674C974.332 303.657 977.351 303.795 980.207 303.873L978.68 304.58L920.597 304.617Z" fill="#F0F1F3"/>
<path d="M778.18 336.336C767.617 317.942 765.276 297.138 778.371 279.037C789.118 264.194 808.95 260.752 823.373 272.46C833.526 280.708 837.146 291.462 838.61 304.169C833.003 305.009 826.131 304.548 820.347 304.692C806.857 305.028 792.115 304.146 778.745 304.632L778.908 306.983C779.17 315.177 780.534 324.295 785.554 331.114C787.385 333.013 789.33 335.123 791.288 336.875C789.909 339.479 789.28 341.371 786.827 342.902C782.457 342.939 780.817 339.579 778.18 336.336Z" fill="#FDFEFE"/>
<path d="M778.745 304.632C780.011 293.377 785.901 280.247 797.503 276.482C802.898 274.734 808.773 275.294 813.744 278.029C823.776 283.463 827.269 293.528 830.274 303.685C833.413 303.618 835.534 303.854 838.61 304.169C833.003 305.009 826.131 304.548 820.347 304.692C806.857 305.027 792.115 304.146 778.745 304.632Z" fill="#F0F1F3"/>
<path d="M791.288 336.875C798.373 345.166 776.596 357.09 778.18 336.336C780.817 339.579 782.457 342.939 786.827 342.902C789.28 341.371 789.91 339.479 791.288 336.875Z" fill="#A1A8B3"/>
<path d="M484.57 296.3C486.329 298.055 486.317 298.176 486.948 300.654C485.601 314.864 489.14 328.381 497.463 340.006C499.606 343 502.275 343.539 505.347 341.818C506.364 340.165 507.3 338.623 508.247 336.929C506.541 335.195 503.57 332.365 502.263 330.482C522.009 333.29 509.079 357.819 496.774 348.535C493.108 346.493 494.375 341.354 493.291 339.479C486.401 327.559 484.358 320.752 483.658 306.99C456.165 306.866 411.361 299.305 409.339 337.076C408.417 354.272 407.568 371.549 406.754 388.754L1078.12 388.787C1078.77 370.582 1083.13 346.079 1080.97 328.036C1080.57 324.678 1075.92 318.139 1073.93 315.31C1074.25 315.354 1075.83 316.02 1076.24 316.185L1077.06 315.713C1075.72 313.99 1074.56 312.402 1073.3 310.612C1084.7 318.663 1086.21 327.162 1087.98 340.351C1090.02 355.545 1090.87 371.586 1093.38 386.637C1093.24 387.57 1093.03 390.554 1092.39 390.609C1077.25 391.907 1049.84 391.076 1035.77 391.048L923.694 391.034L545.27 391.053L459.109 391.121C450.143 391.095 421.507 390.476 414.303 391.596C411.677 391.628 408.888 391.774 406.245 391.869L405.184 391.302C403.858 389.009 404.339 384.486 404.357 381.436C404.884 367.444 405.734 353.299 406.443 339.221C407.669 314.857 422.2 304.084 445.786 304.554C457.933 304.796 471.456 304.55 483.751 304.58L484.57 296.3Z" fill="#8197B7"/>
<path d="M1084.33 343.197C1086.18 345.817 1090.56 384.781 1089.74 388.352L1088.3 388.772C1086.13 388.741 1083.01 389.052 1081.38 387.855C1080.67 381.845 1083.57 350.678 1084.33 343.197Z" fill="#D6E5F3"/>
<path d="M642.881 330.326C645.93 330.753 650.689 332.151 652.218 334.792C660.388 348.914 631.701 359.18 633.73 338.761L634.526 339.057C634.93 341.939 635.588 343.081 636.78 345.659C638.66 346.048 640.57 346.366 642.354 347.092C642.36 346.66 642.406 346.034 642.193 345.671C638.633 339.593 636.359 345.322 635.821 336.69C638.301 339.455 640.319 341.652 643.005 344.215C645.979 341.708 646.9 340.076 648.498 336.74C645.991 334.32 644.995 333.051 642.881 330.326Z" fill="#8197B7"/>
<path d="M643.005 344.215C645.979 341.708 646.9 340.076 648.498 336.74C651 340.19 651.325 343.309 647.671 346.117C645.111 346.49 644.673 346.463 643.005 344.215Z" fill="#A1A8B3"/>
<path d="M920.597 304.617L978.68 304.58L978.955 307.071C959.484 306.888 940.012 306.915 920.548 307.153L920.597 304.617Z" fill="#8197B7"/>
<path d="M932.553 336.838C935.706 341.341 934.349 342.087 935.954 345.088C930.941 353.788 919.226 351.901 917.854 342.086L919.324 343.573L918.653 342.883L920.64 342.582C921.41 340.178 921.05 339.803 920.131 337.27C922.916 340.31 924.839 343.747 929.131 342.664C931.188 340.624 931.478 339.497 932.553 336.838Z" fill="#A1A8B3"/>
<path d="M927.13 330.948C935.339 330.452 938.853 338.241 935.954 345.088C934.349 342.087 935.706 341.34 932.553 336.838L927.13 330.948Z" fill="#8197B7"/>
<path d="M385.468 916.871C373.991 910.946 369.113 899.81 369.695 887.352C370.341 873.516 371.383 859.828 372.379 846.012L377.349 774.355L393.206 544.157L401.57 422.062C402.203 413.786 403.17 387.493 404.357 381.436C404.339 384.486 403.858 389.009 405.184 391.302L406.245 391.868L406.269 392.473C406.59 403.278 404.282 426.421 403.433 438.011L398.266 514.507L379.829 783.737L374.673 857.657C374.187 864.607 372.222 886.815 372.687 892.641C373.265 899.259 376.27 905.424 381.124 909.963C392.629 920.583 418.265 917.606 433.556 917.592H491.961L681.174 917.783L897.102 918.292L972.104 918.448C985.17 918.462 998.272 918.631 1011.34 918.335C1020.08 918.137 1028.13 914.326 1033.95 907.708C1037.83 903.211 1040.34 897.703 1041.18 891.828C1043.61 873.982 1044.71 843.198 1046.12 823.925L1056.56 679.584L1071.16 481.261C1073.25 452.519 1076.53 420.143 1077.71 391.789L626.463 391.724L485.583 391.726L439.097 391.758C431.582 391.762 421.485 392.088 414.303 391.596C421.507 390.476 450.143 391.095 459.109 391.121L545.27 391.053L923.694 391.034L1035.77 391.048C1049.84 391.076 1077.25 391.907 1092.39 390.609C1093.03 390.554 1093.24 387.57 1093.38 386.637C1098.83 423.233 1102.86 465.312 1107.23 502.464L1132.32 718.492L1145.63 832.911C1147.99 852.665 1150.77 872.505 1152.3 892.323C1153.16 903.579 1147.21 912.919 1137.65 918.419C1135.68 919.388 1129.51 921.7 1128.85 922.216L580.21 921.127C519.08 920.993 456.125 921.424 395.09 920.491C393.882 919.749 387.275 917.507 385.468 916.871Z" fill="#C3C3C6"/>
<path d="M1080.38 391.783L1090.81 391.849L1131 734.209L1143.76 842.675L1147.46 873.898C1148.11 879.137 1149.17 884.949 1149.39 890.159C1150.88 924.592 1116.01 918.745 1094.27 918.511L1025.79 918.377C1034.82 912.275 1042.68 904.618 1043.88 893.341C1045.82 875.121 1046.65 856.42 1048 838.136L1057.15 713.154L1072.21 508.15C1074.96 471.016 1078.97 428.601 1080.38 391.783Z" fill="#F0F1F3"/>
<path d="M445.637 479.432C493.043 478.174 546.173 479.209 593.759 479.241L857.756 479.247L973.886 479.287C990.487 479.248 1009.85 478.768 1026.53 479.73C1030.72 479.97 1034.1 484.73 1036.35 488.004C1037.07 498.382 1034.47 524.433 1033.61 535.916L1027.56 619.823L1015.74 783.801C1013.73 811.884 1011.87 839.967 1009.61 868.036C1008.87 877.164 1005.23 881.371 996.327 883.846C966.243 884.687 932.772 883.98 902.525 883.938L743.111 883.931L556.492 883.938C510.614 884.022 463.238 884.489 417.459 883.754C409.36 878.847 407.542 876.415 408.104 866.538C408.684 856.342 409.629 846.161 410.359 835.98L414.812 772.842L427.449 586.415L431.536 525.095C432.241 514.681 432.815 495.485 435.476 486.503C439.268 482.272 440.522 481.324 445.637 479.432Z" fill="#D6E5F3"/>
<path d="M910.041 592.34L988.988 592.361C1001.08 592.376 1016.42 592.836 1028.16 592.284C1026.47 613.801 1024.95 635.33 1023.57 656.869C1022.9 667.712 1021.64 693.04 1019.98 702.838L1019.94 704.101C1020.18 707.01 1019.75 711.075 1019.55 714.08C1017.28 747.261 1014.33 780.456 1012.35 813.652L937.156 813.687C924.832 813.68 906.958 814.217 895.045 813.263C894.939 796.075 897.908 769.95 899.004 752.267C899.817 739.229 900.687 716.011 902.433 704.045L902.243 702.807C906.004 666.881 906.563 628.576 910.041 592.34Z" fill="#FDFEFE"/>
<path d="M902.433 704.045C940.564 704.056 982.045 702.865 1019.94 704.101C1020.18 707.01 1019.75 711.075 1019.55 714.08C1017.28 747.261 1014.33 780.456 1012.35 813.652L937.156 813.687C924.832 813.68 906.958 814.217 895.045 813.263C894.939 796.075 897.908 769.95 899.004 752.267C899.817 739.229 900.687 716.01 902.433 704.045Z" fill="#FDFEFE"/>
<path d="M923.439 724.41C929.286 722.501 935.579 725.64 937.58 731.452C939.581 737.264 936.555 743.606 930.778 745.706C926.953 747.092 922.676 746.314 919.593 743.663C916.503 741.011 915.089 736.896 915.888 732.909C916.687 728.921 919.572 725.669 923.439 724.41Z" fill="#F0F1F3"/>
<path d="M902.243 702.807C925.051 701.913 950.702 702.829 973.752 702.506C983.876 702.363 1011.01 701.879 1019.98 702.838L1019.94 704.101C982.045 702.865 940.564 704.056 902.433 704.045L902.243 702.807Z" fill="#F0F1F3"/>
<path d="M931.747 612.717C937.757 611.192 943.858 614.835 945.357 620.845C946.863 626.855 943.201 632.943 937.184 634.426C931.203 635.902 925.15 632.259 923.651 626.279C922.152 620.299 925.772 614.235 931.747 612.717Z" fill="#F0F1F3"/>
<path d="M720.133 567.222C770.296 564.59 813.114 603.072 815.836 653.228C818.551 703.384 780.145 746.272 729.996 749.078C679.719 751.9 636.702 713.373 633.974 663.092C631.247 612.81 669.846 569.86 720.133 567.222Z" fill="#F0F1F3"/>
<path d="M744.08 615.781C744.242 611.174 743.896 606.979 749.163 605.368C754.933 606.851 754.501 610.671 754.537 615.729C758.8 615.686 763.382 615.29 767.376 617.082C769.519 618.046 772.509 620.323 773.301 622.641C775.84 630.047 776.292 695.883 773.061 701.302C770.706 705.258 766.818 707.13 762.47 708.056H711.45C697.339 708.056 675.088 712.553 675.337 693.054C675.614 671.426 674.294 649.47 675.674 627.874C676.456 615.621 685.995 615.695 695.23 615.821C695.268 614.658 695.324 613.494 695.398 612.332C695.686 608.075 695.906 607.814 699.287 604.889C706.019 606.405 705.224 609.813 705.334 615.771C718.188 615.903 731.212 615.794 744.08 615.781Z" fill="#8197B7"/>
<path d="M678.193 641.241L771.993 641.253C771.689 658.816 772.912 679.636 771.378 697.179C771.272 698.386 769.66 700.828 768.918 701.904C766.238 703.937 764.775 704.68 761.331 704.79C746.95 705.252 732.576 705.059 718.153 705.103C707.901 704.931 697.488 705.506 687.267 704.728C683.31 704.427 679.334 701.174 678.717 697.184C677.623 690.101 678.041 682.619 678.078 675.456L678.193 641.241Z" fill="#FDFEFE"/>
<path d="M723.929 676.748C730.519 676.661 741.789 681.831 743.917 688.297C743.571 690.751 744.03 690.088 742.524 691.58C737.54 688.925 740.007 682.506 726.432 679.775L725.513 679.594C709.796 681.428 715.445 687.447 706.701 691.291L705.616 690.863C706.458 682.398 716.809 678.257 723.929 676.748Z" fill="#8197B7"/>
<path d="M708 656.615C711.026 655.789 714.165 657.492 715.127 660.48C716.081 663.466 714.519 666.677 711.577 667.765C709.555 668.512 707.286 668.09 705.669 666.665C704.053 665.241 703.348 663.043 703.835 660.944C704.323 658.845 705.923 657.182 708 656.615Z" fill="#8197B7"/>
<path d="M739.173 656.651C742.142 656.161 744.992 658.03 745.72 660.948C746.455 663.866 744.829 666.859 741.98 667.83C739.915 668.533 737.631 668.017 736.076 666.494C734.513 664.971 733.948 662.7 734.598 660.62C735.256 658.541 737.023 657.007 739.173 656.651Z" fill="#8197B7"/>
<path d="M686.386 618.8C689.148 618.644 691.328 618.22 693.818 619.274C696.999 622.15 694.887 623.75 697.768 626.706C700.177 627.338 700.472 627.357 702.872 626.706C705.67 623.626 703.691 623.715 705.735 619.504C705.885 619.409 706.912 618.687 707.463 618.71C718.4 619.162 733.184 617.309 743.571 619.433C745.112 619.75 742.871 623.612 746.964 626.917C749.566 627.526 749.715 627.642 752.218 626.966C754.586 624.203 753.25 623.824 754.72 619.688C761.6 614.154 770.282 620.947 771.972 628.763L771.788 638.345L678.177 638.457C677.841 629.489 676.587 622.544 686.386 618.8Z" fill="#D6E5F3"/>
<path d="M747.884 608.19C748.845 608.454 750.181 608.593 750.606 609.31C752.656 612.732 751.553 621.106 751.016 624.873L748.499 624.053C746.024 620.9 747.438 612.24 747.884 608.19Z" fill="#FDFEFE"/>
<path d="M699.86 607.616C703.927 610.275 702.891 621.499 701.068 624.986L699.441 623.901C697.294 620.595 697.552 610.798 699.86 607.616Z" fill="#FDFEFE"/>
<path d="M428.414 592.419L547.367 592.409C546.86 597.474 546.457 602.918 546.213 608.002C544.71 639.416 541.042 671.39 540.127 702.795C500.893 701.819 460.605 703.405 421.138 702.399C421.944 678.505 424.675 654.214 425.9 630.291C426.541 617.764 427.396 604.901 428.414 592.419Z" fill="#FDFEFE"/>
<path d="M451.916 612.686C457.907 611.559 463.697 615.441 464.927 621.412C466.158 627.383 462.377 633.238 456.428 634.572C452.488 635.456 448.377 634.145 445.676 631.143C442.974 628.141 442.103 623.915 443.397 620.089C444.69 616.263 447.947 613.433 451.916 612.686Z" fill="#F0F1F3"/>
<path d="M797.376 480.768L916.411 480.718C915.895 485.957 915.485 491.346 915.16 496.605C913.216 528.042 910.048 559.64 908.535 591.088C881.76 590.7 854.709 591.234 827.926 591.031C819.414 590.967 798.556 591.779 791.253 590.411C789.181 587.868 796.372 491.134 797.376 480.768Z" fill="#FDFEFE"/>
<path d="M818.735 501.75C824.589 499.69 831.002 502.787 833.031 508.653C835.06 514.52 831.921 520.914 826.046 522.908C820.213 524.884 813.885 521.781 811.877 515.962C809.862 510.143 812.93 503.793 818.735 501.75Z" fill="#F0F1F3"/>
<path d="M555.803 480.703L675.26 480.721C675.121 490.67 673.813 504.139 673.101 514.26C671.41 536.974 669.856 559.699 668.44 582.432L664.213 585.937C662.542 587.51 660.586 589.087 658.819 590.582C646.554 591.504 630.68 591.034 618.079 591.034L549.25 591.041C548.96 580.264 550.494 568.639 551.05 557.79C552.335 532.699 555.481 505.675 555.803 480.703Z" fill="#FDFEFE"/>
<path d="M579.27 501.231C594.428 500.535 598.192 516.712 583.994 523.61C569.569 524.344 564.84 507.525 579.27 501.231Z" fill="#F0F1F3"/>
<path d="M445.25 480.843C481.461 480.412 518.246 480.752 554.511 480.721C554.403 505.395 550.637 531.794 549.783 556.625C549.406 567.547 548.429 580.197 547.274 591.046L536.46 591.072L428.276 591.078C431.154 568.012 431.103 540.576 433.501 517.171C434.36 508.789 434.208 494.95 436.555 487.54C439.611 484.35 441.219 482.649 445.25 480.843Z" fill="#FDFEFE"/>
<path d="M458.025 501.704C461.877 500.534 466.061 501.533 468.969 504.317C471.877 507.101 473.056 511.239 472.053 515.138C471.05 519.037 468.021 522.092 464.131 523.127C458.258 524.691 452.217 521.26 450.551 515.416C448.886 509.572 452.211 503.471 458.025 501.704Z" fill="#F0F1F3"/>
<path d="M421.029 703.849L539.67 703.868C539.562 714.335 532.889 811.714 531.45 813.56C503.784 813.835 476.116 813.871 448.449 813.659C437.117 813.659 424.709 813.135 413.497 813.644C415.166 781.559 418.209 749.389 419.873 717.276C420.099 712.921 420.503 708.184 421.029 703.849Z" fill="#FDFEFE"/>
<path d="M443.338 724.474C447.17 723.229 451.377 724.134 454.349 726.856C457.322 729.578 458.601 733.686 457.697 737.617C456.795 741.541 453.848 744.681 449.985 745.833C444.117 747.572 437.937 744.278 436.117 738.431C434.298 732.59 437.516 726.369 443.338 724.474Z" fill="#F0F1F3"/>
<path d="M917.811 480.732C953.962 481.25 990.424 480.334 1026.61 480.942C1031.18 483.732 1035.22 487.079 1035.03 493.076C1034.53 508.432 1033.06 523.855 1031.98 539.205L1029.71 571.751C1029.33 577.155 1028.99 585.97 1027.96 591.058C988.932 590.642 949.14 591.014 910.048 591.009C913.52 555.436 913.958 516.642 917.811 480.732Z" fill="#FDFEFE"/>
<path d="M938.874 501.702C942.763 500.476 947.012 501.464 949.96 504.28C952.908 507.096 954.096 511.295 953.05 515.238C952.01 519.181 948.907 522.244 944.947 523.233C939.079 524.698 933.105 521.236 931.464 515.414C929.824 509.593 933.105 503.519 938.874 501.702Z" fill="#F0F1F3"/>
<path d="M540.793 703.857C574.657 703.665 608.522 703.771 642.384 704.175C647.012 712.185 652.661 719.553 659.187 726.107L653.337 813.786C613.765 813.475 573.781 814.154 534.283 813.411C534.226 779.332 540.623 739.039 540.793 703.857Z" fill="#FDFEFE"/>
<path d="M563.298 724.516C567.098 723.088 571.373 723.816 574.485 726.425C577.598 729.027 579.069 733.107 578.335 737.101C577.601 741.089 574.777 744.384 570.941 745.706C565.115 747.728 558.75 744.688 556.658 738.883C554.566 733.085 557.526 726.68 563.298 724.516Z" fill="#F0F1F3"/>
<path d="M807.295 704.19C837.09 703.572 871.359 703.244 901.055 704.119C900.666 711.874 899.627 719.977 899.118 727.867C897.293 756.46 895.271 785.045 893.051 813.616L869.443 813.694C838.497 813.708 805.188 812.987 774.503 813.977C775.811 806.581 776.441 793.027 777.013 785.222C778.286 768.444 779.474 751.666 780.563 734.881C793.275 723.788 798.557 718.372 807.295 704.19Z" fill="#FDFEFE"/>
<path d="M803.796 724.403C809.664 722.303 816.112 725.365 818.198 731.233C820.283 737.108 817.201 743.549 811.325 745.621C805.471 747.678 799.058 744.61 796.98 738.763C794.908 732.916 797.955 726.496 803.796 724.403Z" fill="#F0F1F3"/>
<path d="M676.729 480.735L796.146 480.752C794.922 488.074 794.59 502.08 793.89 510.204C791.684 535.888 791.09 562.46 788.29 588.049C785.886 585.84 782.726 583.355 780.167 581.228C769.816 573.916 758.136 568.708 745.777 565.901C717.545 559.624 694.013 565.827 670.184 580.993C670.249 569.412 671.732 554.206 672.559 542.424L676.729 480.735Z" fill="#FDFEFE"/>
<path d="M698.701 501.646C704.614 499.81 710.892 503.132 712.702 509.053C714.512 514.974 711.16 521.238 705.233 523.021C699.34 524.792 693.125 521.468 691.327 515.584C689.529 509.7 692.825 503.47 698.701 501.646Z" fill="#F0F1F3"/>
<path d="M655.957 592.123L656.529 592.409C655.964 594.668 650.999 599.374 649.35 601.79C627.091 634.377 625.861 666.86 641.346 702.706C612.747 702.029 580.91 702.682 552.015 702.66L541.42 702.798C543.375 666.075 546.858 629.057 548.704 592.349C584.455 592.508 620.207 592.433 655.957 592.123Z" fill="#FDFEFE"/>
<path d="M574.799 612.358C587.417 613.222 590.855 631.181 575.011 634.89C561.327 634.453 558.668 614.854 574.799 612.358Z" fill="#F0F1F3"/>
<path d="M792.179 592.101C830.818 592.453 869.465 592.544 908.104 592.375C907.227 614.607 905.354 638.041 903.826 660.301C902.999 672.289 902.335 691.093 900.765 702.417C869.599 703.039 839.296 702.361 808.321 702.323C819.343 678.425 821.203 661.744 816.303 636.091C813.871 627.147 812.103 622.722 808.405 614.443C802.954 605.046 800.006 600.001 792.179 592.101Z" fill="#FDFEFE"/>
<path d="M808.405 614.443C812.351 612.385 814.083 611.372 818.778 612.851C821.669 613.782 824.031 615.91 825.247 618.696C828.612 626.545 823.72 632.138 816.664 634.824L816.303 636.091C813.871 627.147 812.103 622.722 808.405 614.443Z" fill="#F0F1F3"/>
<path d="M533.829 815.073C573.544 814.479 613.468 815.348 653.21 814.875C650.765 835.888 650.291 860.549 648.242 882.311C645.737 883.195 543.587 882.509 529.465 882.785C529.793 862.154 532.339 835.817 533.829 815.073Z" fill="#FDFEFE"/>
<path d="M556.769 834.679C562.542 832.805 568.747 835.923 570.691 841.671C572.635 847.427 569.596 853.67 563.872 855.685C560.104 857.014 555.913 856.208 552.902 853.585C549.89 850.962 548.523 846.917 549.324 843.001C550.125 839.091 552.969 835.909 556.769 834.679Z" fill="#F0F1F3"/>
<path d="M660.289 727.457C663.068 729.246 666.849 732.696 669.642 734.839C692.558 752.423 724.417 756.877 751.85 748.626C761.784 745.642 769.695 741.301 778.76 736.027C778.258 756.269 775.854 778.003 774.68 798.408C774.15 803.145 773.923 808.872 773.464 813.814C735.383 813.284 692.487 813.036 654.524 813.956C655.425 786.099 659.683 755.732 660.289 727.457Z" fill="#FDFEFE"/>
<path d="M772.538 814.825C772.785 815.165 773.033 815.504 773.28 815.836C772.594 830.613 769.031 870.504 768.437 882.736L651.167 882.538C651.126 882.495 651.073 882.46 651.042 882.41C648.56 878.31 653.669 823.585 654.602 814.846C692.588 815.327 734.62 815.61 772.538 814.825Z" fill="#FDFEFE"/>
<path d="M677.091 834.516C680.937 833.243 685.166 834.148 688.164 836.871C691.161 839.593 692.463 843.715 691.571 847.66C690.68 851.612 687.733 854.78 683.857 855.946C677.967 857.728 671.743 854.44 669.891 848.572C668.038 842.703 671.248 836.439 677.091 834.516Z" fill="#F0F1F3"/>
<path d="M455.24 814.854L532.125 814.896C531.325 837.507 528.823 860.16 527.925 882.736L485.377 882.721C463.21 882.75 439.715 883.132 417.628 882.212C406.502 874.859 409.959 864.049 410.495 852.517C411.071 840.13 412.964 827.516 412.968 815.115C427.058 814.924 441.149 814.839 455.24 814.854Z" fill="#FDFEFE"/>
<path d="M435.836 834.615C441.677 832.586 448.058 835.676 450.09 841.516C452.123 847.356 449.04 853.74 443.203 855.777C437.357 857.82 430.965 854.73 428.93 848.883C426.894 843.036 429.987 836.644 435.836 834.615Z" fill="#F0F1F3"/>
<path d="M774.814 814.91C813.468 814.267 854.313 814.974 893.087 815.15C892.075 832.734 889.657 862.698 888.378 881.689C888.045 882.029 887.713 882.368 887.374 882.714C848.204 882.941 809.035 882.891 769.865 882.58C770.94 863.038 772.693 833.908 774.814 814.91Z" fill="#FDFEFE"/>
<path d="M797.319 834.643C803.195 832.876 809.381 836.234 811.106 842.117C812.824 848.006 809.423 854.164 803.52 855.84C797.687 857.502 791.606 854.143 789.902 848.324C788.198 842.498 791.514 836.397 797.319 834.643Z" fill="#F0F1F3"/>
<path d="M894.451 815.087C908.259 814.564 923.439 814.882 937.403 814.882L1011.94 815.03C1011.58 833.477 1008.83 853.592 1008.1 872.413C1006.2 875.305 1005.01 876.881 1002.78 879.547C995.493 884.489 968.562 882.983 958.169 882.962L890.075 882.523C890.393 862.536 893.256 835.76 894.451 815.087Z" fill="#FDFEFE"/>
<path d="M916.157 834.693C920.053 833.42 924.323 834.382 927.307 837.189C930.283 840.003 931.485 844.216 930.439 848.176C929.4 852.128 926.275 855.204 922.301 856.186C916.461 857.622 910.529 854.179 908.874 848.395C907.22 842.611 910.437 836.559 916.157 834.693Z" fill="#F0F1F3"/>
<path d="M829.114 437.088C843.396 436.612 858.76 437.636 872.802 436.906C886.349 436.202 893.249 446.163 881.944 453.254C880.325 453.358 878.698 453.444 877.079 453.51C865.732 453.979 853.797 453.194 842.597 453.747C831.094 454.315 812.817 449.949 829.114 437.088Z" fill="#F0F1F3"/>
<path d="M468.465 437.105C475.871 436.746 515.84 435.855 519.978 437.729C522.152 438.714 523.984 440.649 524.78 442.903C525.546 445.072 525.32 447.273 524.246 449.297C523.077 451.499 521.327 452.47 519.057 453.263C505.326 453.679 491.481 453.545 477.747 453.723C473.411 453.78 465.092 454.029 462.891 449.448C459.905 443.232 462.937 439.752 468.465 437.105Z" fill="#F0F1F3"/>
<path d="M949.882 437.119C963.521 436.555 978.05 437.473 991.512 436.804C1005.41 436.112 1013.9 446.847 1001.17 453.335C984.046 453.452 965.373 454.31 948.454 452.828C943.561 452.4 939.751 441.414 949.882 437.119Z" fill="#F0F1F3"/>
<path d="M587.898 437.103C602.979 436.498 619.104 437 634.256 437.073C644.579 437.121 650.556 446.312 640.017 453.328C625.867 453.836 610.531 452.81 596.608 453.565C582.211 454.347 575.296 444.519 587.898 437.103Z" fill="#F0F1F3"/>
<path d="M708.65 437.167C723.852 436.316 741.188 436.799 756.432 437.238C768.303 437.58 770.148 446.13 760.674 453.406L707.958 453.372C699.977 448.65 700.409 441.312 708.65 437.167Z" fill="#F0F1F3"/>
<path d="M218.274 726.368C208.794 689.54 210.466 642.131 229.534 608.171C231.859 604.029 235.124 598.799 239.167 596.207C241.52 595.855 243.451 596.254 245.258 598.042C274.098 626.558 285.754 668.295 285.728 707.611C301.969 687.256 327.804 669.735 354.102 666.383C356.524 666.074 357.22 666.318 358.975 667.493C363.022 676.25 356.202 701.204 352.695 710.708C341.23 741.768 316.964 767.426 287.487 782.167C284.735 783.546 281.518 784.967 278.865 786.459L278.145 787.088C275.457 787.088 275.013 787.145 272.684 785.851C268.038 787.131 262.19 786.862 257.28 786.89C254.51 786.989 251.537 786.883 248.753 786.805C240.222 786.19 233.094 787.279 223.465 786.141L222.678 785.865C219.741 787.901 215.273 786.657 212.02 786.028C176.573 775.783 146.671 751.843 128.932 719.489C126.986 715.89 113.746 690.288 121.59 688.784C158.739 681.662 193.034 701.595 218.274 726.368Z" fill="#73D5B0"/>
<path d="M121.472 690.966C153.028 687.599 179.469 697.51 203.839 716.88C219.067 728.985 219.702 732.506 225.532 749.602C229.287 760.61 241.079 777.862 248.753 786.806C240.222 786.19 233.094 787.279 223.465 786.141L222.678 785.865C214.995 783.61 204.915 780.987 197.67 778.031C164.214 764.393 127.505 727.662 121.472 690.966Z" fill="#C9EEDA"/>
<path d="M257.28 786.89C258.016 754.127 271.472 726.927 293.497 703.188C308.922 686.563 334.182 670.157 357.182 669.322C358.215 680.749 354.264 699.197 349.876 709.973C334.129 748.647 309.559 769.391 272.684 785.851C268.038 787.131 262.19 786.862 257.28 786.89Z" fill="#C9EEDA"/>
<path d="M240.378 598.493C242.696 599.721 246.087 602.619 247.764 604.621C273.318 635.12 283.85 672.238 282.532 711.302C267.097 730.752 255.04 757.782 254.356 782.86C254.28 785.229 254.674 784.812 253.442 786.176C252.876 785.957 252.132 785.703 251.686 785.257C210.929 744.454 200.904 642.988 240.378 598.493Z" fill="#C9EEDA"/>
<path d="M222.678 785.865L223.465 786.141C233.094 787.279 240.222 786.19 248.753 786.806C251.537 786.883 254.51 786.989 257.28 786.89C262.19 786.862 268.038 787.131 272.684 785.851C275.013 787.145 275.457 787.088 278.145 787.088L278.865 786.459C286.227 787.562 295.46 786.417 303.089 786.692C309.584 786.926 316.124 786.424 320.716 792.207C325.846 798.67 324.362 806.016 323.104 813.447C319.162 836.729 314.952 859.969 310.886 883.23C307.884 899.938 308.98 907.298 293.388 916.68C275.141 922.322 269.048 919.027 250.824 920.442L240.06 920.399C233.031 920.816 187.949 921.304 185.299 918.617L186.055 917.274C188.66 915.909 203.091 916.546 207.198 916.553C196.938 910.472 193.741 904.208 192.023 892.606C187.663 863.144 182.36 833.738 178.677 804.192C178.435 801.074 178.975 798.295 180.297 795.502C186.899 781.588 202.396 789.542 212.02 786.028C215.273 786.657 219.741 787.901 222.678 785.865Z" fill="#F0F1F3"/>
<path d="M222.678 785.865L223.465 786.141C225.107 791.472 227.571 787.576 232.379 789.704C223.325 789.846 191.462 787.484 185.855 793.176C182.572 796.506 181.656 800.833 181.896 805.351C182.275 812.499 183.818 819.824 184.918 826.901L190.751 864.063C192.119 872.632 193.927 882.516 194.87 891.114C196.915 909.78 208.414 916.914 226.565 916.793C244.067 916.68 262.772 917.324 280.39 916.673C290.676 916.228 302.32 909.483 305.012 898.757C309.19 876.754 312.757 854.688 316.691 832.642C318.163 824.398 321.83 807.946 320.855 799.999C320.519 797.128 319.076 794.498 316.833 792.681C312.54 789.21 305.783 789.669 300.5 789.69C291.633 788.297 283.974 789.012 275.07 788.778L277.156 788.524L278.145 787.088L278.865 786.459C286.227 787.562 295.46 786.417 303.089 786.692C309.584 786.926 316.124 786.424 320.716 792.207C325.846 798.67 324.362 806.016 323.104 813.447C319.162 836.729 314.952 859.969 310.886 883.23C307.884 899.938 308.98 907.298 293.388 916.68C275.141 922.322 269.048 919.027 250.824 920.442L240.06 920.399C233.031 920.816 187.949 921.304 185.299 918.617L186.055 917.274C188.66 915.909 203.091 916.546 207.198 916.553C196.938 910.472 193.741 904.208 192.023 892.606C187.663 863.144 182.36 833.738 178.677 804.192C178.435 801.074 178.975 798.295 180.297 795.502C186.899 781.588 202.396 789.542 212.02 786.028C215.273 786.657 219.741 787.901 222.678 785.865Z" fill="#C3C3C6"/>
<path d="M207.198 916.553C210.066 917.26 213.839 919.232 216.309 919.565C223.952 920.604 232.461 919.119 240.06 920.399C233.031 920.816 187.949 921.304 185.299 918.617L186.055 917.274C188.66 915.909 203.09 916.546 207.198 916.553Z" fill="#D6E5F3"/>
<path d="M257.28 786.89C262.19 786.862 268.038 787.131 272.684 785.851C275.013 787.145 275.457 787.088 278.145 787.088L277.156 788.524L275.07 788.778C283.973 789.012 291.633 788.297 300.5 789.69C278.335 789.846 254.451 790.376 232.379 789.704C227.571 787.576 225.107 791.472 223.465 786.141C233.094 787.279 240.222 786.19 248.753 786.806C251.537 786.883 254.51 786.989 257.28 786.89Z" fill="#A1A8B3"/>
<path d="M1113.6 116.153C1119.62 118.236 1120.34 137.227 1125.58 141.863C1131.29 146.922 1144.05 148.824 1149.46 153.728C1149.52 154.14 1149.58 154.552 1149.65 154.964C1144.15 158.467 1131.8 161.763 1126.93 165.717C1119.81 171.505 1119.64 186.323 1115.27 193.29C1110.99 191.057 1107.93 177.775 1106.72 172.749C1103.78 160.485 1082.01 160.462 1079.25 153.216C1083.96 150.06 1096.23 146.877 1101.34 142.945C1108.48 137.439 1108.96 122.413 1113.6 116.153Z" fill="#8197B7"/>
<path d="M1114.43 122.823C1123.05 145.933 1120.57 145.855 1145.27 154.055C1122.34 161.988 1122.14 162.669 1114.76 185.473L1114.28 185.536C1112.37 182.399 1109.87 171.063 1106.2 164.577C1097.64 158.98 1093.95 157.332 1084.42 154.188C1106.36 146.698 1106.65 144.049 1114.43 122.823Z" fill="#D6E5F3"/>
<path d="M233.996 364.904C234.666 365.114 235.47 365.365 236.407 365.659C240.406 371.784 241.769 383.9 246.717 389.501C250.948 394.29 265.738 395.935 269.119 400.854L268.89 402.075C261.513 407.779 247.372 406.813 242.96 418.426C240.124 425.889 238.727 431.918 236.99 439.687C236.442 439.553 235.894 439.418 235.346 439.285C232.721 438.953 230.34 427.908 229.735 425.305C225.593 407.485 218.625 410.615 204.043 402.788C202.374 401.892 202.033 401.593 201.669 400.112C208.332 394.532 222.515 394.883 227.123 385.225C230.332 378.499 231.951 372.036 233.996 364.904Z" fill="#73D5B0"/>
<path d="M235.415 371.883C243.252 392.916 242.926 392.741 263.795 400.952C249.756 406.416 243.894 407.457 238.208 422.353C237.15 426.474 236.292 429.34 234.869 433.344C233.738 427.929 233.161 424.813 231.117 419.598C226.757 409.235 221.811 406.635 211.396 402.402C209.988 401.831 208.565 401.293 207.131 400.787C226.946 393.337 228.812 392.401 235.415 371.883Z" fill="#C9EEDA"/>
<path d="M250.824 920.442C269.048 919.027 275.141 922.322 293.388 916.68C309.22 917.727 330.734 916.751 347.022 917.062C354.74 917.21 378.663 917.564 385.468 916.871C387.275 917.507 393.882 919.749 395.09 920.491C359.054 921.318 322.607 920.088 286.534 920.597C274.761 920.76 262.595 920.731 250.824 920.442Z" fill="#D6E5F3"/>
<path d="M1128.85 922.216C1129.51 921.7 1135.68 919.388 1137.65 918.419C1148.18 918.794 1230.62 918.518 1233.45 919.692C1234.12 921.332 1234.06 920.47 1233.31 922.365C1230.74 923.249 1136.37 922.853 1128.85 922.216Z" fill="#D6E5F3"/>
<path d="M1256.36 919.24C1262.89 919.148 1280.4 918.193 1286.6 920.152C1287.35 920.392 1287.21 922.11 1287.28 923.178C1281.27 923.284 1263.13 924.295 1257.26 922.428C1256.47 922.181 1256.51 920.399 1256.36 919.24Z" fill="#D6E5F3"/>
<path d="M145.305 916.433C150.179 916.376 170.134 915.301 172.997 917.783L173.075 920.053C167.328 920.279 152.278 921.495 146.423 919.508C145.549 919.211 145.549 917.67 145.305 916.433Z" fill="#D6E5F3"/>
<path d="M1329.44 458.408C1332.85 458.991 1337.13 464.389 1339.03 467.17C1342.12 471.691 1343.81 472.26 1343.1 476.993C1339.28 476.058 1328.96 462.838 1329.44 458.408Z" fill="#C3C3C6"/>
<path d="M1349.76 487.677C1354.02 489.145 1358.64 504.471 1356.65 508.527C1352.12 506.452 1351.48 497.778 1349.49 493.378C1348.33 490.807 1348.52 489.921 1349.76 487.677Z" fill="#C3C3C6"/>
<path d="M1357.63 521.221C1358.74 521.537 1359.21 521.788 1360.26 522.249C1362.29 526.288 1362.99 538.739 1360.77 542.696C1360.08 542.295 1358.89 541.778 1358.65 541.179C1357.22 537.677 1357.07 524.53 1357.63 521.221Z" fill="#C3C3C6"/>
<path d="M1262.91 435.126C1267.45 434.828 1274.73 433.907 1278.74 435.482C1279.73 437.402 1279.56 436.54 1278.86 439.059C1274.66 438.862 1263.79 440.062 1261.32 438.035L1261.31 436.737L1262.91 435.126Z" fill="#C3C3C6"/>
<path d="M1288.35 452.103C1289.68 452.371 1289.65 452.528 1290.7 453.435C1291.14 457.906 1284.39 466.351 1281.56 469.841L1279.75 468.338C1279.52 465.317 1286.38 455.566 1288.35 452.103Z" fill="#C3C3C6"/>
<path d="M1357.25 554.599C1358.29 555.145 1359.36 555.413 1359.64 556.34C1360.77 560.084 1357.74 570.85 1356.42 574.126L1354.04 572.957C1352.81 569.473 1355.79 558.127 1357.25 554.599Z" fill="#C3C3C6"/>
<path d="M1302.44 440.018C1305.55 440.481 1315.76 445.278 1317.92 448.135C1318.81 449.315 1318.26 450.055 1317.87 451.507C1314.75 450.716 1304.97 445.861 1302.52 443.283C1301.75 442.474 1302.23 441.444 1302.44 440.018Z" fill="#C3C3C6"/>
<path d="M1207.04 503.139C1211.48 504.206 1221.43 504.987 1223.54 506.975L1222.98 509.392C1218.19 509.738 1211.34 509.857 1207.3 507.188C1206.17 504.991 1206.38 505.962 1207.04 503.139Z" fill="#C3C3C6"/>
<path d="M1349.36 585.633C1349.81 585.858 1350.95 586.702 1351.35 586.977C1352.41 591.249 1346.95 600.58 1344.88 604.421L1342.96 603.093C1341.81 599.574 1347.45 589.619 1349.36 585.633Z" fill="#C3C3C6"/>
<path d="M1243.87 439.045C1245.58 439.892 1244.91 439.293 1245.92 440.936C1244.79 443.968 1234.96 447.128 1230.96 449.033C1229.92 448.488 1229.92 448.227 1229.07 447.271L1229.42 445.819C1232.54 443.005 1239.79 440.629 1243.87 439.045Z" fill="#C3C3C6"/>
<path d="M1215.59 453.704L1217.06 455.336C1217.06 458.981 1208.61 466.315 1205.45 469.505C1204.44 468.314 1204.49 468.35 1203.9 466.89C1205.32 462.047 1211.7 457.157 1215.59 453.704Z" fill="#C3C3C6"/>
<path d="M1197.1 478.866C1199.11 479.715 1198.35 479.055 1199.49 480.855C1199.44 483.971 1199.3 495.62 1198.17 497.537C1192.19 494.402 1194.28 483.764 1197.1 478.866Z" fill="#C3C3C6"/>
<path d="M1334.89 614.616C1336.8 615.095 1335.99 614.644 1337.4 616.005C1337.7 619.598 1330.84 627.743 1328.43 630.975C1327.61 631.039 1327.3 630.79 1326.41 630.48L1325.9 629.271C1326.8 626.102 1332.67 617.944 1334.89 614.616Z" fill="#C3C3C6"/>
<path d="M1270.03 352.427C1273.89 353.332 1283.21 357.631 1285.26 361.296C1285.7 362.093 1284.73 363.367 1284.31 364.206C1280.47 362.131 1273.13 358.582 1269.99 355.615C1269.21 354.881 1269.75 353.827 1270.03 352.427Z" fill="#C3C3C6"/>
<path d="M1239.31 347.155C1242.92 346.958 1253.38 346.766 1256.32 349.096C1257.26 349.837 1257.05 350.759 1257.22 352.194C1253.4 352.205 1243.89 352.043 1240.54 350.2C1239.48 349.62 1239.61 348.623 1239.31 347.155Z" fill="#C3C3C6"/>
<path d="M1293.59 371.427C1298.58 372.355 1302.93 384.736 1301.51 389.545C1300.62 389.064 1299.18 388.447 1298.87 387.446C1297.37 382.601 1292.06 376.211 1293.59 371.427Z" fill="#C3C3C6"/>
<path d="M1302.06 400.518C1307.05 402.944 1304.46 417.165 1301.95 420.475C1300.65 419.489 1300.74 419.567 1300.03 418.094C1300.05 413.977 1300.17 403.908 1302.06 400.518Z" fill="#C3C3C6"/>
<path d="M1269.81 477.644C1275.87 480.587 1263.47 489.524 1260.63 492.085L1258.95 490.923L1258.71 489.37C1260.62 486.199 1266.84 480.578 1269.81 477.644Z" fill="#C3C3C6"/>
<path d="M1315.91 640.225C1317.68 641.044 1316.91 640.468 1318.15 642.215C1317.41 645.564 1310.69 651.428 1307.92 654.095C1307.3 653.903 1306.46 653.274 1305.85 652.883L1305.67 651.371C1307.43 648.186 1313.13 643.012 1315.91 640.225Z" fill="#C3C3C6"/>
<path d="M1219.71 348.105C1223.07 347.469 1223.55 347.287 1225.84 348.768C1226.11 351.67 1216.6 352.647 1214.81 352.852C1211.94 353.535 1211.61 353.657 1209.48 352.468C1209.38 349.022 1217.47 348.363 1219.71 348.105Z" fill="#C3C3C6"/>
<path d="M1194.39 354.176L1196.47 354.419L1197.17 355.507C1195.56 358.628 1188.85 360.695 1185.3 362.1C1184.72 362.177 1183.59 361.963 1182.93 361.878L1182.74 360.784C1184.34 357.47 1190.89 355.526 1194.39 354.176Z" fill="#C3C3C6"/>
<path d="M1246.04 496.188C1248.4 496.458 1247.42 496.017 1249.18 497.367L1248.75 498.758C1245.99 501.311 1242.36 502.854 1238.96 504.536L1237.41 504.561L1237.68 504.473L1235.95 503.428C1237.14 500.156 1242.9 497.782 1246.04 496.188Z" fill="#C3C3C6"/>
<path d="M1297.52 430.797C1299.64 431.853 1298.87 431.09 1299.98 433.071C1300.02 437.348 1298.29 440.172 1296.41 443.931C1294.11 442.317 1294.55 443.081 1293.51 440.78C1293.72 437.403 1295.9 433.914 1297.52 430.797Z" fill="#C3C3C6"/>
</g>
<defs>
<linearGradient id="paint0_linear_55_189" x1="780.237" y1="257.436" x2="782.182" y2="348.668" gradientUnits="userSpaceOnUse">
<stop stop-color="#7A8598"/>
<stop offset="1" stop-color="#859BBA"/>
</linearGradient>
<clipPath id="clip0_55_189">
<rect width="1448" height="1086" fill="white"/>
</clipPath>
</defs>
</svg>
