<svg version="1.1" xmlns="http://www.w3.org/2000/svg" style="display: block;" viewBox="0 0 2048 1536" width="1448" height="1086" preserveAspectRatio="none">
<path transform="translate(0,0)" fill="rgb(252,253,254)" d="M 0 0 L 2048 0 L 2048 1536 L 0 1536 L 0 0 z"/>
<path transform="translate(0,0)" fill="rgb(252,253,254)" d="M 931.881 329.784 C 931.514 306.434 934.539 289.001 951.549 271.411 C 996.214 225.224 1069.83 257.825 1070.05 321.308 C 1070.05 324.163 1070.03 327.017 1069.98 329.871 L 1125.19 329.64 C 1139.66 329.613 1158.6 327.108 1169.83 338.018 C 1179.36 347.268 1178.07 360.181 1177.98 372.248 L 1279.99 372.158 C 1298.79 372.143 1321.97 370.438 1339.94 373.712 C 1383.4 381.633 1377.58 431.599 1378.44 463.207 L 1381.04 549.01 L 1390.97 855.782 C 1452.91 856.842 1511.94 882.261 1555.28 926.532 C 1561.92 933.41 1569.02 941.913 1575.42 949.202 L 1577.11 948.237 C 1576.5 937.74 1578.09 922.594 1578.97 911.807 C 1599.53 896.316 1625.76 879.093 1647.31 864.163 C 1646.82 879.664 1642.67 900.143 1643.04 914.8 C 1646.81 911.806 1649.87 908.759 1654.42 907.567 L 1656.28 908.126 C 1655.55 913.475 1649.56 916.094 1645.19 918.893 C 1660.76 925.197 1677.38 930.462 1693.38 935.703 C 1671.3 950.306 1647.65 965.005 1626.01 979.956 C 1614.83 976.798 1598.77 972.45 1588.05 968.445 C 1595.42 980.286 1601.92 990.575 1607.61 1003.28 C 1628.43 1049.76 1632.47 1103.29 1621 1152.64 C 1610.56 1197.62 1587.03 1232.56 1552.96 1263.02 C 1539.72 1274.86 1531.74 1282.54 1516.38 1292 C 1503.14 1300.14 1489.14 1306.96 1474.57 1312.38 C 1469.79 1314.02 1459.49 1317.87 1454.97 1318.64 C 1427.94 1327.13 1394.1 1327.2 1366.23 1323.53 C 1355.37 1322.1 1347.38 1319.02 1335.8 1318.96 C 1257.18 1318.6 1178.55 1318.59 1099.92 1318.58 L 623.038 1318.32 C 556.89 1318.14 485.629 1320.19 420.214 1318.2 C 416.225 1316.17 410.245 1314.17 406.002 1312.72 C 392.825 1303.32 389.405 1296.4 386.889 1280.4 C 381.711 1246.82 376.511 1213.2 371.492 1179.6 C 369.894 1168.9 366.002 1152.82 372.85 1143.64 C 383.28 1129.66 400.833 1136.99 415.502 1134.08 C 420.524 1134.75 426.093 1135.74 430.752 1133.72 C 443.016 1134.75 452.522 1134.76 464.887 1134.67 C 466.975 1134.74 468.563 1134.9 470.621 1134.46 L 472.2 1134.7 L 477.101 1135.18 C 481.819 1134.62 491.759 1134.49 496.735 1134.31 C 501.517 1135.29 504.374 1135.43 508.869 1133.56 C 527.296 1141.25 576.682 1118.71 568.198 1166.45 C 560.849 1207.81 554.583 1254.19 544.686 1295.27 C 543.298 1301.03 532.32 1309.89 527.671 1313.42 C 573.125 1312.77 620.16 1313.54 665.956 1313.18 C 646.486 1301.58 639.55 1288.47 639.226 1266.05 C 638.933 1245.73 638.286 1225.16 637.696 1204.84 L 633.48 1035.12 L 618.951 443.729 C 618.573 422.372 616.394 404.229 632.61 387.511 C 652.784 366.714 688.316 372.13 715.755 372.155 L 821.082 372.087 C 820.599 346.792 823.856 329.81 854.696 329.684 C 880.318 329.58 906.261 329.427 931.881 329.784 z"/>
<path transform="translate(0,0)" fill="rgb(192,191,192)" d="M 1177.98 372.248 L 1279.99 372.158 C 1298.79 372.143 1321.97 370.438 1339.94 373.712 C 1383.4 381.633 1377.58 431.599 1378.44 463.207 L 1381.04 549.01 L 1390.97 855.782 C 1452.91 856.842 1511.94 882.261 1555.28 926.532 C 1561.92 933.41 1569.02 941.913 1575.42 949.202 L 1577.11 948.237 C 1576.5 937.74 1578.09 922.594 1578.97 911.807 C 1599.53 896.316 1625.76 879.093 1647.31 864.163 C 1646.82 879.664 1642.67 900.143 1643.04 914.8 C 1646.81 911.806 1649.87 908.759 1654.42 907.567 L 1656.28 908.126 C 1655.55 913.475 1649.56 916.094 1645.19 918.893 C 1660.76 925.197 1677.38 930.462 1693.38 935.703 C 1671.3 950.306 1647.65 965.005 1626.01 979.956 C 1614.83 976.798 1598.77 972.45 1588.05 968.445 C 1595.42 980.286 1601.92 990.575 1607.61 1003.28 C 1628.43 1049.76 1632.47 1103.29 1621 1152.64 C 1610.56 1197.62 1587.03 1232.56 1552.96 1263.02 C 1539.72 1274.86 1531.74 1282.54 1516.38 1292 C 1503.14 1300.14 1489.14 1306.96 1474.57 1312.38 C 1469.79 1314.02 1459.49 1317.87 1454.97 1318.64 C 1427.94 1327.13 1394.1 1327.2 1366.23 1323.53 C 1355.37 1322.1 1347.38 1319.02 1335.8 1318.96 C 1257.18 1318.6 1178.55 1318.59 1099.92 1318.58 L 623.038 1318.32 C 556.89 1318.14 485.629 1320.19 420.214 1318.2 C 416.225 1316.17 410.245 1314.17 406.002 1312.72 C 392.825 1303.32 389.405 1296.4 386.889 1280.4 C 381.711 1246.82 376.511 1213.2 371.492 1179.6 C 369.894 1168.9 366.002 1152.82 372.85 1143.64 C 383.28 1129.66 400.833 1136.99 415.502 1134.08 C 420.524 1134.75 426.093 1135.74 430.752 1133.72 C 443.016 1134.75 452.522 1134.76 464.887 1134.67 C 466.975 1134.74 468.563 1134.9 470.621 1134.46 L 472.2 1134.7 L 477.101 1135.18 C 481.819 1134.62 491.759 1134.49 496.735 1134.31 C 501.517 1135.29 504.374 1135.43 508.869 1133.56 C 527.296 1141.25 576.682 1118.71 568.198 1166.45 C 560.849 1207.81 554.583 1254.19 544.686 1295.27 C 543.298 1301.03 532.32 1309.89 527.671 1313.42 C 573.125 1312.77 620.16 1313.54 665.956 1313.18 C 646.486 1301.58 639.55 1288.47 639.226 1266.05 C 638.933 1245.73 638.286 1225.16 637.696 1204.84 L 633.48 1035.12 L 618.951 443.729 C 618.573 422.372 616.394 404.229 632.61 387.511 C 652.784 366.714 688.316 372.13 715.755 372.155 L 821.082 372.087 L 821.245 376.677 L 822.126 415.786 C 792.767 417.707 761.525 416.013 732.03 416.6 C 721.791 416.804 700.761 415.833 691.556 417.991 C 684.837 419.594 678.785 423.254 674.246 428.462 C 669.339 434.1 666.413 442.153 666.116 449.533 C 665.319 469.294 666.191 489.549 666.696 509.336 L 668.168 587.077 L 673.914 840.844 L 680.965 1114.5 L 683.471 1191.93 C 683.918 1207.18 683.91 1222.4 684.903 1237.6 C 685.535 1247.28 689.321 1254.59 696.73 1260.75 C 710.872 1272.5 738.475 1268.96 756.484 1268.98 L 830.063 1268.99 L 1053.61 1268.94 L 1179.2 1268.99 C 1187.86 1269.02 1238.72 1269.58 1242.71 1267.82 C 1147.23 1182.23 1133.23 1047.57 1213.16 946.327 C 1215.05 944.705 1221.93 936.368 1223.96 934.008 C 1257.61 896.552 1295.8 870.179 1345.93 860.275 C 1344.85 849.155 1344.94 834.296 1344.62 822.87 L 1342.62 759.876 L 1335.23 534.63 C 1334.59 516.293 1334.09 497.952 1333.73 479.607 C 1333.2 457.394 1336.69 429.176 1310.9 419.095 C 1300.78 415.142 1283.59 416.274 1272.6 416.315 L 1214.42 416.614 C 1205.31 416.651 1188.62 417.101 1180.15 415.957 L 1178.97 415.788 L 1178.07 377.081 L 1177.98 372.248 z"/>
<path transform="translate(0,0)" fill="rgb(252,253,254)" d="M 1221.81 946.971 C 1237.34 927.222 1251.28 910.87 1272.25 896.722 C 1376.52 826.372 1503.26 863.033 1575.9 958.109 C 1575.85 954.09 1576.36 952.125 1577.11 948.237 C 1576.5 937.74 1578.09 922.594 1578.97 911.807 C 1599.53 896.316 1625.76 879.093 1647.31 864.163 C 1646.82 879.664 1642.67 900.143 1643.04 914.8 C 1646.81 911.806 1649.87 908.759 1654.42 907.567 L 1656.28 908.126 C 1655.55 913.475 1649.56 916.094 1645.19 918.893 C 1660.76 925.197 1677.38 930.462 1693.38 935.703 C 1671.3 950.306 1647.65 965.005 1626.01 979.956 C 1614.83 976.798 1598.77 972.45 1588.05 968.445 L 1580.28 965.691 C 1648.11 1054.67 1633.78 1195.9 1542.98 1264.08 C 1444.86 1337.76 1306.21 1307.25 1235.35 1211.17 C 1217.9 1187.43 1206.99 1166.07 1197.08 1138.3 C 1196.03 1129.44 1190.22 1112.65 1188.6 1100.5 C 1180.13 1037.01 1192.41 1001.03 1221.81 946.971 z"/>
<path transform="translate(0,0)" fill="rgb(229,232,237)" d="M 1531.6 999.511 C 1532.84 1002.48 1535.72 1006.87 1537.52 1009.72 C 1559.62 1044.68 1567.63 1086.94 1559.27 1128.08 C 1551.85 1165.78 1529.65 1198.93 1497.62 1220.15 C 1465.4 1241.52 1425.96 1249.1 1388.11 1241.2 C 1342.02 1231.58 1301.74 1203.8 1276.35 1164.14 C 1252.69 1127.55 1241.72 1082.79 1251.13 1039.74 C 1259.43 1001.04 1282.78 967.235 1316.02 945.762 C 1349.62 924.386 1386.57 918.01 1425.54 926.709 C 1464.38 935.38 1506.86 961.801 1528.31 995.811 C 1515.16 1005.13 1501.24 1014.69 1488.3 1024.2 L 1484.82 1026.6 C 1471.99 1035.58 1456.84 1045.65 1444.63 1055.16 L 1441.17 1057.48 C 1434.02 1062.54 1406.1 1080.51 1403.81 1086.75 L 1405.26 1087.6 C 1415.2 1083.76 1434.34 1068.11 1444.56 1061.29 L 1447.57 1059.09 L 1487.72 1030.72 L 1491.1 1028.39 L 1531.6 999.511 z"/>
<path transform="translate(0,0)" fill="rgb(252,253,254)" d="M 1487.72 1030.72 C 1500.55 1050.73 1507.48 1069.6 1507.1 1093.77 C 1506.86 1119.91 1496.07 1144.84 1477.18 1162.9 C 1458.89 1180.18 1434.97 1188.06 1410.04 1187.08 C 1381.12 1185.75 1353.94 1172.88 1334.57 1151.36 C 1314.22 1129.54 1303.49 1100.46 1304.79 1070.65 C 1306.12 1045.56 1316.42 1021.43 1335.3 1004.56 C 1354.18 987.926 1378.94 979.558 1404.04 981.328 C 1438.88 983.469 1462.84 1001.46 1484.82 1026.6 C 1471.99 1035.58 1456.84 1045.65 1444.63 1055.16 L 1441.17 1057.48 C 1434.02 1062.54 1406.1 1080.51 1403.81 1086.75 L 1405.26 1087.6 C 1415.2 1083.76 1434.34 1068.11 1444.56 1061.29 L 1447.57 1059.09 L 1487.72 1030.72 z"/>
<path transform="translate(0,0)" fill="rgb(229,232,237)" d="M 1444.56 1061.29 C 1457.57 1094.29 1451.24 1127.72 1408.83 1131.63 C 1397.45 1131.95 1380.94 1123.98 1373.72 1115.67 C 1332.08 1067.8 1393.16 1006.25 1441.17 1057.48 C 1434.02 1062.54 1406.1 1080.51 1403.81 1086.75 L 1405.26 1087.6 C 1415.2 1083.76 1434.34 1068.11 1444.56 1061.29 z"/>
<path transform="translate(0,0)" fill="rgb(192,191,192)" d="M 1447.57 1059.09 C 1458.66 1078.43 1459.41 1102.52 1444.28 1120.09 C 1425.25 1142.18 1392.08 1138.95 1371.93 1120.26 C 1351.85 1101.63 1350 1067.6 1369.29 1047.72 C 1377.85 1038.97 1389.57 1034.06 1401.8 1034.09 C 1420.49 1034.01 1432.14 1042.8 1444.63 1055.16 L 1441.17 1057.48 C 1393.16 1006.25 1332.08 1067.8 1373.72 1115.67 C 1380.94 1123.98 1397.45 1131.95 1408.83 1131.63 C 1451.24 1127.72 1457.57 1094.29 1444.56 1061.29 L 1447.57 1059.09 z"/>
<path transform="translate(0,0)" fill="rgb(192,191,192)" d="M 1491.1 1028.39 C 1507.99 1051.04 1514.52 1081.18 1510.08 1108.95 C 1505.95 1135.21 1491.56 1158.75 1470.07 1174.39 C 1447.99 1190.23 1421.47 1193.89 1394.95 1189.78 C 1305.55 1175.93 1262.47 1048.7 1341.73 994.051 C 1363.65 979.199 1390.57 973.632 1416.59 978.567 C 1442.8 983.49 1473.34 1002.14 1488.3 1024.2 L 1484.82 1026.6 C 1462.84 1001.46 1438.88 983.469 1404.04 981.328 C 1378.94 979.558 1354.18 987.926 1335.3 1004.56 C 1316.42 1021.43 1306.12 1045.56 1304.79 1070.65 C 1303.49 1100.46 1314.22 1129.54 1334.57 1151.36 C 1353.94 1172.88 1381.12 1185.75 1410.04 1187.08 C 1434.97 1188.06 1458.89 1180.18 1477.18 1162.9 C 1496.07 1144.84 1506.86 1119.91 1507.1 1093.77 C 1507.48 1069.6 1500.55 1050.73 1487.72 1030.72 L 1491.1 1028.39 z"/>
<path transform="translate(0,0)" fill="rgb(192,191,192)" d="M 1535.04 996.96 C 1558.56 1025.23 1569.37 1073.87 1566.28 1110.21 C 1563.18 1150.47 1544.06 1187.8 1513.21 1213.86 C 1482.13 1239.83 1441.52 1251.36 1401.49 1247.41 C 1307.52 1238.13 1234.7 1147.74 1244.49 1054.4 C 1248.79 1013.86 1269.13 976.716 1300.98 951.256 C 1368.74 897.289 1463.44 915.377 1518.93 976.753 C 1523.66 981.987 1528.01 987.575 1532.37 993.12 L 1528.31 995.811 C 1506.86 961.801 1464.38 935.38 1425.54 926.709 C 1386.57 918.01 1349.62 924.386 1316.02 945.762 C 1282.78 967.235 1259.43 1001.04 1251.13 1039.74 C 1241.72 1082.79 1252.69 1127.55 1276.35 1164.14 C 1301.74 1203.8 1342.02 1231.58 1388.11 1241.2 C 1425.96 1249.1 1465.4 1241.52 1497.62 1220.15 C 1529.65 1198.93 1551.85 1165.78 1559.27 1128.08 C 1567.63 1086.94 1559.62 1044.68 1537.52 1009.72 C 1535.72 1006.87 1532.84 1002.48 1531.6 999.511 L 1535.04 996.96 z"/>
<path transform="translate(0,0)" fill="rgb(229,232,237)" d="M 1647.31 864.163 C 1646.82 879.664 1642.67 900.143 1643.04 914.8 C 1641.8 915.599 1639.34 917.291 1638.14 917.895 L 1581.14 957.99 L 1576.26 961.541 L 1575.9 958.109 C 1575.85 954.09 1576.36 952.125 1577.11 948.237 C 1576.5 937.74 1578.09 922.594 1578.97 911.807 C 1599.53 896.316 1625.76 879.093 1647.31 864.163 z"/>
<path transform="translate(0,0)" fill="rgb(111,138,175)" d="M 1647.31 864.163 C 1646.82 879.664 1642.67 900.143 1643.04 914.8 C 1641.8 915.599 1639.34 917.291 1638.14 917.895 C 1639.16 903.129 1640.24 887.905 1642.12 873.23 C 1622.38 886.632 1602.84 900.918 1583.15 914.142 C 1582.32 924.659 1579.96 948.717 1581.14 957.99 L 1576.26 961.541 L 1575.9 958.109 C 1575.85 954.09 1576.36 952.125 1577.11 948.237 C 1576.5 937.74 1578.09 922.594 1578.97 911.807 C 1599.53 896.316 1625.76 879.093 1647.31 864.163 z"/>
<path transform="translate(0,0)" fill="rgb(229,232,237)" d="M 1645.19 918.893 C 1660.76 925.197 1677.38 930.462 1693.38 935.703 C 1671.3 950.306 1647.65 965.005 1626.01 979.956 C 1614.83 976.798 1598.77 972.45 1588.05 968.445 L 1580.28 965.691 L 1578.96 965.493 C 1580.25 964.405 1582.41 963.25 1583.92 962.351 C 1601.86 950.634 1622.24 934.73 1640.54 922.168 L 1645.19 918.893 z"/>
<path transform="translate(0,0)" fill="rgb(111,138,175)" d="M 1645.19 918.893 C 1660.76 925.197 1677.38 930.462 1693.38 935.703 C 1671.3 950.306 1647.65 965.005 1626.01 979.956 C 1614.83 976.798 1598.77 972.45 1588.05 968.445 L 1580.28 965.691 L 1578.96 965.493 C 1580.25 964.405 1582.41 963.25 1583.92 962.351 C 1596.03 966.794 1612.97 971.208 1625.64 974.817 L 1683.25 936.963 C 1669.46 932.422 1653.83 927.644 1640.54 922.168 L 1645.19 918.893 z"/>
<path transform="translate(0,0)" fill="rgb(74,74,76)" d="M 1643.04 914.8 C 1646.81 911.806 1649.87 908.759 1654.42 907.567 L 1656.28 908.126 C 1655.55 913.475 1649.56 916.094 1645.19 918.893 L 1640.54 922.168 C 1622.24 934.73 1601.86 950.634 1583.92 962.351 C 1582.41 963.25 1580.25 964.405 1578.96 965.493 C 1564.43 976.132 1549.79 986.622 1535.04 996.96 L 1531.6 999.511 L 1491.1 1028.39 L 1487.72 1030.72 L 1447.57 1059.09 L 1444.56 1061.29 C 1434.34 1068.11 1415.2 1083.76 1405.26 1087.6 L 1403.81 1086.75 C 1406.1 1080.51 1434.02 1062.54 1441.17 1057.48 L 1444.63 1055.16 C 1456.84 1045.65 1471.99 1035.58 1484.82 1026.6 L 1488.3 1024.2 C 1501.24 1014.69 1515.16 1005.13 1528.31 995.811 L 1532.37 993.12 C 1546.9 982.455 1561.53 971.928 1576.26 961.541 L 1581.14 957.99 L 1638.14 917.895 C 1639.34 917.291 1641.8 915.599 1643.04 914.8 z"/>
<path transform="translate(0,0)" fill="rgb(229,232,237)" d="M 1323.46 1313.04 L 1317.98 1313.14 C 1276.15 1313.82 1235.19 1313.36 1193.46 1313.39 L 916.719 1313.5 L 763.591 1313.44 C 736.436 1313.47 708.561 1314.05 681.666 1312.84 C 664.143 1312.05 645.919 1294.52 644.747 1277.07 C 642.669 1246.14 642.384 1214.49 641.579 1183.54 L 636.866 994.804 L 627.011 581.447 C 625.964 529.801 624.208 478.139 623.185 426.491 C 622.896 411.901 625.875 400.361 636.447 389.921 C 642.769 383.787 650.697 379.566 659.315 377.744 C 669.369 375.72 702.533 376.603 714.493 376.62 L 821.245 376.677 L 822.126 415.786 C 792.767 417.707 761.525 416.013 732.03 416.6 C 721.791 416.804 700.761 415.833 691.556 417.991 C 684.837 419.594 678.785 423.254 674.246 428.462 C 669.339 434.1 666.413 442.153 666.116 449.533 C 665.319 469.294 666.191 489.549 666.696 509.336 L 668.168 587.077 L 673.914 840.844 L 680.965 1114.5 L 683.471 1191.93 C 683.918 1207.18 683.91 1222.4 684.903 1237.6 C 685.535 1247.28 689.321 1254.59 696.73 1260.75 C 710.872 1272.5 738.475 1268.96 756.484 1268.98 L 830.063 1268.99 L 1053.61 1268.94 L 1179.2 1268.99 C 1187.86 1269.02 1238.72 1269.58 1242.71 1267.82 C 1269.24 1288.19 1290.91 1302.73 1323.46 1313.04 z"/>
<path transform="translate(0,0)" fill="rgb(229,232,237)" d="M 1178.07 377.081 C 1209.69 375.848 1243.45 376.351 1275.17 376.612 C 1298.75 376.807 1341.41 371.921 1358.5 388.023 C 1365.18 394.261 1369.68 402.486 1371.33 411.48 C 1373.25 422.234 1373.18 447.323 1373.5 459.272 L 1376.19 542.742 C 1379.45 646.751 1381.82 752.048 1386.42 855.945 C 1371.61 856.079 1360.52 856.93 1345.93 860.275 C 1344.85 849.155 1344.94 834.296 1344.62 822.87 L 1342.62 759.876 L 1335.23 534.63 C 1334.59 516.293 1334.09 497.952 1333.73 479.607 C 1333.2 457.394 1336.69 429.176 1310.9 419.095 C 1300.78 415.142 1283.59 416.274 1272.6 416.315 L 1214.42 416.614 C 1205.31 416.651 1188.62 417.101 1180.15 415.957 L 1178.97 415.788 L 1178.07 377.081 z"/>
<path transform="translate(0,0)" fill="rgb(229,232,237)" d="M 1511.89 1289.55 C 1503.26 1294.75 1494.31 1299.38 1485.08 1303.43 C 1429.67 1328.02 1369.99 1326.51 1313.93 1304.8 C 1256.49 1282.68 1210.18 1238.67 1185.17 1182.43 C 1160.8 1126.95 1158.47 1068.6 1180.64 1012.11 C 1186.86 996.276 1207.02 953.464 1221.81 946.971 C 1192.41 1001.03 1180.13 1037.01 1188.6 1100.5 C 1190.22 1112.65 1196.03 1129.44 1197.08 1138.3 C 1194.93 1140.06 1195.69 1147.58 1196.61 1150.11 C 1238.58 1266.39 1367.22 1338.52 1486.98 1298.43 C 1494.98 1295.75 1502.63 1292.13 1510.81 1289.85 L 1511.89 1289.55 z"/>
<path transform="translate(0,0)" fill="rgb(229,232,237)" d="M 388.049 1139.21 C 411.476 1138.66 435.306 1139.34 458.8 1139.23 C 488.09 1139.09 517.422 1139.03 546.724 1139.06 C 561.541 1139.08 565.947 1151.01 564.135 1163.91 C 561.382 1177.03 559.848 1193.52 556.666 1206.24 C 550.916 1229.22 548.579 1281.52 536.803 1299.72 C 524.336 1313.01 508.52 1314.86 491.166 1313.28 C 470.624 1311.42 430.223 1317.24 412.306 1309.95 C 404.096 1306.65 397.588 1300.14 394.287 1291.93 C 388.548 1277.3 376.977 1180.07 373.144 1156.99 C 372.853 1155.24 374.549 1150.08 375.458 1148.26 C 378.24 1142.71 382.69 1141.11 388.049 1139.21 z"/>
<path transform="translate(0,0)" fill="rgb(111,138,175)" d="M 931.881 329.784 C 931.514 306.434 934.539 289.001 951.549 271.411 C 996.214 225.224 1069.83 257.825 1070.05 321.308 C 1070.05 324.163 1070.03 327.017 1069.98 329.871 L 1125.19 329.64 C 1139.66 329.613 1158.6 327.108 1169.83 338.018 C 1179.36 347.268 1178.07 360.181 1177.98 372.248 L 1178.07 377.081 L 1178.97 415.788 C 1179.36 429.899 1182.24 449.336 1171.76 460.373 C 1166.29 466.132 1159.47 468.511 1151.66 468.619 C 1131.61 468.897 1111.54 468.752 1091.49 468.758 L 976.254 468.795 L 894.494 468.793 C 879.425 468.789 864.647 469.037 849.581 468.25 C 818.454 466.623 822.126 438.546 822.126 415.786 L 821.245 376.677 L 821.082 372.087 C 820.599 346.792 823.856 329.81 854.696 329.684 C 880.318 329.58 906.261 329.427 931.881 329.784 z"/>
<path transform="translate(0,0)" fill="rgb(229,232,237)" d="M 995.693 254.313 C 1015.89 252.217 1035.82 261.311 1049.01 276.549 C 1064.54 294.489 1066.41 311.301 1064.95 333.971 L 1118.85 333.894 C 1139.5 333.855 1173.52 328.807 1173.53 358.858 C 1173.53 387.459 1176.41 419.109 1173.99 447.765 C 1173.46 453.994 1163.17 463.04 1156.67 463.617 C 1139.46 465.145 1121.45 464.505 1104.02 464.455 L 1004.75 464.403 L 898.493 464.427 C 883.464 464.446 868.29 464.666 853.266 464.307 C 846.582 464.148 840.322 463.347 835.096 458.881 C 828.859 453.551 827.141 447.075 827.007 439.217 C 826.439 422.411 826.145 405.655 825.754 388.85 C 825.596 377.934 824.928 367.226 825.742 356.348 C 827.365 334.649 847.395 333.369 864.523 333.811 C 869.712 333.945 875.664 333.832 880.955 333.851 L 936.921 333.949 C 935.965 313.129 936.518 298.751 949.477 280.787 C 960.975 264.847 976.568 257.162 995.693 254.313 z"/>
<path transform="translate(0,0)" fill="rgb(111,138,175)" d="M 999.791 291.815 C 1014.94 291.033 1027.91 302.556 1028.91 317.69 C 1029.92 332.823 1018.59 345.961 1003.47 347.19 C 993.491 348.001 983.849 343.373 978.239 335.081 C 972.628 326.789 971.919 316.118 976.383 307.156 C 980.847 298.194 989.792 292.332 999.791 291.815 z"/>
<path transform="translate(0,0)" fill="rgb(252,253,254)" d="M 995.328 296.971 C 1007.75 293.72 1020.46 301.115 1023.77 313.519 C 1027.08 325.922 1019.75 338.669 1007.36 342.039 C 994.887 345.432 982.035 338.036 978.702 325.549 C 975.369 313.062 982.825 300.245 995.328 296.971 z"/>
<path transform="translate(0,0)" fill="rgb(229,232,237)" d="M 1213.16 946.327 C 1195.41 944.73 1151.72 945.968 1132.32 945.97 L 968.616 945.894 C 950.755 945.889 928.065 946.733 910.101 945.464 C 907.953 945.312 906.36 942.623 905.343 940.811 C 905.389 937.101 904.803 938.706 907.182 935.838 C 914.011 932.325 933.274 933.932 941.895 933.916 L 1013.22 933.895 L 1223.96 934.008 C 1221.93 936.368 1215.05 944.705 1213.16 946.327 z"/>
<path transform="translate(0,0)" fill="rgb(229,232,237)" d="M 802.705 744.065 C 830.772 742.47 854.818 763.931 856.412 791.999 C 858.006 820.066 836.545 844.112 808.477 845.706 C 780.41 847.299 756.365 825.839 754.771 797.771 C 753.177 769.704 774.637 745.659 802.705 744.065 z"/>
<path transform="translate(0,0)" fill="rgb(229,232,237)" d="M 798.618 909.035 C 826.535 904.715 852.628 923.96 856.747 951.907 C 860.867 979.854 841.436 1005.81 813.46 1009.73 C 785.766 1013.61 760.13 994.414 756.053 966.749 C 751.975 939.084 770.983 913.311 798.618 909.035 z"/>
<path transform="translate(0,0)" fill="rgb(229,232,237)" d="M 799.347 579.198 C 827.089 576.437 851.879 596.536 854.914 624.25 C 857.948 651.964 838.095 676.951 810.413 680.259 C 782.341 683.614 756.925 663.42 753.848 635.316 C 750.771 607.213 771.214 581.997 799.347 579.198 z"/>
<path transform="translate(0,0)" fill="rgb(229,232,237)" d="M 906.708 603.133 C 922.328 601.969 946.003 602.569 961.961 602.571 L 1059.57 602.626 L 1179.16 602.696 C 1194.06 602.697 1214.11 601.949 1229.01 603.448 C 1231.52 603.701 1232.57 605.724 1233.6 607.482 C 1233.48 611.325 1233.12 611.493 1230.66 614.703 C 1205.84 615.718 1176.46 615.035 1151.34 615.035 L 1007.03 615.003 C 977.507 614.992 947.983 614.898 918.457 615.162 C 912.551 615.215 906.542 616.047 903.601 610.158 C 903.779 606.465 904.303 606.015 906.708 603.133 z"/>
<path transform="translate(0,0)" fill="rgb(229,232,237)" d="M 908.074 769.096 C 1011.99 766.736 1117.09 770.501 1221.13 768.81 C 1226.98 768.714 1233.54 767.876 1236.31 773.741 C 1235.94 777.512 1235.38 777.962 1232.82 780.835 C 1126.9 782.145 1020.6 780.203 914.64 781.034 C 909.653 781.073 906.081 779.963 904.429 775.143 C 905.1 771.73 905.445 771.628 908.074 769.096 z"/>
<path transform="translate(0,0)" fill="rgb(229,232,237)" d="M 908.803 644.457 C 949.699 643.014 997.825 644.088 1039.06 644.165 L 1090.08 644.214 C 1100.53 644.122 1127.12 642.341 1134.98 646.911 C 1137.19 649.879 1136.71 648.273 1136.62 651.845 C 1133.89 655.865 1135.37 654.606 1131.1 656.709 L 985.315 656.819 C 961.209 656.862 936.674 657.046 912.548 656.876 C 909.482 656.855 907.73 656.421 905.357 654.588 C 902.569 649.318 903.931 646.995 908.803 644.457 z"/>
<path transform="translate(0,0)" fill="rgb(229,232,237)" d="M 908.898 810.366 C 923.084 809.913 937.631 810 951.901 810.119 C 1013.34 810.631 1075.05 808.959 1136.39 810.958 C 1138.36 811.023 1139.3 813.687 1139.91 815.064 C 1139.61 818.758 1139.09 819.214 1136.72 822.124 L 974.662 822.229 C 964.336 822.233 913.791 822.87 907.739 821.238 C 904.856 818.578 905.698 819.934 904.849 815.966 C 906.156 811.885 905.234 813.389 908.898 810.366 z"/>
<path transform="translate(0,0)" fill="rgb(229,232,237)" d="M 908.242 975.255 C 929.683 974.196 1134.09 973.883 1138.18 975.865 C 1140.03 976.766 1140.23 977.812 1140.98 979.581 C 1140.86 983.337 1140.6 983.732 1138.32 986.742 C 1124.93 987.492 1107.09 986.945 1093.31 986.95 L 1009.23 986.977 L 947.321 986.985 C 935.799 986.986 920.524 987.473 909.496 986.283 C 906.153 984.128 907.312 985.542 905.796 981.969 C 906.009 978.375 906.11 978.278 908.242 975.255 z"/>
<path transform="translate(0,0)" fill="rgb(194,235,214)" d="M 423.184 1051.67 C 413.844 1004.89 411.535 962.736 427.534 916.828 C 430.848 907.319 442.565 875.839 453.638 872.08 C 459.682 870.028 471.939 886.415 475.717 891.666 C 499.405 924.59 511.779 962.423 515.785 1002.54 C 520.978 1006.56 523.237 1007.41 529.338 1010.07 C 548.454 992.442 569.427 978.815 594.416 971.016 C 601.476 968.813 613.046 964.257 619.166 969.991 C 624.633 983.942 614.415 1021.85 607.623 1036.62 C 585.699 1084.29 554.865 1111.41 508.869 1133.56 C 504.374 1135.43 501.517 1135.29 496.735 1134.31 C 491.759 1134.49 481.819 1134.62 477.101 1135.18 L 472.2 1134.7 L 470.621 1134.46 C 468.563 1134.9 466.975 1134.74 464.887 1134.67 C 452.522 1134.76 443.016 1134.75 430.752 1133.72 C 426.093 1135.74 420.524 1134.75 415.502 1134.08 C 392.856 1127.16 375.945 1120.2 356.285 1106.32 C 328.325 1086.82 306.2 1060.08 292.282 1028.96 C 288.863 1021.37 281.65 1008.18 286.945 1000.71 C 290.846 998.366 293.598 998.296 297.941 998.024 C 347.781 994.896 389.059 1018 423.184 1051.67 z"/>
<path transform="translate(0,0)" fill="rgb(194,235,214)" d="M 477.69 1119.89 C 484.623 1071.28 510.778 1027.49 550.287 998.345 C 568.585 984.842 593.151 972.593 616.131 971.572 C 619.209 1009.68 600.273 1050.03 575.993 1078.69 C 560.636 1097.04 541.732 1112.1 520.415 1122.97 C 514.174 1126.17 501.803 1131.33 496.735 1134.31 C 491.759 1134.49 481.819 1134.62 477.101 1135.18 L 477.69 1119.89 z"/>
<path transform="translate(0,0)" fill="rgb(194,235,214)" d="M 288.206 1003.43 C 328.095 997.686 366.036 1010.96 397.842 1034.65 C 407.708 1042 419.237 1052 425.834 1062.44 C 427.582 1065.21 430.351 1076.21 432.151 1080.47 C 439.39 1097.63 452.29 1120.97 464.887 1134.67 C 452.522 1134.76 443.016 1134.75 430.752 1133.72 C 363.09 1116.12 305.825 1074.36 288.206 1003.43 z"/>
<path transform="translate(0,0)" fill="rgb(107,210,172)" d="M 423.184 1051.67 C 413.844 1004.89 411.535 962.736 427.534 916.828 C 430.848 907.319 442.565 875.839 453.638 872.08 C 459.682 870.028 471.939 886.415 475.717 891.666 C 499.405 924.59 511.779 962.423 515.785 1002.54 C 520.978 1006.56 523.237 1007.41 529.338 1010.07 C 548.454 992.442 569.427 978.815 594.416 971.016 C 601.476 968.813 613.046 964.257 619.166 969.991 C 624.633 983.942 614.415 1021.85 607.623 1036.62 C 585.699 1084.29 554.865 1111.41 508.869 1133.56 C 504.374 1135.43 501.517 1135.29 496.735 1134.31 C 501.803 1131.33 514.174 1126.17 520.415 1122.97 C 541.732 1112.1 560.636 1097.04 575.993 1078.69 C 600.273 1050.03 619.209 1009.68 616.131 971.572 C 593.151 972.593 568.585 984.842 550.287 998.345 C 510.778 1027.49 484.623 1071.28 477.69 1119.89 L 477.101 1135.18 L 472.2 1134.7 C 472.427 1128.77 472.874 1123.15 473.356 1117.24 C 478.253 1085.3 491.433 1055.21 511.582 1029.95 C 513.172 976.09 496.381 912.191 454.723 875.477 C 428.654 903.925 418.111 961.944 420.005 999.583 C 422.452 1048.23 437.23 1097.99 470.621 1134.46 C 468.563 1134.9 466.975 1134.74 464.887 1134.67 C 452.29 1120.97 439.39 1097.63 432.151 1080.47 C 430.351 1076.21 427.582 1065.21 425.834 1062.44 C 419.237 1052 407.708 1042 397.842 1034.65 C 366.036 1010.96 328.095 997.686 288.206 1003.43 C 305.825 1074.36 363.09 1116.12 430.752 1133.72 C 426.093 1135.74 420.524 1134.75 415.502 1134.08 C 392.856 1127.16 375.945 1120.2 356.285 1106.32 C 328.325 1086.82 306.2 1060.08 292.282 1028.96 C 288.863 1021.37 281.65 1008.18 286.945 1000.71 C 290.846 998.366 293.598 998.296 297.941 998.024 C 347.781 994.896 389.059 1018 423.184 1051.67 z"/>
<path transform="translate(0,0)" fill="rgb(252,253,254)" d="M 515.785 1002.54 C 520.978 1006.56 523.237 1007.41 529.338 1010.07 C 525.026 1014.68 520.743 1019.33 516.488 1024 C 516.335 1016.89 516.021 1009.66 515.785 1002.54 z"/>
<path transform="translate(0,0)" fill="rgb(111,138,175)" d="M 1654.3 261.281 C 1664.22 265.228 1663.55 289.945 1672.46 297.958 C 1680.26 304.97 1698.27 307.344 1705.68 314.368 C 1705.77 314.958 1705.86 315.548 1705.96 316.138 C 1698.77 320.795 1679.68 326.311 1673.5 331.231 C 1664.01 338.789 1662.59 357.88 1657.41 368.862 C 1648.03 366.53 1648.79 343.773 1642.52 335.554 C 1634.95 325.633 1611.59 321.61 1605.86 314.404 L 1606.33 312.774 C 1611.87 309.365 1616.51 308.681 1622.63 306.693 C 1648.82 298.182 1644.79 279.545 1654.3 261.281 z"/>
<path transform="translate(0,0)" fill="rgb(229,232,237)" d="M 1655.63 271.732 C 1659.29 275.526 1662.49 291.172 1664.61 295.519 C 1669.47 305.473 1688.59 311.485 1698.7 314.832 C 1669.19 324.677 1664.06 328.516 1656.35 359.171 C 1652.98 355.416 1649.53 339.947 1647.95 335.915 C 1643.62 324.854 1623.83 318.718 1613.19 314.845 C 1644.68 303.325 1644.26 303.702 1655.63 271.732 z"/>
<path transform="translate(0,0)" fill="rgb(107,210,172)" d="M 427.072 565.167 C 427.973 565.413 429.079 565.714 430.391 566.072 C 435.891 572.643 438.705 594.103 445.267 599.762 C 451.848 605.438 469.101 608.14 475.872 614.48 C 476.004 615.073 476.137 615.666 476.269 616.26 C 470.191 621.692 452.403 625.402 446.36 630.912 C 435.637 640.689 436.201 656.737 430.449 668.937 C 429.569 668.582 428.506 668.152 427.257 667.648 C 421.63 658.913 421.337 643.625 415.268 634.891 C 407.388 623.551 389.304 622.679 381.369 617.108 L 381.062 615.299 C 385.756 609.553 398.992 607.187 406.007 603.873 C 419.92 597.3 421.941 579.14 427.072 565.167 z"/>
<path transform="translate(0,0)" fill="rgb(194,235,214)" d="M 428.787 575.927 C 432.606 581.977 436.334 593.543 439.114 599.675 C 442.142 606.355 461.75 612.74 469.071 615.307 C 439.932 626.512 437.881 628.273 429.286 657.919 C 426.417 655.568 423.756 641.238 421.875 637.151 C 416.098 624.596 400.574 619.56 388.513 615.314 C 416.415 606.947 419.247 602.262 428.787 575.927 z"/>
<path transform="translate(0,0)" fill="rgb(192,191,192)" d="M 1454.97 1318.64 C 1459.49 1317.87 1469.79 1314.02 1474.57 1312.38 C 1493.75 1314.69 1523.59 1313.01 1543.59 1313.01 L 1674.78 1313.12 C 1691.55 1313.09 1709.16 1313.04 1725.99 1313.09 C 1728.44 1313.1 1729.07 1314.05 1730.28 1315.51 L 1730 1317.4 C 1727.2 1319.38 1637.43 1318.58 1625.38 1318.58 L 1454.97 1318.64 z"/>
<path transform="translate(0,0)" fill="rgb(192,191,192)" d="M 406.002 1312.72 C 410.245 1314.17 416.225 1316.17 420.214 1318.2 C 413.839 1319.24 396.566 1318.83 389.529 1318.78 L 333.221 1318.43 C 326.011 1318.4 300.09 1320.66 296.357 1315.89 C 297.906 1314.4 300.452 1313.19 302.612 1313.16 C 336.827 1312.78 371.86 1314.42 406.002 1312.72 z"/>
<path transform="translate(0,0)" fill="rgb(192,191,192)" d="M 226.97 1313.35 C 235.27 1313.22 270.498 1311.42 274.642 1315.07 L 274.747 1318.45 C 266.242 1318.57 231.725 1320.18 227.343 1316.87 L 226.97 1313.35 z"/>
<path transform="translate(0,0)" fill="rgb(192,191,192)" d="M 1751.48 1313.09 C 1758.75 1313.17 1777.87 1311.26 1782.62 1315.01 L 1782.79 1318.52 C 1776.04 1318.73 1759.08 1320.16 1752.83 1317.62 C 1751.81 1317.2 1751.73 1314.56 1751.48 1313.09 z"/>
<path transform="translate(0,0)" fill="rgb(192,191,192)" d="M 1792.64 737.389 C 1799.5 739.991 1807.09 751.063 1811.08 757.306 C 1812.55 759.599 1811.71 760.413 1810.93 763.098 C 1805.2 761.207 1795.88 747.279 1791.88 742.18 C 1790.86 740.876 1792.09 738.938 1792.64 737.389 z"/>
<path transform="translate(0,0)" fill="rgb(192,191,192)" d="M 1820.05 778.285 C 1822.6 779.077 1823.66 778.878 1825.07 781.033 C 1828.38 786.089 1833.26 800.234 1832.14 805.982 C 1830.4 805.846 1828.5 806.034 1827.69 804.15 C 1825.23 798.401 1818.94 784.118 1820.05 778.285 z"/>
<path transform="translate(0,0)" fill="rgb(192,191,192)" d="M 1699.55 705.474 C 1705.02 705.186 1719.63 703.06 1721.78 708.365 L 1720.7 710.409 L 1718.25 711.039 C 1712.79 711.342 1698.7 713.264 1695.32 708.731 C 1696.8 706.172 1696.34 706.973 1699.55 705.474 z"/>
<path transform="translate(0,0)" fill="rgb(192,191,192)" d="M 1833.43 824.434 C 1835.14 825.413 1836.42 825.678 1836.98 827.593 C 1838.69 833.475 1839.58 848.303 1837.62 853.819 C 1835.57 853.37 1833.85 852.956 1833.51 850.629 C 1832.59 844.388 1830.36 829.573 1833.43 824.434 z"/>
<path transform="translate(0,0)" fill="rgb(192,191,192)" d="M 1624.41 799.632 C 1631.61 801.808 1644.07 800.623 1647.51 805.002 L 1646.47 807.917 C 1639.43 808.769 1630.01 809.883 1624.23 805.782 C 1622.84 802.631 1623.19 803.798 1624.41 799.632 z"/>
<path transform="translate(0,0)" fill="rgb(192,191,192)" d="M 1606.94 767.107 C 1610.5 768.017 1609.54 767.226 1611.48 769.743 C 1612.09 774.813 1613.98 788.867 1611.59 792.579 C 1602.42 790.179 1604.95 774.014 1606.94 767.107 z"/>
<path transform="translate(0,0)" fill="rgb(192,191,192)" d="M 1750.61 657.19 C 1752.72 657.712 1752.6 657.728 1754.38 659.012 C 1757.51 665.528 1755.69 678.256 1754.04 685.143 C 1751.57 684.757 1751.72 684.861 1749.91 683.13 C 1749.13 677.241 1749.17 662.663 1750.61 657.19 z"/>
<path transform="translate(0,0)" fill="rgb(192,191,192)" d="M 1751.95 712.615 C 1757.89 712.819 1769.81 718.394 1774.21 722.68 C 1776.33 724.742 1775.71 725.389 1775.75 728.478 C 1771.35 727.849 1757.34 720.479 1753.36 717.519 C 1751.52 716.152 1752.01 714.878 1751.95 712.615 z"/>
<path transform="translate(0,0)" fill="rgb(192,191,192)" d="M 1821.31 913.238 C 1822.52 913.808 1823.54 914.619 1824.65 915.399 C 1826.19 920.912 1818.02 934.591 1815.32 939.713 C 1812.23 938.124 1813.31 939.26 1811.78 936.383 C 1812.77 930.442 1818.49 919.222 1821.31 913.238 z"/>
<path transform="translate(0,0)" fill="rgb(192,191,192)" d="M 1833.07 870.456 C 1834.44 871.559 1835.64 872.062 1835.86 873.541 C 1836.87 880.083 1833.54 893.42 1830.26 898.672 C 1828.9 897.498 1827.08 896.387 1827.18 894.443 C 1827.51 888.516 1829.57 874.893 1833.07 870.456 z"/>
<path transform="translate(0,0)" fill="rgb(192,191,192)" d="M 1736.76 616.459 C 1741.84 617.418 1746.58 627.87 1748.41 632.331 C 1750.32 636.953 1750.48 637.503 1748.68 641.644 C 1742.76 638.88 1739.35 626.826 1735.85 620.883 C 1734.92 619.303 1735.8 618.554 1736.76 616.459 z"/>
<path transform="translate(0,0)" fill="rgb(192,191,192)" d="M 1655.58 585.027 C 1662.65 584.928 1675.57 583.858 1680.57 588.596 L 1680.66 591.736 C 1675.24 592.339 1662.98 591.6 1657.53 590.235 C 1655.13 587.866 1655.8 589.066 1655.58 585.027 z"/>
<path transform="translate(0,0)" fill="rgb(192,191,192)" d="M 1708.41 764.619 C 1711.26 765.442 1710.01 764.73 1712.16 767.08 C 1711.72 772.224 1700.9 780.48 1696.65 784.227 C 1695.31 784.128 1694.94 783.778 1693.63 783.213 L 1693.04 781.096 C 1695.21 776.859 1704.64 768.375 1708.41 764.619 z"/>
<path transform="translate(0,0)" fill="rgb(192,191,192)" d="M 1699.94 591.684 C 1706.28 592.169 1718.37 597.239 1722.57 602.349 C 1723.74 603.775 1722.7 605.454 1722.19 607.02 C 1717.55 605.554 1705.28 599.364 1701.14 596.418 C 1699.53 595.273 1699.97 593.675 1699.94 591.684 z"/>
<path transform="translate(0,0)" fill="rgb(192,191,192)" d="M 1735.49 728.371 C 1737.51 729.196 1736.79 728.817 1738.42 730.409 C 1738.65 737.072 1729.76 748.397 1725.4 753.336 L 1723.06 751.411 C 1722.46 746.64 1732.33 733.521 1735.49 728.371 z"/>
<path transform="translate(0,0)" fill="rgb(192,191,192)" d="M 1800.68 954.322 C 1802.71 954.735 1802.62 954.884 1804.24 956.248 C 1804.79 961.646 1795.51 972.433 1791.93 977.228 C 1788.74 975.821 1789.75 976.944 1788.52 974.025 C 1790.05 969.314 1797.49 959.089 1800.68 954.322 z"/>
<path transform="translate(0,0)" fill="rgb(192,191,192)" d="M 1670.05 711.804 C 1670.69 711.831 1672.63 712.311 1673.37 712.472 L 1674.16 714.167 C 1671.39 718.61 1659.69 722.505 1654.29 724.72 C 1652.04 724.901 1653.02 725.184 1651.23 723.997 L 1651.08 722.185 C 1653.66 717.767 1664.98 713.85 1670.05 711.804 z"/>
<path transform="translate(0,0)" fill="rgb(192,191,192)" d="M 1631.75 732.691 C 1633.78 733.004 1632.99 732.768 1634.76 734.163 L 1634.92 736.322 C 1632.78 740.123 1624.14 748.963 1620.81 752.678 C 1618.9 752.251 1618.93 752.039 1617.41 750.731 C 1617.75 744.526 1627.05 736.961 1631.75 732.691 z"/>
<path transform="translate(0,0)" fill="rgb(192,191,192)" d="M 1560.63 611.87 C 1561.04 611.776 1563.32 611.85 1563.83 611.856 L 1564.57 613.117 C 1563.16 617.918 1553.23 623.282 1548.57 626.271 L 1547.22 626.81 C 1544.21 625.972 1545.31 626.826 1543.7 624.317 C 1545.05 619.621 1556.02 614.458 1560.63 611.87 z"/>
<path transform="translate(0,0)" fill="rgb(192,191,192)" d="M 1527.01 634.733 C 1528.29 635.269 1528.45 635.673 1529.55 636.688 C 1528.63 642.415 1519.16 649.139 1514.33 653.295 C 1512.16 652.442 1512.97 652.904 1511.35 650.933 C 1512.52 645.132 1522.02 638.78 1527.01 634.733 z"/>
<path transform="translate(0,0)" fill="rgb(192,191,192)" d="M 1495.6 664.56 C 1497.64 664.551 1497.54 664.697 1499.29 665.818 C 1499.7 670.508 1490.73 679.179 1486.98 683.967 C 1484.68 683.441 1485.54 683.736 1483.54 682.194 C 1483.51 676.666 1491.57 669.151 1495.6 664.56 z"/>
<path transform="translate(0,0)" fill="rgb(192,191,192)" d="M 1774.26 989.732 C 1776.49 990.226 1775.64 989.898 1777.5 991.505 C 1776.85 996.986 1767.46 1004.28 1762.98 1008.45 C 1761.19 1007.75 1761.74 1007.9 1760.26 1006.36 C 1760.76 1001.23 1770.09 993.69 1774.26 989.732 z"/>
<path transform="translate(0,0)" fill="rgb(192,191,192)" d="M 1628.23 587.275 C 1632.01 586.56 1634 585.754 1636.95 588.416 L 1636.25 590.648 C 1633.66 593.125 1631.39 592.953 1627.74 593.415 C 1623.33 594.517 1621.08 595.76 1617.62 592.523 L 1618.46 590.362 C 1621.4 587.746 1624.21 587.852 1628.23 587.275 z"/>
<path transform="translate(0,0)" fill="rgb(192,191,192)" d="M 1597.41 594.753 C 1599.99 595.448 1598.75 594.887 1600.95 597.096 L 1600.32 599.142 C 1596.35 602.191 1590.06 604.289 1585.25 606.164 L 1581.89 606.012 L 1580.87 604.694 C 1583.16 599.809 1592.1 596.966 1597.41 594.753 z"/>
<path transform="translate(0,0)" fill="rgb(192,191,192)" d="M 1676.07 789.735 C 1678.71 790.007 1679.32 789.857 1681.26 791.684 L 1680.92 793.291 C 1677.71 796.66 1673.5 798.373 1669.31 800.466 L 1665.15 801.558 L 1663.91 799.927 L 1664.41 797.919 C 1668.38 793.403 1670.68 792.528 1676.07 789.735 z"/>
<path transform="translate(0,0)" fill="rgb(192,191,192)" d="M 1746.4 700.423 C 1748.59 701.594 1748.43 701.512 1749.81 703.593 C 1750.48 708.894 1748.94 712.686 1745.98 717.099 C 1742.71 715.013 1743.01 715.858 1741.45 712.862 C 1741.33 708.66 1744.3 704.364 1746.4 700.423 z"/>
</svg>