<svg version="1.1" xmlns="http://www.w3.org/2000/svg" style="display: block;" viewBox="0 0 2048 1536" width="1448" height="1086" preserveAspectRatio="none">
<path transform="translate(0,0)" fill="rgb(254,253,253)" d="M 0 0 L 2048 0 L 2048 1536 L 0 1536 L 0 0 z"/>
<path transform="translate(0,0)" fill="rgb(171,177,192)" d="M 989.955 1027.49 C 1010.47 1021.7 1025.44 1020.5 1046.46 1022.75 C 1085.52 1030.63 1115.86 1047.21 1138.48 1081.13 C 1158.9 1111.93 1166.03 1149.65 1158.27 1185.77 C 1152.62 1213.25 1144.51 1226.37 1128 1247.84 C 1150.85 1247.36 1175.72 1248.16 1198.88 1248.18 L 1367.02 1248.19 L 1543.23 1248 C 1568.12 1247.99 1593.15 1248.12 1618.04 1247.71 C 1620.67 1247.67 1625.59 1248.54 1627.84 1249.98 C 1619.47 1251.1 1588.49 1250.45 1578.87 1250.46 L 1474.55 1250.36 L 1124.49 1251.09 C 1097.56 1278.18 1066.24 1292.81 1027.83 1292.71 C 986.753 1292.62 958.798 1278.62 929.719 1251.06 C 808.074 1250.06 686.425 1249.87 564.778 1250.5 C 509.707 1251.07 454.633 1251.12 399.561 1250.66 C 390.948 1250.56 351.852 1251.98 348.023 1248.7 C 353.375 1247.72 369.239 1248.01 375.705 1247.99 L 431.865 1247.86 C 422.813 1242.56 414.557 1236.55 412.55 1225.37 C 405.645 1186.89 399.72 1148.01 394.199 1109.3 C 393.815 1106.61 394.296 1098.6 394.962 1095.95 C 399.081 1079.54 422.575 1085.68 435.229 1083.61 C 439.462 1083.74 442.028 1084.04 446.198 1083.09 C 455.878 1084.21 468.671 1084.28 478.568 1084.15 L 481.668 1082.88 L 485.196 1084.87 L 487.654 1083.9 C 492.743 1084.4 502.076 1084.58 506.934 1083.31 C 509.278 1083.62 511.573 1084.1 513.892 1083.78 C 527.38 1085.08 541.484 1082.61 554.916 1084.73 C 560.089 1085.55 563.462 1087.72 566.384 1092.09 C 572.033 1100.56 568.965 1109.63 567.647 1118.82 C 561.816 1152.58 556.343 1186.47 550.388 1220.22 C 547.659 1235.69 542.073 1239.73 529.527 1247.94 C 539.65 1247.39 554.03 1247.97 564.612 1247.97 L 641.719 1248.04 L 926.905 1247.85 C 915.744 1234.32 907.156 1219.85 901.609 1203.14 C 889.351 1167.26 892.143 1127.95 909.349 1094.16 C 926.812 1059.97 954.064 1039.1 989.955 1027.49 z"/>
<path transform="translate(0,0)" fill="rgb(254,253,253)" d="M 1020.56 1026.51 C 1092.76 1022.57 1154.52 1077.81 1158.62 1149.99 C 1162.73 1222.18 1107.63 1284.06 1035.46 1288.34 C 963.045 1292.62 900.911 1237.3 896.793 1164.88 C 892.674 1092.46 948.135 1030.46 1020.56 1026.51 z"/>
<path transform="translate(0,0)" fill="rgb(117,146,186)" d="M 972.51 1130.96 C 985.914 1130.06 1077.52 1128.75 1082.63 1132.8 C 1089.83 1138.5 1104.01 1179.11 1104.87 1189.72 C 1105.43 1196.54 1106.82 1212.42 1101.57 1217.88 C 1096.49 1223.18 1086.95 1221.67 1080.25 1221.46 C 1062.3 1221.58 964.79 1224.25 954.628 1218.85 C 948.568 1211.99 948.313 1190.17 950.554 1182.43 C 953.66 1171.69 965.693 1138.17 972.51 1130.96 z"/>
<path transform="translate(0,0)" fill="rgb(254,253,253)" d="M 973.557 1134.89 C 1009.34 1134.69 1045.12 1134.71 1080.91 1134.95 C 1087.51 1150.06 1093.89 1165.28 1100.03 1180.59 L 1064.99 1180.56 C 1049.07 1180.48 1056.5 1187.49 1047.64 1192.86 C 1042.36 1196.07 1013.89 1195.53 1007.21 1193.85 C 1004.07 1193.05 999.803 1184.4 997.986 1181.16 C 987.626 1180.08 965.834 1180.56 954.63 1180.47 C 959.943 1166.38 967.351 1148.63 973.557 1134.89 z"/>
<path transform="translate(0,0)" fill="rgb(219,219,223)" d="M 960.255 1184.52 C 972.291 1184.3 983.417 1184.02 995.438 1184.73 C 1002.71 1197.65 1004.28 1200.04 1019.65 1198.91 C 1041.2 1197.34 1046.77 1205.66 1058.3 1184.7 L 1101.03 1184.63 C 1101.17 1193.72 1100.92 1203.14 1100.8 1212.26 C 1098.19 1215.3 1095.97 1217.72 1091.65 1217.73 C 1051.2 1217.91 1010.79 1217.66 970.326 1217.72 C 955.147 1217.74 953.232 1214.26 953.197 1199.2 C 953.187 1194.87 953.565 1190.38 953.807 1186.04 C 956.336 1183.83 955.849 1184.58 960.255 1184.52 z"/>
<path transform="translate(0,0)" fill="rgb(170,210,243)" d="M 1024.82 1069.22 C 1026.89 1069.62 1026.61 1069.62 1028.58 1070.47 C 1031.22 1075.95 1030.74 1098.25 1029.15 1104.47 C 1027.02 1104.09 1027.1 1104 1025.23 1102.85 C 1022.68 1096.65 1024.07 1076.57 1024.82 1069.22 z"/>
<path transform="translate(0,0)" fill="rgb(170,210,243)" d="M 984.482 1083.32 C 991.2 1083.9 1003.75 1103.79 1002.29 1110.49 C 1000.75 1110.13 1000.32 1109.79 998.869 1109.11 C 994.134 1102.69 984.01 1090.67 984.482 1083.32 z"/>
<path transform="translate(0,0)" fill="rgb(170,210,243)" d="M 1066.37 1083.55 C 1068.67 1084.44 1067.72 1083.71 1069.11 1086.01 C 1068.65 1091.88 1057.27 1105.82 1053.3 1111.02 L 1050.99 1108.41 C 1050.57 1103.39 1063 1088.14 1066.37 1083.55 z"/>
<path transform="translate(0,0)" fill="rgb(254,253,253)" d="M 409.609 1087.29 C 435.622 1086.4 461.998 1087.71 488.072 1087.69 C 508.413 1087.67 529.195 1086.16 549.476 1087.09 C 552.675 1087.24 555.564 1087.71 558.291 1089.49 C 562.296 1092.1 564.814 1095.63 565.704 1100.35 C 567.61 1110.47 550.913 1206.6 546.807 1221.58 C 545.302 1227.07 543.125 1231.1 539.827 1235.7 C 536.211 1239.53 532.155 1242.33 527.259 1244.29 C 512.601 1250.15 446.898 1250.15 432.441 1243.84 C 423.824 1240.07 418.244 1233 414.907 1224.38 C 410.428 1212.8 409.329 1192.19 407.346 1179.5 C 403.714 1156.26 398.759 1132.69 396.523 1109.29 C 396.194 1105.85 395.398 1100.74 396.991 1097.53 C 399.715 1092.05 404.004 1089.29 409.609 1087.29 z"/>
<path transform="translate(0,0)" fill="rgb(203,238,222)" d="M 440.057 1009.35 C 428.086 961.354 429.228 909.563 450.766 864.288 C 453.787 857.939 458.666 848.307 465.085 844.935 C 468.886 844.894 471.357 846.366 473.941 849.207 C 509.508 888.338 520.782 934.741 523.016 985.689 C 546.33 960.056 572.18 939.02 609.535 934.646 C 610.937 934.482 612.142 935.052 613.355 935.676 C 617.628 942.701 613.46 964.871 611.54 972.722 C 598.711 1025.18 562.343 1062.79 513.892 1083.78 C 511.573 1084.1 509.278 1083.62 506.934 1083.31 C 502.076 1084.58 492.743 1084.4 487.654 1083.9 L 485.196 1084.87 L 481.668 1082.88 L 478.568 1084.15 C 468.671 1084.28 455.878 1084.21 446.198 1083.09 C 442.028 1084.04 439.462 1083.74 435.229 1083.61 C 389.152 1069.12 355.271 1043.76 332.193 1000.84 C 329.286 995.435 313.983 965.586 323.672 963.539 C 368.31 954.109 410.427 979.528 440.057 1009.35 z"/>
<path transform="translate(0,0)" fill="rgb(203,238,222)" d="M 487.654 1083.9 C 491.156 1036.26 509.689 1000.9 544.754 968.803 C 554.383 959.988 602.89 928.848 611.666 939.974 C 614.184 957.922 605.463 985.31 597.491 1001.53 C 578.475 1040.23 546.713 1067.38 506.934 1083.31 C 502.076 1084.58 492.743 1084.4 487.654 1083.9 z"/>
<path transform="translate(0,0)" fill="rgb(203,238,222)" d="M 322.358 965.847 C 358.453 961.491 389.877 972.152 418.262 994.143 C 423.963 998.561 440.318 1013.23 442.193 1018.59 C 450.302 1041.76 460.63 1065.88 478.568 1084.15 C 468.671 1084.28 455.878 1084.21 446.198 1083.09 C 384.496 1065.98 339.432 1029.59 322.358 965.847 z"/>
<path transform="translate(0,0)" fill="rgb(106,213,175)" d="M 440.057 1009.35 C 428.086 961.354 429.228 909.563 450.766 864.288 C 453.787 857.939 458.666 848.307 465.085 844.935 C 468.886 844.894 471.357 846.366 473.941 849.207 C 509.508 888.338 520.782 934.741 523.016 985.689 C 546.33 960.056 572.18 939.02 609.535 934.646 C 610.937 934.482 612.142 935.052 613.355 935.676 C 617.628 942.701 613.46 964.871 611.54 972.722 C 598.711 1025.18 562.343 1062.79 513.892 1083.78 C 511.573 1084.1 509.278 1083.62 506.934 1083.31 C 546.713 1067.38 578.475 1040.23 597.491 1001.53 C 605.463 985.31 614.184 957.922 611.666 939.974 C 602.89 928.848 554.383 959.988 544.754 968.803 C 509.689 1000.9 491.156 1036.26 487.654 1083.9 L 485.196 1084.87 C 482.668 1051.63 500.071 1017.31 518.77 990.948 C 520.426 939.595 504.389 883.14 466.223 847.064 C 421.7 902.644 428.394 1007.45 467.725 1064.5 C 472.046 1070.77 476.849 1076.99 481.668 1082.88 L 478.568 1084.15 C 460.63 1065.88 450.302 1041.76 442.193 1018.59 C 440.318 1013.23 423.963 998.561 418.262 994.143 C 389.877 972.152 358.453 961.491 322.358 965.847 C 339.432 1029.59 384.496 1065.98 446.198 1083.09 C 442.028 1084.04 439.462 1083.74 435.229 1083.61 C 389.152 1069.12 355.271 1043.76 332.193 1000.84 C 329.286 995.435 313.983 965.586 323.672 963.539 C 368.31 954.109 410.427 979.528 440.057 1009.35 z"/>
<path transform="translate(0,0)" fill="rgb(219,219,223)" d="M 675.788 391.102 C 715.069 389.594 763.405 390.894 803.507 390.898 L 1049.52 390.916 L 1269.43 390.926 C 1291.14 390.923 1381.78 388.273 1395.6 393.151 C 1403.72 396.017 1409.98 401.537 1413.62 409.375 C 1416.19 414.899 1416.84 419.767 1417.04 425.795 C 1418.6 472.054 1417.17 518.851 1417.16 565.168 L 1417.14 837.455 L 1417.11 1091.1 C 1417.1 1132.63 1417.17 1174.17 1417.1 1215.71 C 1417.1 1220.25 1414.45 1233.22 1410.24 1235.12 C 1409.11 1231.76 1413.35 1228.62 1414.24 1223.01 C 1415.79 1213.14 1414.98 1203.39 1414.95 1193.41 L 1414.99 1147.88 L 1415.02 970.678 L 1415.01 608.045 L 1415.04 488.872 C 1415.04 467.347 1415.24 445.77 1414.83 424.255 C 1414.52 408.013 1402.06 395.769 1386.51 393.152 L 919.967 393.094 L 759.228 393.135 C 733.139 393.148 706.825 392.798 680.746 393.189 C 676.635 393.338 673.044 393.671 669.249 395.413 C 651.144 403.722 648.304 416.926 648.372 435.071 C 648.565 486.709 648.456 538.262 648.48 589.855 L 648.427 901.471 L 648.341 1110.7 C 648.363 1145.35 648.068 1180.02 648.586 1214.66 C 648.687 1221.42 652.778 1228.45 650.875 1232.39 C 643.86 1225.67 646.156 1164.23 646.145 1152.61 L 646.163 996.82 L 646.167 616.588 C 646.171 555.26 645.986 493.93 646.126 432.605 C 646.179 409.678 652.65 397.33 675.788 391.102 z"/>
<path transform="translate(0,0)" fill="rgb(219,219,223)" d="M 757.066 466.886 C 777.521 466.327 794.585 482.398 795.251 502.85 C 795.916 523.302 779.934 540.449 759.486 541.221 C 738.886 541.999 721.584 525.873 720.914 505.269 C 720.243 484.666 736.46 467.449 757.066 466.886 z"/>
<path transform="translate(0,0)" fill="rgb(254,253,253)" d="M 750.642 473.733 C 767.415 469.613 784.345 479.893 788.427 496.675 C 792.508 513.457 782.19 530.364 765.399 534.408 C 748.661 538.438 731.82 528.16 727.751 511.432 C 723.683 494.704 733.923 477.839 750.642 473.733 z"/>
<path transform="translate(0,0)" fill="rgb(219,219,223)" d="M 750.228 797.889 C 770.401 793.485 790.295 806.372 794.525 826.582 C 798.754 846.792 785.697 866.574 765.451 870.629 C 745.451 874.635 725.96 861.77 721.782 841.805 C 717.603 821.84 730.3 802.239 750.228 797.889 z"/>
<path transform="translate(0,0)" fill="rgb(254,253,253)" d="M 750.357 803.879 C 766.937 799.612 783.855 809.518 788.248 826.064 C 792.642 842.611 782.866 859.604 766.353 864.123 C 749.661 868.692 732.443 858.787 728.002 842.06 C 723.561 825.334 733.598 808.193 750.357 803.879 z"/>
<path transform="translate(0,0)" fill="rgb(219,219,223)" d="M 749.603 632.82 C 769.62 628.123 789.647 640.575 794.29 660.605 C 798.933 680.636 786.427 700.629 766.385 705.218 C 746.418 709.79 726.517 697.342 721.892 677.387 C 717.266 657.433 729.661 637.499 749.603 632.82 z"/>
<path transform="translate(0,0)" fill="rgb(254,253,253)" d="M 755.442 637.877 C 772.458 636.419 787.479 648.924 789.132 665.922 C 790.785 682.92 778.454 698.084 761.476 699.932 C 750.318 701.147 739.369 696.27 732.808 687.164 C 726.247 678.058 725.087 666.128 729.771 655.929 C 734.454 645.729 744.259 638.835 755.442 637.877 z"/>
<path transform="translate(0,0)" fill="rgb(219,219,223)" d="M 756.09 962.77 C 776.513 961.604 794.026 977.19 795.237 997.611 C 796.448 1018.03 780.9 1035.58 760.482 1036.83 C 740.001 1038.09 722.388 1022.49 721.173 1002 C 719.958 981.519 735.603 963.94 756.09 962.77 z"/>
<path transform="translate(0,0)" fill="rgb(254,253,253)" d="M 755.836 968.696 C 772.956 967.435 787.862 980.279 789.146 997.397 C 790.429 1014.52 777.603 1029.44 760.487 1030.74 C 743.339 1032.05 728.384 1019.2 727.099 1002.05 C 725.814 984.899 738.685 969.96 755.836 968.696 z"/>
<path transform="translate(0,0)" fill="rgb(219,219,223)" d="M 834.026 480.263 C 860.922 479.562 890.907 480.16 918.019 480.149 L 1082.01 480.114 L 1151.65 480.039 C 1160.03 480.028 1183.54 477.769 1187.54 484.218 C 1187.34 487.779 1187.1 487.905 1184.89 490.891 C 1158.28 491.809 1126.75 491.007 1099.84 491.008 L 931.399 490.948 L 868.596 490.994 C 860.567 491.031 834.737 493.582 830.852 486.683 C 831.16 483.244 831.647 483.031 834.026 480.263 z"/>
<path transform="translate(0,0)" fill="rgb(219,219,223)" d="M 834.064 976.278 C 946.242 974.142 1059.28 977.473 1171.55 975.935 C 1177.25 975.857 1185.06 975.035 1187.87 980.781 C 1187.12 984.175 1187.22 984.009 1184.76 986.463 C 1161.37 987.96 1125.98 986.918 1101.86 986.911 L 947.623 986.857 L 869.275 986.93 C 861.333 986.933 834.855 989.302 830.953 982.679 C 831.194 979.252 831.688 979.04 834.064 976.278 z"/>
<path transform="translate(0,0)" fill="rgb(219,219,223)" d="M 835.029 645.417 C 865.188 644.968 1176.66 643.682 1183.87 646.362 C 1186.23 647.241 1186.76 647.99 1187.78 650.22 C 1186.96 653.511 1186.91 653.599 1184.29 655.882 C 1119.16 657.088 1050.55 655.967 985.11 655.955 L 883.051 655.944 C 871.792 655.946 845.623 657.224 833.881 654.795 C 831.984 654.403 831.034 652.039 830.553 650.17 C 832.389 646.508 831.435 647.774 835.029 645.417 z"/>
<path transform="translate(0,0)" fill="rgb(219,219,223)" d="M 832.45 811.05 C 834.017 810.972 835.585 810.934 837.153 810.935 L 1071.74 810.81 L 1146.63 810.836 C 1158.14 810.846 1170.07 810.729 1181.59 810.962 C 1184.81 811.027 1185.01 811.656 1186.95 813.579 C 1187.77 816.877 1187.23 817.44 1185.89 820.794 C 1146.54 822.41 1097.18 821.117 1057.12 821.103 L 849.778 821.202 C 844.198 821.17 835.109 822.057 831.661 818.566 C 830.829 815.124 831.284 814.585 832.45 811.05 z"/>
<path transform="translate(0,0)" fill="rgb(117,146,186)" d="M 1637.2 303.103 C 1646.48 306.644 1644.22 324.604 1651.55 333.17 C 1657.64 340.276 1677.55 342.772 1680.76 349.454 C 1675.51 352.884 1660.46 357.964 1651.24 363.574 C 1645.96 374.578 1644.08 382.534 1640.41 394.097 L 1637.53 393.424 C 1632.97 388.038 1631.23 369.459 1625.42 363.207 C 1619.82 357.17 1601.1 354.09 1597.04 347.49 C 1604.43 342.701 1614.99 340.328 1623.97 334.542 L 1625.05 333.834 C 1631.09 323.198 1633.42 314.568 1637.2 303.103 z"/>
<path transform="translate(0,0)" fill="rgb(219,219,223)" d="M 1638.71 310.799 C 1641.92 314.31 1644.43 328.326 1646.34 332.442 C 1650.13 340.628 1666.41 345.582 1674.51 348.217 C 1648.32 357.762 1646.68 360.381 1639.23 386.097 C 1636.4 382.297 1633.34 368.714 1628.92 360.975 C 1619.27 354.385 1614.51 352.135 1603.49 348.23 C 1629.7 338.539 1629.99 337.224 1638.71 310.799 z"/>
<path transform="translate(0,0)" fill="rgb(106,213,175)" d="M 397.962 529.258 C 406.12 532.014 404.551 549.791 411.539 558.16 C 417.362 565.134 435.371 567.459 439.839 573.567 C 437.105 577.434 416.019 581.53 410.233 591.1 C 403.776 601.779 405.325 611.49 400.494 620.757 C 392.539 615.86 395.483 598.666 387.177 589.028 C 379.577 580.209 363.636 579.662 359.694 572.872 C 363.466 567.041 371.838 567.234 378.663 563.923 C 391.963 557.47 393.216 542.398 397.962 529.258 z"/>
<path transform="translate(0,0)" fill="rgb(203,238,222)" d="M 399.476 537.759 C 403.675 544.872 404.946 558.31 412.621 563.84 C 418.182 567.846 427.321 570.556 433.832 572.841 C 407.251 583.071 407.227 585.529 399.447 612.554 C 389.572 586.774 395.122 583.547 365.096 572.959 C 373.346 570.235 381.268 566.603 388.717 562.13 C 392.354 556.362 396.756 544.471 399.476 537.759 z"/>
<path transform="translate(0,0)" fill="rgb(219,219,223)" d="M 832.209 520.179 C 845.273 518.648 885.36 519.551 899.89 519.551 L 1028.68 519.647 C 1035.24 519.7 1041.07 518.56 1045.3 522.863 C 1045.72 526.986 1045.88 525.305 1044.14 529.487 C 1041.98 529.795 1038.1 529.925 1035.89 529.929 C 994.335 530.001 952.66 529.974 911.112 530.011 L 860.727 530.034 C 853.519 530.032 836.359 531.605 831.71 527.204 C 830.743 523.824 830.946 523.636 832.209 520.179 z"/>
<path transform="translate(0,0)" fill="rgb(219,219,223)" d="M 834.065 850.196 C 895.435 848.689 957.565 851.362 1018.99 849.907 C 1026.41 849.731 1041.55 848.207 1045.74 854.694 C 1045.09 858.474 1045.6 857.086 1042.91 860.175 C 978.859 862.408 913.057 858.984 848.826 860.546 C 843.098 860.685 834.523 861.632 831.167 856.786 C 831.698 852.347 831.082 854.075 834.065 850.196 z"/>
<path transform="translate(0,0)" fill="rgb(219,219,223)" d="M 833.111 685.15 C 878.952 684.166 926.884 684.973 972.899 684.92 L 1017.93 684.832 C 1024.41 684.821 1041.67 683.233 1045.48 687.881 C 1045.42 692.377 1045.81 690.586 1043.32 694.866 C 979.904 697.515 913.762 693.157 850.071 695.216 C 844.287 695.403 835.378 696.284 831.561 692.091 C 831.005 688.678 831.405 688.394 833.111 685.15 z"/>
<path transform="translate(0,0)" fill="rgb(219,219,223)" d="M 989.955 1027.49 C 980.515 1021.59 838.414 1030.56 831.45 1023.38 C 830.9 1019.54 830.553 1020.84 832.086 1017.7 C 837.876 1013.8 859.138 1015.5 867.06 1015.52 L 928.492 1015.44 L 1005.01 1015.63 C 1015.5 1015.73 1033.5 1015.07 1043.29 1016.41 C 1046.11 1018.79 1045.27 1018.42 1046.46 1022.75 C 1025.44 1020.5 1010.47 1021.7 989.955 1027.49 z"/>
<path transform="translate(0,0)" fill="rgb(219,219,223)" d="M 1742.07 760.798 C 1747.45 763.295 1751.92 779.232 1751.17 784.525 C 1744.54 782.737 1740.22 766.568 1742.07 760.798 z"/>
<path transform="translate(0,0)" fill="rgb(219,219,223)" d="M 1719.12 727.435 C 1724.76 729.31 1735.57 742.494 1735.26 748.742 C 1729.34 747.009 1719.11 733.826 1719.12 727.435 z"/>
<path transform="translate(0,0)" fill="rgb(171,177,192)" d="M 1651.62 1248.4 C 1656.97 1247.81 1690.39 1247.16 1693.2 1249.13 L 1692.98 1250.53 C 1680.16 1250.47 1666.76 1251.22 1654.02 1250.56 C 1652.71 1250.49 1652.91 1250.02 1651.62 1248.4 z"/>
<path transform="translate(0,0)" fill="rgb(219,219,223)" d="M 1750.75 799.27 C 1752.35 799.876 1754.1 800.157 1754.5 802.077 C 1755.67 807.727 1756.31 819.435 1753.78 824.263 C 1752.02 823.285 1752.58 823.581 1751.21 821.931 C 1750.29 816.081 1749.5 805.022 1750.75 799.27 z"/>
<path transform="translate(0,0)" fill="rgb(219,219,223)" d="M 1687.74 706.063 C 1692.03 707.078 1702.35 711.944 1705.01 715.81 C 1706.3 717.672 1705.8 717.42 1705.42 720.151 C 1701.41 718.687 1689.13 712.892 1686.87 709.012 L 1687.74 706.063 z"/>
<path transform="translate(0,0)" fill="rgb(219,219,223)" d="M 1674.82 626.783 C 1680.77 629.272 1686.35 641.703 1685.68 647.673 C 1680.09 646.172 1673.35 632.536 1674.82 626.783 z"/>
<path transform="translate(0,0)" fill="rgb(219,219,223)" d="M 1750.04 837.369 C 1756.42 841.106 1751.01 855.362 1748.34 860.589 L 1745.74 858.667 C 1744.76 853.995 1748.65 842.324 1750.04 837.369 z"/>
<path transform="translate(0,0)" fill="rgb(171,177,192)" d="M 282.054 1248.49 C 288.785 1247.81 320.778 1246.78 325.241 1249.74 C 324.606 1249.85 323.97 1249.96 323.335 1250.07 C 315.239 1249.75 287.243 1252.73 282.054 1248.49 z"/>
<path transform="translate(0,0)" fill="rgb(219,219,223)" d="M 1570.1 751.158 L 1572.23 751.712 C 1575.17 754.476 1574.45 765.603 1575.22 771.927 C 1574.19 771.84 1572.74 771.535 1571.73 771.356 C 1567.24 765.967 1568.49 757.547 1570.1 751.158 z"/>
<path transform="translate(0,0)" fill="rgb(219,219,223)" d="M 1582.98 778.848 C 1587.26 779.204 1599.7 779.281 1602.56 781.691 L 1602.76 784.722 C 1595.44 785.633 1584.29 787.819 1582.98 778.848 z"/>
<path transform="translate(0,0)" fill="rgb(219,219,223)" d="M 1685.95 660.501 C 1692.87 662.856 1689.41 678.102 1688.6 683.699 C 1685.71 682.914 1686.78 683.711 1685.14 681.412 C 1684.49 675.781 1684.94 666.101 1685.95 660.501 z"/>
<path transform="translate(0,0)" fill="rgb(219,219,223)" d="M 1590.51 722.564 C 1593.08 724.334 1592.27 723.193 1593.26 725.941 C 1591.2 729.647 1584.67 735.797 1581.34 739.419 L 1578.67 738.27 L 1578.48 736.166 C 1580.95 731.606 1586.68 726.405 1590.51 722.564 z"/>
<path transform="translate(0,0)" fill="rgb(219,219,223)" d="M 1724.34 905.509 L 1726.48 907.687 C 1726.46 913.11 1719.31 921.034 1715.77 925.463 C 1713.59 923.09 1714.11 924.412 1713.67 921.609 C 1715.89 916.128 1720.7 910.347 1724.34 905.509 z"/>
<path transform="translate(0,0)" fill="rgb(219,219,223)" d="M 1644.99 606.873 C 1650.74 606.366 1663.07 612.372 1665.31 618.031 C 1659.49 619.213 1647.34 612.574 1644.99 606.873 z"/>
<path transform="translate(0,0)" fill="rgb(219,219,223)" d="M 1740.47 873.204 C 1742.15 873.929 1741.84 873.884 1743.29 875.082 C 1743.82 880.578 1738.33 889.536 1735.56 894.661 C 1733.2 893.348 1734.09 894.234 1732.73 891.947 C 1733.59 887.62 1738.47 877.763 1740.47 873.204 z"/>
<path transform="translate(0,0)" fill="rgb(219,219,223)" d="M 1651.85 749.61 C 1652.89 749.953 1653.45 750.484 1654.4 751.132 C 1654.1 755.906 1645.85 762.338 1641.93 765.967 C 1639.8 764.901 1640.72 765.637 1639.29 763.46 C 1640.47 759.391 1648.47 752.784 1651.85 749.61 z"/>
<path transform="translate(0,0)" fill="rgb(219,219,223)" d="M 1673.42 719.487 L 1675.54 721.374 C 1675.86 726.512 1669.09 735.014 1665.96 739.428 C 1663.83 738.697 1664.78 739.272 1663.18 737.423 C 1663.59 733.566 1671.07 723.04 1673.42 719.487 z"/>
<path transform="translate(0,0)" fill="rgb(219,219,223)" d="M 1609.5 601.043 C 1614.68 600.612 1623.81 600.211 1628.6 602.4 C 1630.52 603.278 1629.87 603.261 1630.78 605.949 C 1625.6 606.142 1616.66 606.961 1611.86 604.909 C 1610.04 604.13 1610.31 603.362 1609.5 601.043 z"/>
<path transform="translate(0,0)" fill="rgb(219,219,223)" d="M 1505.53 641.702 C 1506.45 642.269 1506.86 642.844 1507.64 643.649 C 1507.09 647.632 1497.89 655.01 1494.65 657.916 C 1492.46 655.03 1492.77 656.52 1492.84 653.545 C 1495.54 649.181 1501.38 645.033 1505.53 641.702 z"/>
<path transform="translate(0,0)" fill="rgb(219,219,223)" d="M 1702.14 934.539 C 1702.69 934.673 1704.05 935.407 1704.62 935.691 L 1704.67 937.845 C 1702.46 941.757 1696.54 947.032 1693.08 950.382 L 1691 948.946 L 1690.73 946.761 C 1693.15 942.619 1698.49 938.013 1702.14 934.539 z"/>
<path transform="translate(0,0)" fill="rgb(219,219,223)" d="M 1621.54 705.8 C 1623.31 706.38 1622.64 706.092 1624.07 707.588 L 1623.59 709.159 C 1620.1 711.9 1612.86 714.688 1608.5 716.578 C 1606.51 716.468 1607.4 716.777 1605.91 715.327 C 1608.25 710.353 1616.28 707.959 1621.54 705.8 z"/>
<path transform="translate(0,0)" fill="rgb(219,219,223)" d="M 1481.56 665.673 C 1483.75 667.765 1483.25 666.546 1483.43 669.299 C 1481.14 674.032 1476.15 678.605 1472.39 682.479 L 1470.26 680.755 C 1470.46 675.707 1477.72 669.565 1481.56 665.673 z"/>
<path transform="translate(0,0)" fill="rgb(219,219,223)" d="M 1532.25 622.825 C 1533.23 622.847 1534.29 623.257 1535.3 623.542 L 1535.54 625.246 C 1532.68 628.58 1526.39 632.303 1522.48 634.873 C 1520.59 634.789 1521.21 634.78 1519.35 633.691 L 1519.61 631.809 C 1522.86 628.256 1528.05 625.424 1532.25 622.825 z"/>
<path transform="translate(0,0)" fill="rgb(219,219,223)" d="M 1642.58 701.362 C 1648.02 701.03 1656.84 700.237 1661.8 702.31 L 1662.05 704.268 L 1660.11 705.013 C 1653.96 704.875 1648.19 706.063 1642.34 705.09 L 1641.29 703.615 L 1642.58 701.362 z"/>
<path transform="translate(0,0)" fill="rgb(219,219,223)" d="M 1562.26 608.818 C 1563.23 608.997 1564.14 609.547 1565.09 609.997 L 1564.95 611.916 C 1561.12 614.943 1556.85 616.214 1552.26 617.998 C 1549.93 617.93 1551.04 618.201 1548.88 616.884 L 1549.34 615.36 C 1553.05 612.369 1557.83 610.692 1562.26 608.818 z"/>
<path transform="translate(0,0)" fill="rgb(219,219,223)" d="M 1590.09 602.293 C 1593.63 601.82 1592.08 601.494 1594.99 602.722 L 1594.56 604.446 C 1590.6 607.49 1588.09 607.395 1583.22 607.972 C 1580.76 608.551 1580.94 608.496 1578.56 607.573 L 1578.83 606.067 C 1583.24 602.906 1584.75 602.982 1590.09 602.293 z"/>
<path transform="translate(0,0)" fill="rgb(219,219,223)" d="M 1626.85 769.797 L 1629.22 770.889 L 1629.55 772.63 C 1626.73 775.886 1622.53 777.543 1618.59 779.555 C 1616.86 779.464 1617.52 779.441 1615.72 778.335 L 1616.06 776.635 C 1619.36 773.438 1622.79 771.956 1626.85 769.797 z"/>
<path transform="translate(0,0)" fill="rgb(219,219,223)" d="M 1682.55 696.272 C 1684.52 697.117 1683.8 696.648 1685.17 698.497 C 1685.71 703.741 1684.29 706.114 1681.24 710.409 C 1680.03 709.449 1679.55 708.826 1678.5 707.698 C 1678.38 703.719 1680.73 700.02 1682.55 696.272 z"/>
</svg>