<svg version="1.1" xmlns="http://www.w3.org/2000/svg" style="display: block;" viewBox="0 0 2048 1491" width="1470" height="1070" preserveAspectRatio="none">
<path transform="translate(0,0)" fill="rgb(252,253,252)" d="M 0 0 L 2048 0 L 2048 1491 L 0 1491 L 0 0 z"/>
<path transform="translate(0,0)" fill="rgb(248,218,158)" d="M 770.16 919.207 C 797.394 917.543 839.373 918.934 867.707 918.933 L 1060.53 918.931 L 1341.06 918.926 C 1389.44 918.929 1438.15 917.787 1486.49 919.117 C 1491.55 919.256 1496.35 919.721 1501.04 921.816 C 1508.95 925.352 1516.12 934.04 1518.97 942.11 C 1522.53 952.195 1521.59 1113.77 1520.78 1133.97 C 1520.58 1138.88 1520.79 1146.68 1518.52 1151.09 C 1516.53 1154.96 1514.19 1158.63 1511.1 1161.71 C 1506.47 1166.3 1500.59 1169.38 1494.28 1170.9 C 1479.38 1174.49 1430.29 1172.17 1411.5 1172.09 L 976.178 1172.13 L 842.207 1172.21 C 818.487 1172.23 793.873 1173.56 770.258 1171.68 C 763.384 1171.13 758.78 1169.34 753.064 1165.52 C 741.201 1157.59 679.693 1087.2 668.691 1071.74 C 664.694 1066.13 661.337 1060.56 660.034 1053.72 C 657.933 1042.47 660.449 1030.86 667.013 1021.48 C 674.765 1010.25 739.927 935.198 748.749 928.271 C 755.399 923.048 761.943 920.796 770.16 919.207 z"/>
<path transform="translate(0,0)" fill="rgb(252,253,252)" d="M 769.97 923.163 L 771.161 923.103 C 787.242 922.335 806.328 922.788 822.663 922.793 L 914.877 922.853 L 1190.6 922.848 L 1390.56 922.871 L 1455.09 922.795 C 1492.74 922.76 1516.32 917.423 1516.74 964.748 L 1516.72 1078.06 C 1516.74 1098.79 1517.46 1120.21 1515.86 1140.68 C 1513.41 1172.07 1479.68 1168.17 1457.17 1168 C 1441.66 1167.88 1426.18 1167.92 1410.75 1167.88 L 989.657 1167.85 L 851.119 1167.91 C 826.886 1167.91 802.653 1168.1 778.426 1167.7 C 763.522 1168.37 748.985 1160.74 740.156 1148.02 C 725.42 1126.79 669.675 1075.46 664.416 1053.46 C 662.212 1044.11 663.816 1034.26 668.874 1026.08 C 672.035 1020.98 692.868 997.341 698.162 991.507 C 715.708 972.171 733.004 949.291 751.998 931.649 C 757.539 926.504 762.891 924.867 769.97 923.163 z"/>
<path transform="translate(0,0)" fill="rgb(248,218,158)" d="M 883.06 983.671 C 917.201 979.245 948.486 1003.28 953.008 1037.41 C 957.53 1071.54 933.583 1102.89 899.467 1107.51 C 865.214 1112.15 833.709 1088.08 829.169 1053.82 C 824.629 1019.55 848.782 988.114 883.06 983.671 z"/>
<path transform="translate(0,0)" fill="rgb(210,216,225)" d="M 1012.27 1017.06 C 1089.66 1016.16 1168.26 1016.89 1245.73 1016.87 L 1334.64 1016.83 C 1345.21 1016.83 1376.07 1014.67 1386.48 1019.59 C 1391.35 1021.89 1387.34 1028.35 1383.98 1031.87 C 1360.16 1032.53 1333.48 1031.94 1309.48 1031.94 L 1165.52 1031.94 L 1065.63 1031.94 C 1050.25 1031.95 1034.68 1032.08 1019.29 1032.1 C 1016.38 1031.84 1012 1031.26 1009.89 1029.06 C 1005.55 1024.55 1008.74 1020.54 1012.27 1017.06 z"/>
<path transform="translate(0,0)" fill="rgb(210,216,225)" d="M 1012.33 1063.06 C 1083.58 1061.25 1155.87 1063.86 1227.19 1062.97 C 1236.76 1062.86 1237.15 1071.16 1230.76 1077.75 C 1209.89 1078.24 1020.12 1079.66 1010.94 1076.38 C 1006.1 1071.49 1007.75 1067.6 1012.33 1063.06 z"/>
<path transform="translate(0,0)" fill="rgb(248,218,158)" d="M 712.733 1033.73 C 719.072 1022.11 733.51 1017.66 745.287 1023.69 C 757.065 1029.72 761.895 1044.04 756.18 1055.97 C 750.465 1067.9 736.284 1073.11 724.203 1067.72 C 713.546 1062.95 707.75 1051.32 710.371 1039.94 C 710.871 1037.77 711.666 1035.68 712.733 1033.73 z"/>
<path transform="translate(0,0)" fill="rgb(252,253,252)" d="M 720.635 1037.14 C 727.12 1030.26 737.016 1026.79 744.606 1034.25 C 747.744 1037.39 749.418 1041.7 749.218 1046.14 C 749.051 1050.21 747.364 1054.15 744.285 1056.87 C 740.941 1059.83 736.521 1061.27 732.073 1060.86 C 731.461 1060.79 730.85 1060.72 730.238 1060.65 C 720.556 1056.34 719.197 1052.51 718.625 1042.58 L 720.635 1037.14 z"/>
<path transform="translate(0,0)" fill="rgb(127,214,175)" d="M 724.887 641.332 C 741.054 640.397 759.416 641.124 775.807 641.14 L 868.97 641.228 L 1149.66 641.18 L 1345.64 641.195 L 1407.05 641.151 C 1425.04 641.148 1448.39 637.701 1461.87 650.877 C 1471.68 659.95 1472.7 670.829 1472.55 683.859 C 1471.83 744.83 1473.7 806.457 1471.6 867.312 C 1470.75 878.848 1457.42 891.999 1446.29 892.982 C 1419.13 895.379 1388.74 894.186 1361.5 894.082 L 931.019 894.065 L 795.073 894.127 C 777.879 894.144 714.483 897.642 703.542 887.011 C 673.632 857.949 646.556 824.432 619.509 792.583 C 608.918 780.111 608.906 755.8 619.494 743.427 C 646.475 711.898 673.068 678.583 702.566 649.488 C 706.96 645.155 718.963 642.325 724.887 641.332 z"/>
<path transform="translate(0,0)" fill="rgb(252,253,252)" d="M 728.666 645.484 C 776.422 644.217 828.944 645.259 876.984 645.225 L 1170.28 645.243 L 1347.58 645.213 C 1378.25 645.193 1409.08 644.87 1439.75 645.626 C 1459.27 646.264 1468.36 662.632 1468.33 680.36 C 1468.25 735.754 1467.85 791.041 1468.35 846.422 C 1468.4 852.321 1468.63 858.345 1467.81 864.192 C 1463.58 894.477 1432.02 890.461 1409.61 890.432 L 1352.5 890.345 L 918.146 890.401 L 789.35 890.368 C 767.406 890.389 744.199 890.9 722.328 889.659 C 714.759 889.23 707.062 885.159 701.769 879.92 C 687.647 865.94 672.251 847.83 659.244 832.743 C 650.87 823.03 627.462 797.829 621.325 788.038 C 617.965 782.734 615.956 776.687 615.473 770.427 C 615.091 764.792 616.788 754.751 620.18 750.218 C 641.754 721.396 667.784 694.484 690.953 666.853 C 702.29 653.332 711.121 646.56 728.666 645.484 z"/>
<path transform="translate(0,0)" fill="rgb(204,240,220)" d="M 837.817 705.737 C 872.245 703.132 902.245 728.98 904.761 763.416 C 907.276 797.851 881.35 827.784 846.908 830.21 C 812.592 832.628 782.793 806.817 780.287 772.508 C 777.781 738.198 803.514 708.332 837.817 705.737 z"/>
<path transform="translate(0,0)" fill="rgb(210,216,225)" d="M 963.336 739.24 C 1037.3 737.875 1115.89 739.195 1190.16 739.219 L 1280.66 739.223 C 1293.75 739.191 1323.88 737.292 1336.85 741.495 C 1338.86 742.146 1339.44 744.849 1339.87 746.864 C 1339.18 750.648 1338.41 751.206 1335.75 754.074 C 1318.94 754.911 1295.33 754.272 1278.1 754.274 L 1168.43 754.268 L 1033.57 754.259 C 1012.69 754.262 991.809 754.355 970.939 754.419 C 967.457 754.43 961.927 753.295 959.9 750.349 C 956.91 746.005 960.567 741.988 963.336 739.24 z"/>
<path transform="translate(0,0)" fill="rgb(210,216,225)" d="M 963.282 785.261 C 1030.43 784.34 1097.82 785.652 1164.99 785.088 C 1170.3 785.043 1180.12 784.513 1184.43 787.48 C 1187.96 792.859 1186.34 795.974 1181.67 800.038 C 1138.44 800.803 1094.23 799.908 1050.94 800.245 C 1036.86 800.355 967.204 801.526 961.326 798.265 C 957.437 793.147 959.064 789.575 963.282 785.261 z"/>
<path transform="translate(0,0)" fill="rgb(127,214,175)" d="M 681.934 743.667 C 695.34 741.463 707.972 750.606 710.067 764.029 C 712.161 777.452 702.915 790.01 689.476 791.995 C 676.19 793.958 663.807 784.84 661.737 771.571 C 659.666 758.302 668.682 745.845 681.934 743.667 z"/>
<path transform="translate(0,0)" fill="rgb(252,253,252)" d="M 680.404 753.487 C 688.391 750.44 697.339 754.433 700.405 762.414 C 703.471 770.394 699.5 779.351 691.526 782.436 C 683.526 785.532 674.532 781.544 671.456 773.537 C 668.379 765.529 672.389 756.545 680.404 753.487 z"/>
<path transform="translate(0,0)" fill="rgb(128,156,196)" d="M 676.242 364.22 C 678.204 364.029 681.707 363.918 683.758 363.909 C 734.212 363.675 784.889 363.861 835.33 363.865 L 1133.74 363.831 L 1306.74 363.82 L 1361.83 363.744 C 1378.97 363.73 1402.37 360.54 1415.13 373.27 C 1423.63 381.752 1425.27 390.017 1425.24 401.674 C 1425.12 442.192 1425 482.671 1425.14 523.184 C 1425.11 536.68 1426.11 579.002 1424.37 589.686 C 1423.39 595.909 1420.45 601.659 1415.99 606.103 C 1411.18 610.834 1405.15 614.125 1398.57 615.605 C 1388.06 618.061 1327.61 616.9 1313.75 616.859 L 887.247 616.858 L 750.277 616.889 C 726.697 616.911 703.218 617.164 679.543 616.588 C 656.663 616.031 643.183 596.226 629.399 580.577 C 621.748 571.891 612.331 561.699 605.266 552.786 C 592.712 536.948 569.055 517.367 565.466 497.09 C 563.602 486.388 566.146 475.387 572.52 466.59 C 575.255 462.818 578.777 458.646 581.935 455.143 C 606.131 428.308 628.456 398.954 654.326 373.812 C 660.202 368.101 668.384 365.551 676.242 364.22 z"/>
<path transform="translate(0,0)" fill="rgb(252,253,252)" d="M 674.956 368.128 L 675.852 368.062 C 688.439 367.215 705.689 367.687 718.745 367.666 L 798.424 367.652 L 1043.86 367.645 L 1280.72 367.626 L 1355.44 367.68 C 1372.69 367.697 1399.96 364.001 1412.71 376.409 C 1420.81 384.296 1421.59 395.188 1421.56 405.855 C 1421.36 466.403 1422.32 527.098 1420.92 587.599 C 1419.77 598.027 1407.08 610.919 1397.01 611.845 C 1371.59 614.183 1343.13 612.948 1317.62 612.85 L 896.378 612.857 L 756.973 612.879 C 732.381 612.878 707.833 613.004 683.222 612.625 C 670.304 612.885 661.079 609.081 651.986 599.589 C 636.119 582.546 620.318 564.701 605.36 546.847 C 594.272 533.612 574.918 516.149 570.242 499.99 C 567.572 490.816 568.762 480.95 573.536 472.674 C 580.337 460.843 646.004 385.87 657.397 376.601 C 663.021 372.025 668.005 369.987 674.956 368.128 z"/>
<path transform="translate(0,0)" fill="rgb(210,216,225)" d="M 786.346 428.707 C 820.583 423.16 852.788 446.557 858.094 480.833 C 863.4 515.109 839.777 547.148 805.464 552.213 C 771.492 557.227 739.839 533.888 734.585 499.952 C 729.332 466.016 752.447 434.199 786.346 428.707 z"/>
<path transform="translate(0,0)" fill="rgb(210,216,225)" d="M 971.043 461.481 L 1218.99 461.592 C 1233.1 461.697 1247.28 461.264 1261.37 461.39 C 1269.2 461.461 1291.19 459.184 1294.37 467.238 C 1293.36 472.161 1287.58 477.189 1282.82 477.116 C 1267.69 476.883 1252.58 476.805 1237.42 476.792 L 1032.16 476.709 C 996.535 476.731 960.899 476.789 925.282 476.603 C 919.379 476.572 913.489 476.333 912.127 469.789 C 912.732 467.592 912.929 466.646 914.548 464.955 C 916.302 463.122 918.588 461.889 921.082 461.428 C 928.605 460.116 960.846 461.565 971.043 461.481 z"/>
<path transform="translate(0,0)" fill="rgb(210,216,225)" d="M 916.435 508.088 C 955.607 506.547 1004.7 507.816 1044.35 507.801 L 1101.57 507.797 C 1108.85 507.8 1133.26 506.648 1138.18 509.873 C 1142.06 515.328 1139.76 518.645 1135.08 522.48 C 1126.58 523.386 1112.06 522.985 1103 522.989 L 1046.23 522.994 L 967.129 523.029 C 952.37 523.056 937.582 523.165 922.826 522.945 C 918.581 522.882 914.142 521.848 912.811 517.233 C 911.682 513.316 913.952 510.756 916.435 508.088 z"/>
<path transform="translate(0,0)" fill="rgb(128,156,196)" d="M 633.541 466.546 C 642.146 464.402 651.239 467.074 657.318 473.532 C 663.396 479.991 665.512 489.228 662.851 497.689 C 660.19 506.149 653.167 512.512 644.486 514.328 C 631.412 517.064 618.554 508.828 615.571 495.807 C 612.589 482.787 620.579 469.775 633.541 466.546 z"/>
<path transform="translate(0,0)" fill="rgb(252,253,252)" d="M 635.012 475.43 C 640.392 473.836 646.214 475.258 650.254 479.152 C 654.293 483.046 655.928 488.811 654.533 494.246 C 653.138 499.681 648.929 503.946 643.514 505.414 C 635.275 507.646 626.774 502.835 624.446 494.623 C 622.117 486.411 626.828 477.854 635.012 475.43 z"/>
<path transform="translate(0,0)" fill="rgb(204,240,220)" d="M 392.018 818.208 C 428.117 842.106 450.525 915.992 454.72 957.08 C 459.934 957.977 469.6 960.509 473.884 963.368 C 497.339 942.903 528.655 924.58 560.49 924.088 C 566.488 955.972 550.372 997.367 532.101 1023.6 C 507.749 1058.55 482.638 1076.56 444.501 1093.34 C 440.768 1093.71 439.333 1094.22 436.125 1092.51 C 428.766 1093.49 419.791 1092.96 413.846 1093.93 L 410.22 1092.87 L 408.546 1093.25 C 406.374 1093.54 404.768 1093.43 402.589 1093.41 C 391.386 1092.47 379.501 1093.63 366.746 1092.42 C 363.147 1094.21 357.512 1092.97 353.273 1092.51 C 332.357 1086.07 314.757 1078.31 296.69 1065.58 C 266.045 1044.36 242.455 1014.45 228.962 979.706 C 226.249 972.543 220.429 961.01 225.156 954.348 C 229.197 951.982 243.063 950.769 247.941 951.069 C 294.872 953.955 328.185 975.707 359.505 1007.32 C 352.605 983.012 349.642 947.315 352.038 922.189 C 355.077 890.327 366.526 839.43 392.018 818.208 z"/>
<path transform="translate(0,0)" fill="rgb(204,240,220)" d="M 413.846 1093.93 C 417.392 1046.6 432.537 1014.66 464.081 979.002 C 486.587 953.561 523.395 930.097 557.958 928.44 C 559.35 964.477 544.053 1001.75 522.339 1030 C 498.806 1060.62 471.306 1078.15 436.125 1092.51 C 428.766 1093.49 419.791 1092.96 413.846 1093.93 z"/>
<path transform="translate(0,0)" fill="rgb(204,240,220)" d="M 226.293 957.181 C 262.378 950.384 295.715 963.455 325.668 982.991 C 336.13 989.815 357.866 1009.06 362.572 1019.91 C 366.609 1029.21 368.82 1039.57 374.252 1050.28 C 382.606 1066.74 391.256 1078.64 402.589 1093.41 C 391.386 1092.47 379.501 1093.63 366.746 1092.42 C 358.84 1090 351.051 1087.48 343.222 1084.82 C 287.181 1065.72 239.265 1015.73 226.293 957.181 z"/>
<path transform="translate(0,0)" fill="rgb(127,214,175)" d="M 392.018 818.208 C 428.117 842.106 450.525 915.992 454.72 957.08 C 459.934 957.977 469.6 960.509 473.884 963.368 C 497.339 942.903 528.655 924.58 560.49 924.088 C 566.488 955.972 550.372 997.367 532.101 1023.6 C 507.749 1058.55 482.638 1076.56 444.501 1093.34 C 440.768 1093.71 439.333 1094.22 436.125 1092.51 C 471.306 1078.15 498.806 1060.62 522.339 1030 C 544.053 1001.75 559.35 964.477 557.958 928.44 C 523.395 930.097 486.587 953.561 464.081 979.002 C 432.537 1014.66 417.392 1046.6 413.846 1093.93 L 410.22 1092.87 C 409.825 1054.17 428.216 1018.38 450.755 988.1 C 450.929 982.045 451.009 975.988 450.996 969.93 C 450.698 919.335 428.766 858.876 392.427 822.899 C 366.946 847.845 355.227 904.942 355.06 939.418 C 354.801 993.146 370.481 1053.77 408.546 1093.25 C 406.374 1093.54 404.768 1093.43 402.589 1093.41 C 391.256 1078.64 382.606 1066.74 374.252 1050.28 C 368.82 1039.57 366.609 1029.21 362.572 1019.91 C 357.866 1009.06 336.13 989.815 325.668 982.991 C 295.715 963.455 262.378 950.384 226.293 957.181 C 239.265 1015.73 287.181 1065.72 343.222 1084.82 C 351.051 1087.48 358.84 1090 366.746 1092.42 C 363.147 1094.21 357.512 1092.97 353.273 1092.51 C 332.357 1086.07 314.757 1078.31 296.69 1065.58 C 266.045 1044.36 242.455 1014.45 228.962 979.706 C 226.249 972.543 220.429 961.01 225.156 954.348 C 229.197 951.982 243.063 950.769 247.941 951.069 C 294.872 953.955 328.185 975.707 359.505 1007.32 C 352.605 983.012 349.642 947.315 352.038 922.189 C 355.077 890.327 366.526 839.43 392.018 818.208 z"/>
<path transform="translate(0,0)" fill="rgb(252,253,252)" d="M 454.72 957.08 C 459.934 957.977 469.6 960.509 473.884 963.368 L 465.326 971.326 L 455.233 982.384 L 454.932 965.572 L 454.72 957.08 z"/>
<path transform="translate(0,0)" fill="rgb(186,186,191)" d="M 353.273 1092.51 C 357.512 1092.97 363.147 1094.21 366.746 1092.42 C 379.501 1093.63 391.386 1092.47 402.589 1093.41 C 404.768 1093.43 406.374 1093.54 408.546 1093.25 L 410.22 1092.87 L 413.846 1093.93 C 419.791 1092.96 428.766 1093.49 436.125 1092.51 C 439.333 1094.22 440.768 1093.71 444.501 1093.34 C 459.296 1094.04 491.252 1089.73 502.398 1100.23 C 506.7 1104.28 508.873 1114.43 507.578 1119.89 C 499.426 1166.32 492.273 1213.49 482.337 1259.51 C 480.805 1266.61 469.679 1275.92 463.664 1279.48 C 460.362 1280.72 452.504 1283.46 449.888 1285.1 C 422.06 1285.9 386.906 1285.72 359.08 1285 C 355.756 1283 348.85 1280.79 345.047 1279.51 C 331.805 1271.2 325.79 1262.53 323.529 1247.08 C 319.422 1219 315.007 1190.94 310.812 1162.88 C 309.645 1148 304.442 1131.37 304.457 1116.51 C 304.489 1085.33 337.506 1095.3 353.273 1092.51 z"/>
<path transform="translate(0,0)" fill="rgb(252,253,252)" d="M 324.577 1097.46 C 346.523 1096.72 487.242 1095.96 493.451 1099.01 C 497.827 1101.17 501.732 1106.31 503.102 1110.93 C 504.368 1115.19 504.171 1119.99 503.658 1124.37 C 501.985 1138.64 497.962 1152.84 495.578 1167.04 L 486.569 1217.68 C 483.954 1232.74 482.359 1251.62 474.663 1264.66 C 469.14 1271.62 461.445 1276.54 452.804 1278.63 C 439.738 1281.88 379.269 1279.64 362.304 1279.75 C 356.126 1279.05 349.425 1276.95 344.231 1273.79 C 328.343 1264.12 327.539 1247.41 325.394 1230.79 C 320.482 1192.75 312.967 1154.87 309.001 1116.75 C 307.985 1106.99 315.515 1099.5 324.577 1097.46 z"/>
<path transform="translate(0,0)" fill="rgb(210,216,225)" d="M 449.888 1285.1 C 452.504 1283.46 460.362 1280.72 463.664 1279.48 L 464.75 1279.59 C 482.937 1281.32 522.406 1280.12 542.31 1280.08 L 683.786 1280.05 L 1397.4 1280.07 L 1630.77 1280.1 C 1667.11 1280.09 1703.62 1280.26 1739.97 1279.85 C 1742.73 1279.82 1745.4 1280.78 1747.38 1282.77 L 1746.84 1283.98 C 1738.99 1286.5 1712.77 1285.15 1702.69 1285.15 L 1625.14 1285.29 L 1332.01 1285.22 L 745.782 1285.16 L 554.788 1285.22 C 520.328 1285.24 484.201 1285.87 449.888 1285.1 z"/>
<path transform="translate(0,0)" fill="rgb(128,156,196)" d="M 1645.96 204.791 C 1651.67 206.45 1658 229.45 1659.53 235.222 C 1663.77 251.236 1695.37 251.801 1699.44 261.666 C 1689.02 268.446 1676.37 269.636 1663.16 279.652 L 1662.05 280.498 C 1655.56 295.557 1654.19 303.332 1649.14 317.746 C 1647.68 317.463 1646.66 317.067 1645.27 316.599 C 1642.84 313.472 1635.03 288.024 1631.24 279.84 C 1619.86 271.76 1611.13 268.986 1598.37 264.07 C 1596.35 263.295 1596.18 262.119 1595.7 260.29 C 1599.49 253.535 1621.37 250.132 1628.92 242.966 C 1637.43 234.881 1639.77 211.356 1645.96 204.791 z"/>
<path transform="translate(0,0)" fill="rgb(210,216,225)" d="M 1646.5 213.73 C 1652.18 221.291 1652.64 232.735 1655.58 239.319 C 1660.54 250.444 1681.29 256.746 1692.31 260.51 C 1658.36 272.738 1657.61 274.001 1647.25 307.974 C 1643.85 304.878 1641.51 289.337 1639.51 284.909 C 1633.2 270.924 1615.1 265.167 1601.78 260.453 C 1635.13 248.855 1635.96 246.986 1646.5 213.73 z"/>
<path transform="translate(0,0)" fill="rgb(127,214,175)" d="M 342.68 477.403 L 345.601 478.025 C 349.397 481.5 351.621 493.784 354.048 499.293 C 356.392 504.615 358.064 508.504 361.063 513.623 C 367.281 517.529 373.889 520.776 380.78 523.311 C 384.539 524.668 391.95 526.186 393.99 529.262 C 389.905 537.349 366.257 541.91 359.166 550.232 C 351.886 558.776 350.561 578.969 345.92 587.48 C 337.24 585.606 337.092 559.645 329.869 550.373 C 322.254 540.598 298.185 536.325 294.141 529.633 C 300.448 523.304 321.93 520.293 328.363 513 C 336.434 503.851 338.026 488.801 342.68 477.403 z"/>
<path transform="translate(0,0)" fill="rgb(204,240,220)" d="M 344.487 487.105 C 347 491.274 350.951 504.871 354.591 511.044 C 361.744 523.175 374.455 526.162 387.309 530.067 C 356.997 541.646 353.278 546.081 344.657 576.345 C 341.286 573.114 339.027 558.165 336.484 552.937 C 330.526 540.69 314.384 534.743 302.495 530.142 C 331.066 520.921 335.545 515.784 344.487 487.105 z"/>
<path transform="translate(0,0)" fill="rgb(210,216,225)" d="M 345.047 1279.51 C 348.85 1280.79 355.756 1283 359.08 1285 C 344.562 1285.64 288.081 1287.24 277.97 1282.84 L 278.227 1280.84 C 297.961 1277.75 324.451 1282.1 345.047 1279.51 z"/>
<path transform="translate(0,0)" fill="rgb(186,186,191)" d="M 1833.14 699.688 C 1837.3 702.435 1847.59 715.146 1849.4 720.061 C 1850.21 722.268 1849.18 722.913 1847.95 725.044 C 1843.54 721.408 1833.03 709.468 1830.97 703.618 C 1830.5 702.311 1831.98 701.159 1833.14 699.688 z"/>
<path transform="translate(0,0)" fill="rgb(186,186,191)" d="M 1867.88 782.705 C 1870.04 783.514 1869.88 783.494 1871.41 785.242 C 1872.86 792.221 1874.58 805.269 1871.43 811.542 L 1868.91 810.615 C 1866.16 807.072 1865.36 786.675 1867.88 782.705 z"/>
<path transform="translate(0,0)" fill="rgb(186,186,191)" d="M 1855.97 738.299 C 1858.06 738.786 1859.56 738.683 1860.65 740.46 C 1864.04 745.979 1868.56 759.453 1867.68 765.724 C 1866.46 765.445 1864.38 765.214 1863.76 764.081 C 1860.97 758.912 1855.19 743.76 1855.97 738.299 z"/>
<path transform="translate(0,0)" fill="rgb(186,186,191)" d="M 1792.64 622.279 C 1794.3 622.594 1796.61 622.854 1797.18 624.54 C 1799.45 631.253 1798.59 643.404 1796.07 649.713 L 1793.23 648.379 C 1791.01 644.71 1792.33 627.721 1792.64 622.279 z"/>
<path transform="translate(0,0)" fill="rgb(186,186,191)" d="M 1795.29 674.553 C 1800.75 676.909 1812.96 682.104 1816.43 687.024 C 1817.35 688.337 1816.67 689.6 1816.3 691.57 C 1811.85 689.669 1797.54 683.069 1794.69 678.968 C 1793.9 677.831 1794.78 676.267 1795.29 674.553 z"/>
<path transform="translate(0,0)" fill="rgb(186,186,191)" d="M 1660.92 726.294 C 1662.76 727.04 1662.53 727.041 1664.18 728.225 C 1664.91 731.411 1665.77 748.681 1663.77 752.14 C 1655.82 748.125 1657.09 732.523 1660.92 726.294 z"/>
<path transform="translate(0,0)" fill="rgb(186,186,191)" d="M 1707.8 552.167 C 1714.8 552.332 1726.04 551.38 1730.91 556.009 L 1730.84 559.309 C 1724.98 558.979 1710.63 559.508 1707.38 555.545 L 1707.8 552.167 z"/>
<path transform="translate(0,0)" fill="rgb(186,186,191)" d="M 1866.63 827.39 C 1868.45 828.151 1869.83 828.235 1870.21 829.702 C 1871.78 835.721 1867.22 847.308 1865.06 852.665 L 1862.02 851.638 C 1860.22 846.79 1864.88 832.796 1866.63 827.39 z"/>
<path transform="translate(0,0)" fill="rgb(186,186,191)" d="M 1855.32 867.28 C 1856.59 868.055 1858.54 868.82 1858.73 870.003 C 1859.63 875.67 1852.23 887.07 1849.58 891.668 C 1847.02 890.444 1848.03 891.316 1846.45 888.932 C 1846.92 883.533 1852.7 872.671 1855.32 867.28 z"/>
<path transform="translate(0,0)" fill="rgb(186,186,191)" d="M 1780.72 583.502 C 1787.25 585.681 1794.25 600.715 1793.13 606.773 L 1790.83 606.785 C 1786.62 604.821 1779.48 588.888 1780.72 583.502 z"/>
<path transform="translate(0,0)" fill="rgb(186,186,191)" d="M 1779.15 689.718 C 1781.77 692.023 1780.98 690.639 1781.71 693.946 C 1779.56 701.497 1774.58 707.327 1769.92 713.623 L 1767.51 711.58 C 1766.62 706.959 1776.17 694.286 1779.15 689.718 z"/>
<path transform="translate(0,0)" fill="rgb(186,186,191)" d="M 1584.05 599.609 L 1586.39 601.287 L 1586.62 603.382 C 1584.21 607.976 1575.76 614.917 1571.66 618.653 C 1569.88 618.075 1570.17 618.086 1568.56 617.031 L 1568.51 614.784 C 1571.46 609.966 1579.6 603.557 1584.05 599.609 z"/>
<path transform="translate(0,0)" fill="rgb(186,186,191)" d="M 1759.49 668.417 C 1760.74 668.468 1762.73 668.809 1764.04 668.986 L 1765.51 671.136 L 1764.94 672.858 C 1761.45 674.757 1752.61 674.452 1748.24 674.553 C 1745.33 675.119 1745.45 675.056 1742.49 674.485 L 1741.7 672.866 L 1743.08 671.109 C 1748.88 668.054 1752.86 668.508 1759.49 668.417 z"/>
<path transform="translate(0,0)" fill="rgb(186,186,191)" d="M 1755.11 724.499 C 1757.36 725.481 1756.36 724.766 1757.92 727.031 C 1757.26 732.16 1747.84 739.601 1743.72 743.302 L 1741.08 742.361 L 1740.24 740.508 C 1741.81 736.157 1751.17 728.182 1755.11 724.499 z"/>
<path transform="translate(0,0)" fill="rgb(186,186,191)" d="M 1748.21 559.629 C 1753.82 559.876 1765.51 565.188 1769.14 569.878 C 1770.23 571.279 1769.59 572.103 1769.3 573.877 C 1765.09 573.774 1752.76 566.951 1749.14 563.882 C 1747.81 562.748 1748.26 561.829 1748.21 559.629 z"/>
<path transform="translate(0,0)" fill="rgb(186,186,191)" d="M 1675.09 758.694 C 1681.42 759.903 1693.17 759.991 1696.87 763.022 L 1696.73 766.577 C 1691.58 766.774 1680.88 767.644 1676.72 764.174 C 1674.61 762.411 1675.2 761.596 1675.09 758.694 z"/>
<path transform="translate(0,0)" fill="rgb(186,186,191)" d="M 1836.83 904.57 L 1839.2 906.468 C 1839.67 912.572 1831.54 921.542 1827.72 926.386 C 1824.62 925.437 1825.61 926.37 1824.28 923.966 C 1825.45 918.916 1833.34 909.244 1836.83 904.57 z"/>
<path transform="translate(0,0)" fill="rgb(186,186,191)" d="M 1718.52 674.847 C 1720.44 674.813 1720.43 675.066 1722.09 676.138 L 1721.94 677.863 C 1718.85 681.006 1709 685.125 1704.6 687.222 C 1702.58 687.581 1702.63 687.368 1700.72 686.464 L 1700.72 684.872 C 1702.79 680.538 1713.72 676.787 1718.52 674.847 z"/>
<path transform="translate(0,0)" fill="rgb(186,186,191)" d="M 1683.19 694.402 C 1684.64 694.713 1684.94 695.077 1686.29 695.836 L 1686.63 697.854 C 1684.57 701.552 1676.32 709.545 1672.81 713.549 C 1671.38 713.094 1671.31 712.824 1670.03 711.896 L 1669.97 709.644 C 1672.79 704.741 1679.11 698.667 1683.19 694.402 z"/>
<path transform="translate(0,0)" fill="rgb(186,186,191)" d="M 1811.19 937.651 C 1813.8 938.673 1812.76 937.881 1814.45 940.075 C 1813.59 945.243 1804.43 952.577 1800.28 956.342 C 1797.81 954.255 1798.5 955.512 1797.79 952.667 C 1800 948.07 1807.35 941.513 1811.19 937.651 z"/>
<path transform="translate(0,0)" fill="rgb(186,186,191)" d="M 1615.22 577.682 L 1617.58 578.901 L 1618.16 580.936 C 1616.04 584.732 1605.95 590.41 1601.97 592.906 C 1601.13 592.383 1600.19 591.399 1599.43 590.686 L 1599.74 588.663 C 1603.25 584.591 1610.45 580.638 1615.22 577.682 z"/>
<path transform="translate(0,0)" fill="rgb(186,186,191)" d="M 1554.93 628.542 L 1557.12 629.914 L 1557.55 631.909 C 1555.66 636.45 1548.74 643.527 1545.24 647.512 C 1543.88 646.763 1543.61 646.341 1542.45 645.284 C 1542.22 640.367 1551.42 632.172 1554.93 628.542 z"/>
<path transform="translate(0,0)" fill="rgb(186,186,191)" d="M 1682.03 554.352 C 1685.79 553.769 1686.43 553.396 1689.78 554.781 L 1688.79 556.805 C 1684 560.309 1681.18 560.301 1675.23 561.142 C 1672.23 562.002 1671.43 562.042 1669.2 560.879 C 1668.95 555.261 1678.07 554.808 1682.03 554.352 z"/>
<path transform="translate(0,0)" fill="rgb(186,186,191)" d="M 1650.4 561.958 C 1652.48 562.704 1651.5 562.229 1653.15 564.15 L 1652.36 566.11 C 1648.4 569.075 1641.33 571.58 1636.52 573.522 L 1634.55 573.158 C 1632.35 567.421 1645.6 563.87 1650.4 561.958 z"/>
<path transform="translate(0,0)" fill="rgb(186,186,191)" d="M 1725.5 748.952 C 1728.4 748.901 1727.04 748.6 1729.68 750.019 L 1729.15 752.104 C 1725.34 755.746 1720.92 757.688 1716.23 760.116 C 1712.97 760.236 1714.32 760.722 1711.92 759.149 L 1712.49 756.927 C 1716.34 753.366 1720.84 751.368 1725.5 748.952 z"/>
<path transform="translate(0,0)" fill="rgb(186,186,191)" d="M 1788.24 663.101 C 1797.23 665.151 1791.14 674.419 1788.6 679.791 C 1786.06 678.739 1786.21 678.857 1784.46 676.736 C 1783.98 672.652 1786.66 667.456 1788.24 663.101 z"/>
</svg>