<svg width="1448" height="1086" viewBox="0 0 1448 1086" fill="none" xmlns="http://www.w3.org/2000/svg">
<g clip-path="url(#clip0_55_495)">
<path d="M544.527 669.523C563.782 668.311 593.463 669.324 613.496 669.323L749.828 669.322L948.171 669.318C982.377 669.321 1016.82 668.489 1050.99 669.458C1054.57 669.559 1057.97 669.897 1061.28 671.423C1066.87 673.999 1071.94 680.327 1073.96 686.205C1076.48 693.551 1075.81 811.237 1075.24 825.95C1075.1 829.526 1075.25 835.208 1073.64 838.42C1072.23 841.239 1070.58 843.912 1068.39 846.155C1065.12 849.498 1060.96 851.742 1056.5 852.849C1045.97 855.464 1011.26 853.774 997.975 853.715L690.188 853.745L595.467 853.803C578.696 853.817 561.293 854.786 544.596 853.417C539.736 853.016 536.481 851.713 532.44 848.93C524.052 843.154 480.564 791.884 472.785 780.624C469.959 776.537 467.586 772.48 466.665 767.498C465.179 759.304 466.958 750.848 471.599 744.016C477.08 735.836 523.152 681.17 529.389 676.125C534.091 672.321 538.717 670.68 544.527 669.523Z" fill="#F8DA9E"/>
<path d="M544.393 672.405L545.235 672.361C556.605 671.802 570.099 672.131 581.649 672.135L646.847 672.179L841.791 672.175L983.169 672.192L1028.79 672.137C1055.41 672.111 1072.09 668.224 1072.38 702.694L1072.37 785.227C1072.38 800.326 1072.89 815.928 1071.76 830.838C1070.03 853.701 1046.18 850.86 1030.26 850.737C1019.3 850.649 1008.35 850.678 997.444 850.649L699.718 850.627L601.768 850.671C584.634 850.671 567.501 850.809 550.372 850.518C539.834 851.006 529.556 845.449 523.313 836.184C512.895 820.72 473.481 783.333 469.763 767.309C468.205 760.499 469.339 753.324 472.915 747.366C475.15 743.652 489.879 726.434 493.622 722.184C506.028 708.101 518.257 691.435 531.686 678.586C535.604 674.838 539.388 673.646 544.393 672.405Z" fill="#FCFDFC"/>
<path d="M624.351 716.477C648.49 713.253 670.609 730.759 673.806 755.619C677.004 780.478 660.072 803.312 635.951 806.677C611.733 810.057 589.458 792.525 586.248 767.571C583.038 742.61 600.115 719.713 624.351 716.477Z" fill="#F8DA9E"/>
<path d="M715.707 740.796C770.424 740.141 825.996 740.672 880.77 740.658L943.632 740.629C951.106 740.629 972.925 739.055 980.285 742.639C983.728 744.314 980.893 749.019 978.517 751.583C961.676 752.064 942.812 751.634 925.843 751.634H824.059H753.434C742.56 751.641 731.551 751.736 720.67 751.751C718.613 751.561 715.516 751.139 714.024 749.537C710.955 746.252 713.211 743.331 715.707 740.796Z" fill="#D2D8E1"/>
<path d="M715.749 774.301C766.125 772.983 817.236 774.884 867.662 774.236C874.428 774.156 874.704 780.201 870.186 785.001C855.43 785.358 721.257 786.392 714.766 784.003C711.344 780.441 712.511 777.608 715.749 774.301Z" fill="#D2D8E1"/>
<path d="M503.925 752.938C508.406 744.474 518.615 741.233 526.941 745.625C535.269 750.017 538.684 760.448 534.643 769.137C530.602 777.826 520.576 781.621 512.034 777.695C504.499 774.221 500.401 765.75 502.255 757.461C502.608 755.881 503.17 754.358 503.925 752.938Z" fill="#F8DA9E"/>
<path d="M509.511 755.422C514.097 750.411 521.093 747.883 526.46 753.317C528.678 755.604 529.862 758.743 529.721 761.977C529.602 764.942 528.41 767.811 526.233 769.793C523.868 771.949 520.743 772.997 517.598 772.699C517.166 772.648 516.734 772.597 516.301 772.546C509.456 769.407 508.495 766.617 508.09 759.384L509.511 755.422Z" fill="#FCFDFC"/>
<path d="M512.518 467.127C523.948 466.446 536.931 466.976 548.52 466.987L614.389 467.051L812.846 467.016L951.41 467.027L994.828 466.995C1007.55 466.993 1024.06 464.482 1033.59 474.079C1040.52 480.688 1041.24 488.612 1041.14 498.103C1040.63 542.512 1041.95 587.399 1040.47 631.724C1039.87 640.127 1030.44 649.706 1022.57 650.422C1003.37 652.167 981.883 651.298 962.623 651.223L658.26 651.21L562.141 651.256C549.985 651.268 505.162 653.816 497.426 646.072C476.279 624.905 457.135 600.492 438.012 577.294C430.524 568.21 430.516 550.502 438.002 541.49C457.078 518.525 475.88 494.26 496.736 473.068C499.843 469.912 508.329 467.85 512.518 467.127Z" fill="#7FD6AF"/>
<path d="M515.19 470.151C548.955 469.229 586.089 469.988 620.055 469.963L827.424 469.976L952.781 469.954C974.466 469.939 996.264 469.704 1017.95 470.255C1031.75 470.72 1038.18 482.641 1038.16 495.554C1038.1 535.901 1037.82 576.171 1038.17 616.509C1038.2 620.805 1038.37 625.193 1037.79 629.452C1034.8 651.511 1012.48 648.585 996.638 648.564L956.26 648.501L649.158 648.542L558.095 648.518C542.58 648.533 526.172 648.905 510.708 648.001C505.357 647.689 499.915 644.724 496.173 640.908C486.188 630.725 475.302 617.534 466.106 606.545C460.185 599.471 443.635 581.115 439.296 573.984C436.921 570.12 435.5 565.716 435.159 561.156C434.889 557.052 436.088 549.738 438.487 546.437C453.74 525.443 472.144 505.842 488.525 485.716C496.541 475.868 502.785 470.935 515.19 470.151Z" fill="#FCFDFC"/>
<path d="M592.363 514.038C616.704 512.14 637.915 530.967 639.694 556.049C641.472 581.131 623.142 602.933 598.79 604.7C574.528 606.461 553.459 587.661 551.687 562.672C549.915 537.681 568.11 515.928 592.363 514.038Z" fill="#CCF0DC"/>
<path d="M681.109 538.44C733.404 537.446 788.969 538.408 841.48 538.425L905.467 538.428C914.722 538.405 936.025 537.021 945.195 540.083C946.616 540.557 947.026 542.526 947.33 543.993C946.842 546.75 946.298 547.156 944.417 549.245C932.532 549.855 915.839 549.389 903.657 549.391L826.117 549.386L730.766 549.38C716.003 549.382 701.24 549.45 686.484 549.496C684.022 549.504 680.113 548.678 678.679 546.532C676.565 543.368 679.151 540.442 681.109 538.44Z" fill="#D2D8E1"/>
<path d="M681.07 571.961C728.546 571.29 776.193 572.246 823.684 571.835C827.439 571.802 834.382 571.416 837.429 573.577C839.925 577.495 838.779 579.764 835.478 582.724C804.913 583.281 773.655 582.629 743.047 582.875C733.092 582.955 683.843 583.808 679.688 581.433C676.938 577.705 678.088 575.103 681.07 571.961Z" fill="#D2D8E1"/>
<path d="M482.149 541.665C491.627 540.06 500.558 546.719 502.04 556.496C503.52 566.273 496.983 575.42 487.481 576.866C478.087 578.295 469.332 571.654 467.869 561.989C466.404 552.325 472.779 543.251 482.149 541.665Z" fill="#7FD6AF"/>
<path d="M481.067 548.817C486.714 546.598 493.041 549.506 495.208 555.32C497.376 561.132 494.568 567.656 488.931 569.903C483.274 572.158 476.915 569.253 474.74 563.421C472.565 557.588 475.4 551.045 481.067 548.817Z" fill="#FCFDFC"/>
<path d="M478.124 265.287C479.511 265.148 481.988 265.067 483.438 265.06C519.111 264.89 554.941 265.025 590.604 265.028L801.59 265.004L923.906 264.996L962.856 264.94C974.975 264.93 991.519 262.607 1000.54 271.879C1006.55 278.057 1007.71 284.077 1007.69 292.567C1007.6 322.079 1007.52 351.563 1007.62 381.072C1007.6 390.902 1008.3 421.728 1007.07 429.51C1006.38 434.042 1004.3 438.23 1001.15 441.467C997.748 444.913 993.485 447.31 988.833 448.388C981.402 450.177 938.662 449.332 928.862 449.302L627.311 449.301L530.469 449.324C513.798 449.34 497.197 449.524 480.458 449.104C464.281 448.699 454.751 434.273 445.005 422.875C439.595 416.548 432.937 409.125 427.942 402.633C419.066 391.097 402.34 376.835 399.802 362.065C398.484 354.27 400.283 346.258 404.79 339.85C406.723 337.103 409.213 334.064 411.446 331.513C428.554 311.967 444.338 290.586 462.629 272.273C466.783 268.114 472.568 266.256 478.124 265.287Z" fill="#809CC4"/>
<path d="M477.215 268.134L477.848 268.086C486.748 267.469 498.944 267.812 508.175 267.797L564.511 267.787L738.042 267.782L905.509 267.768L958.338 267.807C970.535 267.82 989.815 265.128 998.83 274.165C1004.56 279.91 1005.11 287.843 1005.09 295.613C1004.95 339.714 1005.62 383.923 1004.63 427.99C1003.82 435.585 994.849 444.975 987.73 445.65C969.757 447.353 949.635 446.453 931.598 446.382L633.767 446.387L535.204 446.403C517.816 446.402 500.46 446.494 483.059 446.218C473.926 446.407 467.403 443.637 460.974 436.723C449.756 424.309 438.584 411.312 428.008 398.307C420.169 388.667 406.485 375.948 403.179 364.178C401.291 357.496 402.132 350.31 405.508 344.282C410.316 335.664 456.745 281.056 464.8 274.305C468.776 270.972 472.3 269.488 477.215 268.134Z" fill="#FCFDFC"/>
<path d="M555.971 312.257C580.178 308.217 602.948 325.259 606.699 350.224C610.451 375.19 593.749 398.526 569.488 402.216C545.469 405.868 523.089 388.868 519.375 364.15C515.66 339.432 532.003 316.258 555.971 312.257Z" fill="#D2D8E1"/>
<path d="M686.558 336.129L861.864 336.21C871.84 336.286 881.866 335.971 891.828 336.063C897.364 336.114 912.912 334.456 915.16 340.322C914.446 343.908 910.359 347.57 906.994 347.517C896.296 347.347 885.613 347.291 874.895 347.281L729.769 347.221C704.581 347.237 679.386 347.279 654.203 347.143C650.03 347.121 645.865 346.947 644.902 342.18C645.33 340.58 645.469 339.891 646.614 338.659C647.854 337.324 649.47 336.426 651.234 336.09C656.553 335.135 679.348 336.19 686.558 336.129Z" fill="#D2D8E1"/>
<path d="M647.948 370.076C675.644 368.954 710.354 369.878 738.388 369.867L778.844 369.864C783.992 369.866 801.25 369.027 804.729 371.376C807.472 375.349 805.846 377.765 802.537 380.559C796.527 381.219 786.261 380.927 779.855 380.93L739.717 380.933L683.79 380.959C673.355 380.978 662.9 381.058 652.467 380.897C649.465 380.852 646.327 380.098 645.386 376.737C644.588 373.884 646.193 372.019 647.948 370.076Z" fill="#D2D8E1"/>
<path d="M447.933 339.818C454.017 338.256 460.446 340.203 464.744 344.906C469.042 349.611 470.538 356.339 468.656 362.502C466.775 368.664 461.809 373.298 455.672 374.621C446.428 376.614 437.337 370.615 435.228 361.131C433.12 351.648 438.769 342.17 447.933 339.818Z" fill="#809CC4"/>
<path d="M448.973 346.289C452.777 345.128 456.893 346.164 459.75 349C462.606 351.836 463.762 356.035 462.775 359.994C461.789 363.953 458.813 367.059 454.984 368.129C449.159 369.754 443.149 366.25 441.503 360.269C439.856 354.287 443.187 348.055 448.973 346.289Z" fill="#FCFDFC"/>
<path d="M277.169 595.958C302.692 613.365 318.535 667.181 321.501 697.108C325.188 697.762 332.022 699.606 335.051 701.688C351.634 686.782 373.776 673.436 396.284 673.078C400.525 696.301 389.13 726.452 376.212 745.56C358.994 771.016 341.24 784.134 314.276 796.356C311.637 796.626 310.622 796.997 308.354 795.752C303.151 796.465 296.805 796.079 292.602 796.786L290.038 796.014L288.855 796.291C287.319 796.502 286.184 796.422 284.643 796.407C276.722 795.723 268.319 796.567 259.301 795.686C256.756 796.99 252.772 796.087 249.775 795.752C234.987 791.061 222.543 785.409 209.769 776.137C188.102 760.681 171.423 738.895 161.883 713.589C159.965 708.371 155.85 699.971 159.192 695.119C162.049 693.395 171.853 692.512 175.302 692.73C208.484 694.832 232.037 710.676 254.181 733.702C249.303 715.997 247.208 689.996 248.902 671.695C251.051 648.488 259.145 611.416 277.169 595.958Z" fill="#CCF0DC"/>
<path d="M292.602 796.786C295.109 762.312 305.817 739.048 328.12 713.076C344.032 694.545 370.057 677.455 394.494 676.248C395.478 702.496 384.662 729.645 369.31 750.221C352.671 772.524 333.228 785.292 308.354 795.752C303.151 796.466 296.805 796.08 292.602 796.786Z" fill="#CCF0DC"/>
<path d="M159.996 697.182C185.509 692.232 209.08 701.752 230.257 715.982C237.654 720.952 253.022 734.969 256.35 742.872C259.204 749.646 260.767 757.192 264.608 764.993C270.514 776.982 276.63 785.649 284.643 796.407C276.722 795.723 268.319 796.568 259.301 795.686C253.711 793.924 248.204 792.088 242.669 790.151C203.046 776.239 169.168 739.828 159.996 697.182Z" fill="#CCF0DC"/>
<path d="M277.169 595.958C302.692 613.365 318.535 667.181 321.501 697.108C325.188 697.762 332.022 699.606 335.051 701.688C351.634 686.782 373.776 673.436 396.284 673.078C400.525 696.301 389.13 726.452 376.212 745.56C358.994 771.016 341.24 784.134 314.276 796.356C311.637 796.626 310.622 796.997 308.354 795.752C333.228 785.292 352.671 772.524 369.31 750.221C384.663 729.645 395.478 702.496 394.494 676.248C370.057 677.455 344.032 694.545 328.12 713.076C305.817 739.048 295.109 762.312 292.602 796.786L290.038 796.014C289.759 767.826 302.762 741.758 318.698 719.703C318.821 715.292 318.877 710.88 318.868 706.468C318.658 669.616 303.151 625.58 277.458 599.375C259.442 617.545 251.157 659.133 251.039 684.244C250.855 723.378 261.942 767.535 288.855 796.291C287.319 796.502 286.184 796.422 284.643 796.407C276.63 785.649 270.514 776.982 264.608 764.993C260.767 757.192 259.204 749.646 256.35 742.872C253.022 734.969 237.654 720.952 230.257 715.981C209.08 701.752 185.509 692.231 159.996 697.182C169.168 739.827 203.046 776.239 242.669 790.15C248.204 792.088 253.711 793.923 259.301 795.686C256.756 796.99 252.772 796.087 249.775 795.752C234.987 791.061 222.543 785.409 209.769 776.137C188.102 760.681 171.423 738.895 161.883 713.589C159.965 708.371 155.85 699.971 159.192 695.119C162.049 693.395 171.853 692.512 175.302 692.73C208.484 694.832 232.037 710.676 254.181 733.702C249.303 715.997 247.208 689.996 248.902 671.695C251.051 648.488 259.145 611.416 277.169 595.958Z" fill="#7FD6AF"/>
<path d="M321.501 697.109C325.188 697.762 332.022 699.606 335.051 701.689L329 707.485L321.864 715.539L321.651 703.294L321.501 697.109Z" fill="#FCFDFC"/>
<path d="M249.775 795.752C252.772 796.087 256.756 796.99 259.301 795.686C268.319 796.568 276.722 795.723 284.643 796.407C286.184 796.422 287.319 796.502 288.855 796.291L290.038 796.014L292.602 796.786C296.805 796.08 303.151 796.466 308.354 795.752C310.622 796.997 311.637 796.626 314.276 796.356C324.737 796.866 347.331 793.727 355.211 801.375C358.253 804.325 359.789 811.718 358.874 815.695C353.11 849.513 348.052 883.87 341.027 917.39C339.944 922.561 332.078 929.342 327.825 931.935C325.49 932.838 319.934 934.834 318.085 936.029C298.41 936.611 273.555 936.48 253.881 935.956C251.531 934.499 246.648 932.889 243.959 931.957C234.597 925.904 230.344 919.589 228.745 908.336C225.841 887.883 222.72 867.445 219.754 847.007C218.929 836.169 215.25 824.056 215.261 813.233C215.283 790.522 238.627 797.784 249.775 795.752Z" fill="#BABABF"/>
<path d="M229.486 799.357C245.003 798.818 344.495 798.265 348.885 800.486C351.979 802.059 354.74 805.803 355.709 809.168C356.604 812.271 356.465 815.767 356.102 818.958C354.919 829.351 352.075 839.694 350.389 850.037L344.019 886.922C342.171 897.891 341.043 911.643 335.602 921.141C331.697 926.21 326.256 929.794 320.147 931.316C310.908 933.683 268.155 932.052 256.16 932.132C251.792 931.622 247.054 930.092 243.382 927.791C232.149 920.747 231.58 908.576 230.064 896.471C226.591 868.764 221.277 841.173 218.473 813.407C217.755 806.299 223.079 800.843 229.486 799.357Z" fill="#FCFDFC"/>
<path d="M318.085 936.028C319.934 934.834 325.49 932.838 327.825 931.935L328.593 932.015C341.452 933.275 369.357 932.401 383.43 932.372L483.458 932.35L988.005 932.365L1153.01 932.387C1178.7 932.379 1204.51 932.503 1230.21 932.205C1232.16 932.183 1234.05 932.882 1235.45 934.331L1235.07 935.213C1229.52 937.048 1210.98 936.065 1203.85 936.065L1149.02 936.167L941.773 936.116L527.291 936.072L392.252 936.116C367.888 936.13 342.345 936.589 318.085 936.028Z" fill="#D2D8E1"/>
<path d="M1163.75 149.164C1167.78 150.372 1172.26 167.124 1173.34 171.329C1176.34 182.993 1198.68 183.404 1201.56 190.59C1194.19 195.528 1185.25 196.395 1175.91 203.69L1175.12 204.306C1170.53 215.275 1169.56 220.938 1165.99 231.437C1164.96 231.231 1164.24 230.942 1163.26 230.601C1161.54 228.324 1156.02 209.788 1153.34 203.827C1145.29 197.942 1139.12 195.921 1130.1 192.341C1128.67 191.776 1128.55 190.92 1128.21 189.587C1130.89 184.667 1146.36 182.189 1151.7 176.969C1157.71 171.08 1159.37 153.945 1163.75 149.164Z" fill="#809CC4"/>
<path d="M1164.13 155.675C1168.14 161.182 1168.47 169.517 1170.55 174.313C1174.05 182.416 1188.72 187.006 1196.52 189.748C1172.51 198.654 1171.98 199.574 1164.66 224.319C1162.25 222.064 1160.6 210.744 1159.18 207.519C1154.72 197.333 1141.93 193.14 1132.51 189.706C1156.09 181.259 1156.67 179.897 1164.13 155.675Z" fill="#D2D8E1"/>
<path d="M242.286 347.726L244.351 348.179C247.035 350.71 248.607 359.657 250.323 363.67C251.98 367.546 253.162 370.379 255.283 374.108C259.679 376.953 264.351 379.318 269.223 381.164C271.881 382.152 277.121 383.258 278.563 385.499C275.675 391.389 258.955 394.711 253.942 400.773C248.794 406.996 247.858 421.704 244.576 427.903C238.439 426.538 238.335 407.629 233.228 400.875C227.844 393.755 210.826 390.643 207.967 385.769C212.426 381.159 227.615 378.966 232.163 373.654C237.869 366.99 238.995 356.028 242.286 347.726Z" fill="#7FD6AF"/>
<path d="M243.563 354.793C245.34 357.829 248.133 367.733 250.707 372.229C255.764 381.065 264.751 383.241 273.84 386.085C252.408 394.519 249.779 397.749 243.683 419.792C241.3 417.439 239.703 406.551 237.905 402.743C233.692 393.822 222.279 389.491 213.873 386.14C234.074 379.423 237.241 375.682 243.563 354.793Z" fill="#CCF0DC"/>
<path d="M243.959 931.957C246.648 932.889 251.531 934.499 253.881 935.956C243.616 936.422 203.682 937.587 196.533 934.382L196.715 932.926C210.668 930.675 229.397 933.844 243.959 931.957Z" fill="#D2D8E1"/>
<path d="M1296.09 509.632C1299.03 511.633 1306.3 520.891 1307.58 524.471C1308.16 526.078 1307.43 526.548 1306.56 528.1C1303.44 525.452 1296.01 516.755 1294.55 512.494C1294.22 511.542 1295.27 510.703 1296.09 509.632Z" fill="#BABABF"/>
<path d="M1320.65 570.099C1322.18 570.688 1322.06 570.674 1323.15 571.947C1324.17 577.03 1325.39 586.534 1323.16 591.103L1321.38 590.428C1319.43 587.847 1318.87 572.991 1320.65 570.099Z" fill="#BABABF"/>
<path d="M1312.23 537.755C1313.71 538.11 1314.77 538.035 1315.54 539.329C1317.93 543.349 1321.13 553.163 1320.51 557.73C1319.65 557.527 1318.18 557.359 1317.74 556.534C1315.76 552.769 1311.68 541.733 1312.23 537.755Z" fill="#BABABF"/>
<path d="M1267.45 453.25C1268.63 453.479 1270.26 453.668 1270.66 454.896C1272.27 459.786 1271.66 468.636 1269.88 473.232L1267.87 472.26C1266.3 469.588 1267.23 457.213 1267.45 453.25Z" fill="#BABABF"/>
<path d="M1269.33 491.324C1273.19 493.04 1281.82 496.824 1284.27 500.408C1284.92 501.364 1284.44 502.284 1284.18 503.719C1281.03 502.334 1270.92 497.527 1268.9 494.54C1268.34 493.712 1268.97 492.573 1269.33 491.324Z" fill="#BABABF"/>
<path d="M1174.32 529.011C1175.62 529.554 1175.46 529.555 1176.63 530.417C1177.14 532.738 1177.75 545.317 1176.34 547.836C1170.72 544.912 1171.61 533.548 1174.32 529.011Z" fill="#BABABF"/>
<path d="M1207.47 402.182C1212.42 402.302 1220.36 401.609 1223.81 404.98L1223.76 407.384C1219.61 407.144 1209.47 407.529 1207.17 404.642L1207.47 402.182Z" fill="#BABABF"/>
<path d="M1319.77 602.646C1321.05 603.201 1322.03 603.262 1322.3 604.33C1323.41 608.714 1320.18 617.154 1318.66 621.056L1316.51 620.308C1315.23 616.777 1318.53 606.584 1319.77 602.646Z" fill="#BABABF"/>
<path d="M1311.77 631.701C1312.67 632.265 1314.05 632.823 1314.18 633.684C1314.82 637.812 1309.58 646.115 1307.71 649.464C1305.9 648.573 1306.61 649.208 1305.5 647.472C1305.83 643.539 1309.92 635.628 1311.77 631.701Z" fill="#BABABF"/>
<path d="M1259.02 425.005C1263.64 426.592 1268.59 437.543 1267.8 441.955L1266.17 441.964C1263.2 440.533 1258.15 428.928 1259.02 425.005Z" fill="#BABABF"/>
<path d="M1257.91 502.37C1259.77 504.049 1259.21 503.041 1259.72 505.45C1258.2 510.95 1254.68 515.196 1251.39 519.782L1249.68 518.294C1249.06 514.928 1255.81 505.697 1257.91 502.37Z" fill="#BABABF"/>
<path d="M1119.97 436.737L1121.63 437.959L1121.79 439.485C1120.09 442.832 1114.11 447.887 1111.21 450.608C1109.95 450.187 1110.16 450.195 1109.02 449.427L1108.99 447.79C1111.07 444.281 1116.83 439.613 1119.97 436.737Z" fill="#BABABF"/>
<path d="M1244.01 486.855C1244.9 486.892 1246.31 487.141 1247.23 487.269L1248.27 488.835L1247.87 490.09C1245.4 491.473 1239.15 491.251 1236.06 491.324C1234 491.737 1234.09 491.691 1231.99 491.275L1231.44 490.096L1232.41 488.816C1236.51 486.591 1239.33 486.921 1244.01 486.855Z" fill="#BABABF"/>
<path d="M1240.92 527.704C1242.51 528.419 1241.8 527.898 1242.9 529.548C1242.44 533.284 1235.78 538.703 1232.86 541.399L1231 540.714L1230.4 539.364C1231.51 536.195 1238.13 530.386 1240.92 527.704Z" fill="#BABABF"/>
<path d="M1236.04 407.617C1240.01 407.797 1248.27 411.666 1250.84 415.082C1251.61 416.103 1251.16 416.703 1250.95 417.995C1247.97 417.92 1239.26 412.95 1236.7 410.715C1235.76 409.889 1236.07 409.22 1236.04 407.617Z" fill="#BABABF"/>
<path d="M1184.34 552.61C1188.82 553.491 1197.12 553.555 1199.74 555.762L1199.64 558.352C1196 558.495 1188.43 559.129 1185.49 556.602C1184 555.317 1184.42 554.724 1184.34 552.61Z" fill="#BABABF"/>
<path d="M1298.7 658.862L1300.37 660.244C1300.7 664.69 1294.96 671.224 1292.26 674.752C1290.06 674.061 1290.76 674.74 1289.82 672.989C1290.65 669.311 1296.23 662.266 1298.7 658.862Z" fill="#BABABF"/>
<path d="M1215.05 491.539C1216.4 491.514 1216.4 491.698 1217.57 492.479L1217.47 493.735C1215.28 496.025 1208.32 499.025 1205.21 500.552C1203.78 500.814 1203.81 500.658 1202.46 500V498.84C1203.93 495.684 1211.65 492.952 1215.05 491.539Z" fill="#BABABF"/>
<path d="M1190.07 505.782C1191.09 506.008 1191.31 506.273 1192.26 506.826L1192.5 508.296C1191.04 510.99 1185.21 516.811 1182.73 519.728C1181.72 519.396 1181.67 519.2 1180.76 518.524L1180.72 516.884C1182.71 513.312 1187.18 508.888 1190.07 505.782Z" fill="#BABABF"/>
<path d="M1280.57 682.957C1282.41 683.701 1281.68 683.125 1282.87 684.723C1282.26 688.487 1275.79 693.829 1272.85 696.571C1271.11 695.051 1271.6 695.966 1271.09 693.894C1272.66 690.546 1277.85 685.77 1280.57 682.957Z" fill="#BABABF"/>
<path d="M1142.01 420.766L1143.68 421.654L1144.09 423.136C1142.59 425.901 1135.46 430.037 1132.64 431.855C1132.05 431.474 1131.38 430.757 1130.85 430.238L1131.07 428.765C1133.55 425.799 1138.64 422.919 1142.01 420.766Z" fill="#BABABF"/>
<path d="M1099.38 457.811L1100.93 458.811L1101.24 460.264C1099.9 463.571 1095.01 468.726 1092.53 471.628C1091.57 471.083 1091.38 470.776 1090.56 470.006C1090.4 466.424 1096.9 460.455 1099.38 457.811Z" fill="#BABABF"/>
<path d="M1189.25 403.773C1191.91 403.349 1192.36 403.077 1194.73 404.086L1194.03 405.56C1190.64 408.112 1188.65 408.107 1184.44 408.719C1182.32 409.346 1181.75 409.375 1180.18 408.528C1180 404.436 1186.45 404.106 1189.25 403.773Z" fill="#BABABF"/>
<path d="M1166.88 409.313C1168.35 409.857 1167.66 409.511 1168.83 410.91L1168.27 412.338C1165.47 414.497 1160.47 416.322 1157.07 417.736L1155.68 417.471C1154.12 413.293 1163.49 410.706 1166.88 409.313Z" fill="#BABABF"/>
<path d="M1219.98 545.514C1222.03 545.477 1221.07 545.258 1222.94 546.292L1222.56 547.81C1219.87 550.463 1216.74 551.877 1213.43 553.646C1211.12 553.733 1212.08 554.087 1210.38 552.942L1210.78 551.323C1213.51 548.729 1216.69 547.274 1219.98 545.514Z" fill="#BABABF"/>
<path d="M1264.34 482.983C1270.7 484.476 1266.39 491.227 1264.6 495.139C1262.8 494.373 1262.91 494.459 1261.67 492.914C1261.33 489.94 1263.22 486.155 1264.34 482.983Z" fill="#BABABF"/>
</g>
<defs>
<clipPath id="clip0_55_495">
<rect width="1448" height="1086" fill="white"/>
</clipPath>
</defs>
</svg>
