<svg xmlns="http://www.w3.org/2000/svg" viewBox="0 0 1254 1254" width="240" height="240" fill="none">

  <!-- top tag -->
  <g stroke="#71809f" stroke-width="15" stroke-linejoin="round">
    <path d="M365 360L445 280H875Q900 280 900 305V445Q900 470 875 470H445Z"
          fill="#ffffff"/>
    <path d="M390 505L470 425H900Q925 425 925 450V590Q925 615 900 615H470Z"
          fill="#ffffff"/>
    <path d="M415 650L495 570H925Q950 570 950 595V735Q950 760 925 760H495Z"
          fill="#ffffff"/>
  </g>

  <!-- tag holes -->
  <g fill="#f7f9fd" stroke="#71809f" stroke-width="10">
    <circle cx="430" cy="375" r="20"/>
    <circle cx="455" cy="520" r="20"/>
    <circle cx="480" cy="665" r="20"/>
  </g>

  <!-- tag content -->
  <g stroke="#dbe2ef" stroke-width="15" stroke-linecap="round">
    <path d="M505 365H795"/><path d="M505 400H720"/>
    <path d="M530 510H820"/><path d="M530 545H745"/>
    <path d="M555 655H845"/><path d="M555 690H770"/>
  </g>

  <!-- empty badge -->
  <circle cx="880" cy="785" r="78" fill="#eef3ff"/>
  <circle cx="880" cy="785" r="59" fill="#dbe4f7"/>
  <path d="M846 785H914" stroke="#71809f" stroke-width="14" stroke-linecap="round"/>

  <g stroke="#aab9dd" stroke-width="13" stroke-linecap="round">
    <path d="M310 405L276 374"/>
    <path d="M292 518L244 520"/>
    <path d="M944 405L978 374"/>
    <path d="M962 518L1010 520"/>
  </g>

</svg>
