<svg version="1.1" xmlns="http://www.w3.org/2000/svg" style="display: block;" viewBox="0 0 2048 1536" width="1448" height="1086" preserveAspectRatio="none">
<defs>
	<linearGradient id="Gradient1" gradientUnits="userSpaceOnUse" x1="1103.54" y1="364.109" x2="1106.29" y2="493.143">
		<stop class="stop0" offset="0" stop-opacity="1" stop-color="rgb(122,133,152)"/>
		<stop class="stop1" offset="1" stop-opacity="1" stop-color="rgb(133,155,186)"/>
	</linearGradient>
</defs>
<path transform="translate(0,0)" fill="rgb(253,254,254)" d="M 0 0 L 2048 0 L 2048 1536 L 0 1536 L 0 0 z"/>
<path transform="translate(0,0)" fill="rgb(253,254,254)" d="M 882.562 430.726 C 889.82 354.541 976.888 347.793 989.346 430.528 C 1020.77 431.342 1052.75 430.649 1084.25 430.789 C 1091.1 348.841 1185.67 354.791 1190.38 430.634 C 1221.76 430.93 1253.15 430.981 1284.54 430.788 C 1289.42 351.932 1385.43 351.615 1390.43 430.83 L 1458.76 430.732 C 1474.86 430.716 1505.47 428.364 1518.04 439.319 C 1534.16 450.706 1536.29 462.727 1538.8 481.38 C 1541.68 502.871 1542.89 525.558 1546.44 546.846 C 1554.14 598.606 1559.85 658.121 1566.03 710.667 L 1601.52 1016.21 L 1620.34 1178.04 C 1623.67 1205.98 1627.61 1234.04 1629.77 1262.07 C 1630.99 1277.99 1622.57 1291.2 1609.05 1298.98 C 1606.26 1300.35 1597.54 1303.62 1596.61 1304.35 L 820.629 1302.81 C 734.169 1302.62 645.127 1303.23 558.802 1301.91 C 557.093 1300.86 547.748 1297.69 545.192 1296.79 C 528.959 1288.41 522.061 1272.66 522.884 1255.04 C 523.797 1235.47 525.271 1216.11 526.68 1196.57 L 533.709 1095.22 L 556.137 769.637 L 567.966 596.949 C 568.862 585.244 570.23 548.057 571.908 539.489 C 572.653 519.7 573.856 499.693 574.858 479.782 C 576.593 445.322 597.145 430.086 630.504 430.751 C 647.684 431.093 666.811 430.745 684.2 430.787 L 685.359 419.076 C 690.202 401.947 697.823 386.237 714.123 377.26 C 725.398 371.095 738.671 369.698 750.982 373.381 C 776.359 380.937 788.717 405.868 790.564 430.694 C 821.229 430.889 851.896 430.9 882.562 430.726 z"/>
<path transform="translate(0,0)" fill="rgb(214,229,243)" d="M 882.562 430.726 C 889.82 354.541 976.888 347.793 989.346 430.528 C 1020.77 431.342 1052.75 430.649 1084.25 430.789 C 1091.1 348.841 1185.67 354.791 1190.38 430.634 C 1221.76 430.93 1253.15 430.981 1284.54 430.788 C 1289.42 351.932 1385.43 351.615 1390.43 430.83 L 1458.76 430.732 C 1474.86 430.716 1505.47 428.364 1518.04 439.319 C 1534.16 450.706 1536.29 462.727 1538.8 481.38 C 1541.68 502.871 1542.89 525.558 1546.44 546.846 C 1546.24 548.165 1545.95 552.386 1545.04 552.464 C 1523.63 554.299 1484.86 553.124 1464.95 553.085 L 1306.44 553.065 L 771.211 553.091 L 649.348 553.188 C 636.666 553.151 596.165 552.276 585.976 553.859 C 582.261 553.905 578.317 554.112 574.579 554.245 L 573.078 553.444 C 571.203 550.201 571.883 543.804 571.908 539.489 C 572.653 519.7 573.856 499.693 574.858 479.782 C 576.593 445.322 597.145 430.086 630.504 430.751 C 647.684 431.093 666.811 430.745 684.2 430.787 L 685.359 419.076 C 690.202 401.947 697.823 386.237 714.123 377.26 C 725.398 371.095 738.671 369.698 750.982 373.381 C 776.359 380.937 788.717 405.868 790.564 430.694 C 821.229 430.889 851.896 430.9 882.562 430.726 z"/>
<path transform="translate(0,0)" fill="url(#Gradient1)" d="M 882.562 430.726 C 889.82 354.541 976.888 347.793 989.346 430.528 C 1020.77 431.342 1052.75 430.649 1084.25 430.789 C 1091.1 348.841 1185.67 354.791 1190.38 430.634 C 1221.76 430.93 1253.15 430.981 1284.54 430.788 C 1289.42 351.932 1385.43 351.615 1390.43 430.83 L 1458.76 430.732 C 1474.86 430.716 1505.47 428.364 1518.04 439.319 C 1519.82 441.85 1521.46 444.096 1523.36 446.534 L 1522.19 447.201 C 1521.61 446.968 1519.38 446.025 1518.93 445.963 C 1497.73 430.217 1478.13 433.964 1452.88 434.043 L 1384.6 434.311 L 1384.21 430.787 L 1302.06 430.84 L 1301.99 434.427 C 1301.93 445.187 1302.82 449.652 1307.22 459.886 C 1308.45 462.748 1310.35 465.261 1311.3 468.081 L 1318.97 476.412 C 1317.45 480.172 1317.04 481.766 1314.13 484.652 C 1308.06 486.184 1305.34 481.323 1301.4 477.023 C 1302.7 480.606 1303.21 481.136 1302.12 484.536 L 1299.31 484.961 L 1300.26 485.937 L 1298.18 483.835 C 1298.11 478.246 1290.31 465.997 1288.09 458.526 C 1284.99 448.113 1284.89 444.964 1284.44 434.296 C 1262.77 433.542 1237.65 434.147 1215.71 434.196 L 1101.66 434.186 C 1102.03 445.775 1103.96 458.671 1111.06 468.316 C 1136.96 465.542 1121.48 508.31 1102.84 493.321 C 1096.61 488.309 1099.37 483.479 1096.81 478.707 C 1088.09 462.502 1084.72 452.379 1084.03 434.126 C 1064.71 434.117 906.499 435.745 900.137 433.143 C 900.35 443.699 902.715 458.6 909.268 467.201 C 912.258 471.055 913.667 472.85 917.213 476.273 C 914.953 480.991 913.65 483.3 909.444 486.846 C 905.644 483.221 902.791 480.113 899.283 476.203 C 900.044 488.411 903.26 480.308 908.295 488.905 C 908.596 489.418 908.531 490.304 908.523 490.915 C 905.999 489.888 903.298 489.438 900.639 488.888 C 898.953 485.241 898.023 483.626 897.451 479.55 L 896.326 479.132 C 886.18 466.186 883.201 450.299 882.612 434.34 C 864.937 433.544 842.284 434.176 824.411 434.264 C 798.699 434.39 772.985 434.335 747.273 434.1 C 737.363 434.085 709.201 435.143 700.977 434 C 702.179 448.398 702.981 454.359 710.383 467.422 C 712.232 470.085 716.434 474.088 718.847 476.541 C 717.507 478.937 716.184 481.118 714.745 483.456 C 710.4 485.89 706.625 485.127 703.594 480.892 C 691.823 464.451 686.817 445.332 688.722 425.235 C 687.83 421.73 687.846 421.558 685.359 419.076 C 690.202 401.947 697.823 386.237 714.123 377.26 C 725.398 371.095 738.671 369.698 750.982 373.381 C 776.359 380.937 788.717 405.868 790.564 430.694 C 821.229 430.889 851.896 430.9 882.562 430.726 z"/>
<path transform="translate(0,0)" fill="rgb(253,254,254)" d="M 688.722 425.235 C 704.171 350.421 782.544 365.703 786.167 430.186 C 777.82 431.327 761.453 431.012 752.389 430.974 C 735.501 430.925 718.614 430.77 701.729 430.509 L 700.977 434 C 702.179 448.398 702.981 454.359 710.383 467.422 C 712.232 470.085 716.434 474.088 718.847 476.541 C 717.507 478.937 716.184 481.118 714.745 483.456 C 710.4 485.89 706.625 485.127 703.594 480.892 C 691.823 464.451 686.817 445.332 688.722 425.235 z"/>
<path transform="translate(0,0)" fill="rgb(240,241,243)" d="M 701.729 430.509 C 701.813 423.434 706.474 412.115 709.864 405.755 C 718.1 390.305 738.425 384.695 753.276 394.343 C 765.365 402.197 770.141 415.809 773.029 429.582 C 778.19 429.469 781.03 429.679 786.167 430.186 C 777.82 431.327 761.453 431.012 752.389 430.974 C 735.501 430.925 718.614 430.77 701.729 430.509 z"/>
<path transform="translate(0,0)" fill="rgb(240,241,243)" d="M 899.283 476.203 C 884.065 450.39 880.15 414.855 901.446 392.193 C 937.121 354.23 981.76 385.124 984.333 430.558 C 962.336 431.312 921.272 429.093 901.68 431.213 L 900.137 433.143 C 900.35 443.699 902.715 458.6 909.268 467.201 C 912.258 471.055 913.667 472.85 917.213 476.273 C 914.953 480.991 913.65 483.3 909.444 486.846 C 905.644 483.221 902.791 480.113 899.283 476.203 z"/>
<path transform="translate(0,0)" fill="rgb(253,254,254)" d="M 1301.4 477.023 C 1286.18 450.392 1282.04 420.477 1301.57 394.163 C 1317.1 373.231 1345.48 369.001 1365.6 386.019 C 1379.22 397.536 1384.54 412.287 1386.37 429.788 L 1384.21 430.787 L 1302.06 430.84 L 1301.99 434.427 C 1301.93 445.187 1302.82 449.652 1307.22 459.886 C 1308.45 462.748 1310.35 465.261 1311.3 468.081 L 1318.97 476.412 C 1317.45 480.172 1317.04 481.766 1314.13 484.652 C 1308.06 486.184 1305.34 481.323 1301.4 477.023 z"/>
<path transform="translate(0,0)" fill="rgb(240,241,243)" d="M 1302.06 430.84 C 1304.99 421.792 1303.51 417.362 1308.78 407.762 C 1318.32 390.405 1334.68 383.399 1352.61 393.852 C 1365.08 401.119 1370.79 415.824 1374.04 429.506 C 1378.06 429.482 1382.33 429.677 1386.37 429.788 L 1384.21 430.787 L 1302.06 430.84 z"/>
<path transform="translate(0,0)" fill="rgb(253,254,254)" d="M 1100.63 475.702 C 1085.69 449.686 1082.38 420.261 1100.9 394.66 C 1116.1 373.666 1144.15 368.799 1164.55 385.358 C 1178.91 397.023 1184.03 412.233 1186.1 430.206 C 1178.17 431.394 1168.45 430.742 1160.27 430.946 C 1141.19 431.42 1120.34 430.173 1101.43 430.861 L 1101.66 434.186 C 1102.03 445.775 1103.96 458.671 1111.06 468.316 C 1113.65 471.002 1116.4 473.986 1119.17 476.464 C 1117.22 480.147 1116.33 482.823 1112.86 484.988 C 1106.68 485.041 1104.36 480.289 1100.63 475.702 z"/>
<path transform="translate(0,0)" fill="rgb(240,241,243)" d="M 1101.43 430.861 C 1103.22 414.942 1111.55 396.371 1127.96 391.046 C 1135.59 388.574 1143.9 389.366 1150.93 393.235 C 1165.12 400.92 1170.06 415.156 1174.31 429.522 C 1178.75 429.427 1181.75 429.76 1186.1 430.206 C 1178.17 431.394 1168.45 430.742 1160.27 430.946 C 1141.19 431.42 1120.34 430.173 1101.43 430.861 z"/>
<path transform="translate(0,0)" fill="rgb(161,168,179)" d="M 1119.17 476.464 C 1129.19 488.19 1098.39 505.055 1100.63 475.702 C 1104.36 480.289 1106.68 485.041 1112.86 484.988 C 1116.33 482.823 1117.22 480.147 1119.17 476.464 z"/>
<path transform="translate(0,0)" fill="rgb(129,151,183)" d="M 685.359 419.076 C 687.846 421.558 687.83 421.73 688.722 425.235 C 686.817 445.332 691.823 464.451 703.594 480.892 C 706.625 485.127 710.4 485.89 714.745 483.456 C 716.184 481.118 717.507 478.937 718.847 476.541 C 716.434 474.088 712.232 470.085 710.383 467.422 C 738.311 471.394 720.024 506.087 702.62 492.955 C 697.434 490.068 699.226 482.799 697.693 480.147 C 687.949 463.288 685.059 453.66 684.069 434.196 C 645.184 434.02 581.814 423.327 578.954 476.749 C 577.651 501.07 576.45 525.506 575.298 549.84 L 1524.85 549.886 C 1525.78 524.138 1531.94 489.482 1528.89 463.963 C 1528.32 459.213 1521.75 449.964 1518.93 445.963 C 1519.38 446.025 1521.61 446.968 1522.19 447.201 L 1523.36 446.534 C 1521.46 444.096 1519.82 441.85 1518.04 439.319 C 1534.16 450.706 1536.29 462.727 1538.8 481.38 C 1541.68 502.871 1542.89 525.558 1546.44 546.846 C 1546.24 548.165 1545.95 552.386 1545.04 552.464 C 1523.63 554.299 1484.86 553.124 1464.95 553.085 L 1306.44 553.065 L 771.211 553.091 L 649.348 553.188 C 636.666 553.151 596.165 552.276 585.976 553.859 C 582.261 553.905 578.317 554.112 574.579 554.245 L 573.078 553.444 C 571.203 550.201 571.883 543.804 571.908 539.489 C 572.653 519.7 573.856 499.693 574.858 479.782 C 576.593 445.322 597.145 430.086 630.504 430.751 C 647.684 431.093 666.811 430.745 684.2 430.787 L 685.359 419.076 z"/>
<path transform="translate(0,0)" fill="rgb(214,229,243)" d="M 1533.64 485.405 C 1536.25 489.112 1542.45 544.22 1541.29 549.271 L 1539.25 549.866 C 1536.18 549.822 1531.77 550.262 1529.47 548.569 C 1528.46 540.068 1532.57 495.986 1533.64 485.405 z"/>
<path transform="translate(0,0)" fill="rgb(129,151,183)" d="M 909.268 467.201 C 913.581 467.805 920.312 469.782 922.474 473.518 C 934.029 493.492 893.456 508.012 896.326 479.132 L 897.451 479.55 C 898.023 483.626 898.953 485.241 900.639 488.888 C 903.298 489.438 905.999 489.888 908.523 490.915 C 908.531 490.304 908.596 489.418 908.295 488.905 C 903.26 480.308 900.044 488.411 899.283 476.203 C 902.791 480.113 905.644 483.221 909.444 486.846 C 913.65 483.3 914.953 480.991 917.213 476.273 C 913.667 472.85 912.258 471.055 909.268 467.201 z"/>
<path transform="translate(0,0)" fill="rgb(161,168,179)" d="M 909.444 486.846 C 913.65 483.3 914.953 480.991 917.213 476.273 C 920.751 481.153 921.211 485.564 916.043 489.535 C 912.422 490.063 911.803 490.025 909.444 486.846 z"/>
<path transform="translate(0,0)" fill="rgb(129,151,183)" d="M 1302.06 430.84 L 1384.21 430.787 L 1384.6 434.311 C 1357.06 434.051 1329.52 434.09 1301.99 434.427 L 1302.06 430.84 z"/>
<path transform="translate(0,0)" fill="rgb(161,168,179)" d="M 1318.97 476.412 C 1323.43 482.78 1321.51 483.836 1323.78 488.08 C 1316.69 500.385 1300.12 497.717 1298.18 483.835 L 1300.26 485.937 L 1299.31 484.961 L 1302.12 484.536 C 1303.21 481.136 1302.7 480.606 1301.4 477.023 C 1305.34 481.323 1308.06 486.184 1314.13 484.652 C 1317.04 481.766 1317.45 480.172 1318.97 476.412 z"/>
<path transform="translate(0,0)" fill="rgb(129,151,183)" d="M 1311.3 468.081 C 1322.91 467.379 1327.88 478.396 1323.78 488.08 C 1321.51 483.836 1323.43 482.78 1318.97 476.412 L 1311.3 468.081 z"/>
<path transform="translate(0,0)" fill="rgb(195,195,198)" d="M 545.192 1296.79 C 528.959 1288.41 522.061 1272.66 522.884 1255.04 C 523.797 1235.47 525.271 1216.11 526.68 1196.57 L 533.709 1095.22 L 556.137 769.637 L 567.966 596.949 C 568.862 585.244 570.23 548.057 571.908 539.489 C 571.883 543.804 571.203 550.201 573.078 553.444 L 574.579 554.245 L 574.613 555.1 C 575.066 570.382 571.802 603.115 570.601 619.507 L 563.294 727.701 L 537.217 1108.49 L 529.924 1213.04 C 529.237 1222.87 526.457 1254.28 527.115 1262.52 C 527.933 1271.88 532.183 1280.6 539.049 1287.02 C 555.321 1302.04 591.579 1297.83 613.206 1297.81 L 695.813 1297.81 L 963.428 1298.08 L 1268.83 1298.8 L 1374.91 1299.02 C 1393.39 1299.04 1411.92 1299.28 1430.41 1298.86 C 1442.76 1298.58 1454.15 1293.19 1462.38 1283.83 C 1467.87 1277.47 1471.42 1269.68 1472.61 1261.37 C 1476.05 1236.13 1477.6 1192.59 1479.6 1165.33 L 1494.36 961.18 L 1515.01 680.679 C 1517.97 640.027 1522.6 594.235 1524.28 554.132 L 886.047 554.041 L 686.791 554.043 L 621.044 554.089 C 610.415 554.095 596.133 554.556 585.976 553.859 C 596.165 552.276 636.666 553.151 649.348 553.188 L 771.211 553.091 L 1306.44 553.065 L 1464.95 553.085 C 1484.86 553.124 1523.63 554.299 1545.04 552.464 C 1545.95 552.386 1546.24 548.165 1546.44 546.846 C 1554.14 598.606 1559.85 658.121 1566.03 710.667 L 1601.52 1016.21 L 1620.34 1178.04 C 1623.67 1205.98 1627.61 1234.04 1629.77 1262.07 C 1630.99 1277.99 1622.57 1291.2 1609.05 1298.98 C 1606.26 1300.35 1597.54 1303.62 1596.61 1304.35 L 820.629 1302.81 C 734.169 1302.62 645.127 1303.23 558.802 1301.91 C 557.093 1300.86 547.748 1297.69 545.192 1296.79 z"/>
<path transform="translate(0,0)" fill="rgb(240,241,243)" d="M 1528.05 554.124 L 1542.81 554.217 L 1599.64 1038.44 L 1617.69 1191.85 L 1622.92 1236.01 C 1623.84 1243.42 1625.34 1251.64 1625.66 1259.01 C 1627.77 1307.71 1578.44 1299.44 1547.69 1299.11 L 1450.84 1298.92 C 1463.61 1290.29 1474.73 1279.46 1476.43 1263.51 C 1479.17 1237.74 1480.35 1211.29 1482.26 1185.43 L 1495.2 1008.66 L 1516.5 718.709 C 1520.38 666.188 1526.06 606.198 1528.05 554.124 z"/>
<path transform="translate(0,0)" fill="rgb(214,229,243)" d="M 630.293 678.091 C 697.342 676.312 772.488 677.776 839.792 677.821 L 1213.18 677.83 L 1377.43 677.887 C 1400.91 677.831 1428.3 677.153 1451.89 678.513 C 1457.81 678.853 1462.59 685.585 1465.77 690.216 C 1466.79 704.894 1463.12 741.739 1461.9 757.98 L 1453.34 876.655 L 1436.63 1108.58 C 1433.79 1148.3 1431.15 1188.02 1427.95 1227.72 C 1426.91 1240.63 1421.76 1246.58 1409.17 1250.08 C 1366.62 1251.27 1319.28 1250.27 1276.5 1250.21 L 1051.03 1250.2 L 787.082 1250.21 C 722.195 1250.33 655.188 1250.99 590.44 1249.95 C 578.984 1243.01 576.413 1239.57 577.208 1225.6 C 578.028 1211.18 579.365 1196.78 580.398 1182.38 L 586.695 1093.08 L 604.569 829.405 L 610.35 742.676 C 611.347 727.947 612.158 700.797 615.922 688.093 C 621.285 682.109 623.059 680.768 630.293 678.091 z"/>
<path transform="translate(0,0)" fill="rgb(253,254,254)" d="M 1287.13 837.785 L 1398.79 837.814 C 1415.89 837.836 1437.59 838.486 1454.19 837.706 C 1451.81 868.139 1449.65 898.589 1447.7 929.053 C 1446.75 944.388 1444.97 980.211 1442.63 994.069 L 1442.57 995.856 C 1442.9 999.97 1442.3 1005.72 1442.01 1009.97 C 1438.81 1056.9 1434.63 1103.85 1431.83 1150.8 L 1325.48 1150.85 C 1308.05 1150.84 1282.77 1151.6 1265.92 1150.25 C 1265.77 1125.94 1269.97 1088.99 1271.52 1063.98 C 1272.67 1045.54 1273.9 1012.7 1276.37 995.776 L 1276.1 994.025 C 1281.42 943.213 1282.21 889.036 1287.13 837.785 z"/>
<path transform="translate(0,0)" fill="rgb(253,254,254)" d="M 1276.37 995.776 C 1330.3 995.792 1388.97 994.108 1442.57 995.856 C 1442.9 999.97 1442.3 1005.72 1442.01 1009.97 C 1438.81 1056.9 1434.63 1103.85 1431.83 1150.8 L 1325.48 1150.85 C 1308.05 1150.84 1282.77 1151.6 1265.92 1150.25 C 1265.77 1125.94 1269.97 1088.99 1271.52 1063.98 C 1272.67 1045.54 1273.9 1012.7 1276.37 995.776 z"/>
<path transform="translate(0,0)" fill="rgb(240,241,243)" d="M 1306.08 1024.58 C 1314.35 1021.88 1323.25 1026.32 1326.08 1034.54 C 1328.91 1042.76 1324.63 1051.73 1316.46 1054.7 C 1311.05 1056.66 1305 1055.56 1300.64 1051.81 C 1296.27 1048.06 1294.27 1042.24 1295.4 1036.6 C 1296.53 1030.96 1300.61 1026.36 1306.08 1024.58 z"/>
<path transform="translate(0,0)" fill="rgb(240,241,243)" d="M 1276.1 994.025 C 1308.36 992.761 1344.64 994.056 1377.24 993.599 C 1391.56 993.398 1429.94 992.713 1442.63 994.069 L 1442.57 995.856 C 1388.97 994.108 1330.3 995.792 1276.37 995.776 L 1276.1 994.025 z"/>
<path transform="translate(0,0)" fill="rgb(240,241,243)" d="M 1317.83 866.605 C 1326.33 864.448 1334.96 869.601 1337.08 878.101 C 1339.21 886.601 1334.03 895.212 1325.52 897.31 C 1317.06 899.398 1308.5 894.245 1306.38 885.787 C 1304.26 877.329 1309.38 868.752 1317.83 866.605 z"/>
<path transform="translate(0,0)" fill="rgb(240,241,243)" d="M 1018.53 802.258 C 1089.48 798.536 1150.04 852.963 1153.89 923.903 C 1157.73 994.842 1103.41 1055.5 1032.48 1059.47 C 961.371 1063.46 900.528 1008.97 896.671 937.854 C 892.813 866.737 947.406 805.99 1018.53 802.258 z"/>
<path transform="translate(0,0)" fill="rgb(129,151,183)" d="M 1052.4 870.939 C 1052.63 864.423 1052.14 858.489 1059.59 856.211 C 1067.75 858.309 1067.14 863.711 1067.19 870.865 C 1073.22 870.804 1079.7 870.245 1085.35 872.779 C 1088.38 874.142 1092.61 877.363 1093.73 880.642 C 1097.32 891.116 1097.96 984.232 1093.39 991.897 C 1090.06 997.492 1084.56 1000.14 1078.41 1001.45 L 1006.25 1001.45 C 986.292 1001.45 954.821 1007.81 955.173 980.231 C 955.564 949.641 953.697 918.587 955.649 888.043 C 956.756 870.712 970.247 870.817 983.309 870.996 C 983.362 869.35 983.441 867.704 983.547 866.061 C 983.954 860.04 984.265 859.67 989.047 855.534 C 998.568 857.678 997.444 862.498 997.599 870.925 C 1015.78 871.112 1034.2 870.957 1052.4 870.939 z"/>
<path transform="translate(0,0)" fill="rgb(253,254,254)" d="M 959.212 906.948 L 1091.88 906.966 C 1091.45 931.806 1093.18 961.253 1091.01 986.065 C 1090.86 987.772 1088.58 991.226 1087.53 992.748 C 1083.74 995.624 1081.67 996.674 1076.8 996.83 C 1056.46 997.483 1036.13 997.211 1015.73 997.273 C 1001.23 997.029 986.502 997.842 972.046 996.742 C 966.45 996.316 960.826 991.716 959.954 986.072 C 958.406 976.055 958.997 965.472 959.05 955.341 L 959.212 906.948 z"/>
<path transform="translate(0,0)" fill="rgb(129,151,183)" d="M 1023.9 957.169 C 1033.22 957.045 1049.16 964.358 1052.17 973.503 C 1051.68 976.974 1052.33 976.036 1050.2 978.147 C 1043.15 974.391 1046.64 965.313 1027.44 961.45 L 1026.14 961.194 C 1003.91 963.788 1011.9 972.301 999.533 977.737 L 997.998 977.132 C 999.189 965.16 1013.83 959.303 1023.9 957.169 z"/>
<path transform="translate(0,0)" fill="rgb(129,151,183)" d="M 1001.37 928.693 C 1005.65 927.525 1010.09 929.934 1011.45 934.159 C 1012.8 938.383 1010.59 942.925 1006.43 944.463 C 1003.57 945.52 1000.36 944.923 998.074 942.908 C 995.788 940.893 994.791 937.785 995.48 934.816 C 996.169 931.847 998.432 929.495 1001.37 928.693 z"/>
<path transform="translate(0,0)" fill="rgb(129,151,183)" d="M 1045.46 928.744 C 1049.66 928.051 1053.69 930.694 1054.72 934.821 C 1055.76 938.949 1053.46 943.182 1049.43 944.555 C 1046.51 945.55 1043.28 944.819 1041.08 942.665 C 1038.87 940.511 1038.07 937.299 1038.99 934.358 C 1039.92 931.417 1042.42 929.247 1045.46 928.744 z"/>
<path transform="translate(0,0)" fill="rgb(214,229,243)" d="M 970.8 875.208 C 974.706 874.988 977.79 874.389 981.312 875.879 C 985.81 879.947 982.824 882.21 986.898 886.39 C 990.306 887.284 990.723 887.311 994.118 886.391 C 998.075 882.035 995.276 882.16 998.166 876.205 C 998.379 876.07 999.832 875.049 1000.61 875.081 C 1016.08 875.72 1036.99 873.1 1051.68 876.104 C 1053.86 876.552 1050.69 882.014 1056.48 886.689 C 1060.16 887.55 1060.37 887.715 1063.91 886.759 C 1067.26 882.85 1065.37 882.314 1067.45 876.465 C 1077.18 868.637 1089.46 878.245 1091.85 889.3 L 1091.59 902.852 L 959.19 903.011 C 958.714 890.327 956.941 880.504 970.8 875.208 z"/>
<path transform="translate(0,0)" fill="rgb(253,254,254)" d="M 1057.78 860.203 C 1059.14 860.576 1061.03 860.772 1061.63 861.787 C 1064.53 866.627 1062.97 878.471 1062.21 883.798 L 1058.65 882.638 C 1055.15 878.179 1057.15 865.931 1057.78 860.203 z"/>
<path transform="translate(0,0)" fill="rgb(253,254,254)" d="M 989.857 859.39 C 995.609 863.151 994.145 879.026 991.566 883.958 L 989.265 882.423 C 986.228 877.747 986.593 863.891 989.857 859.39 z"/>
<path transform="translate(0,0)" fill="rgb(253,254,254)" d="M 605.934 837.897 L 774.176 837.883 C 773.46 845.046 772.889 852.746 772.545 859.936 C 770.418 904.367 765.231 949.591 763.936 994.009 C 708.446 992.628 651.463 994.871 595.642 993.449 C 596.782 959.654 600.645 925.297 602.378 891.461 C 603.285 873.743 604.493 855.55 605.934 837.897 z"/>
<path transform="translate(0,0)" fill="rgb(240,241,243)" d="M 639.174 866.562 C 647.648 864.967 655.836 870.458 657.577 878.903 C 659.318 887.348 653.969 895.63 645.556 897.516 C 639.983 898.766 634.168 896.912 630.348 892.666 C 626.527 888.42 625.295 882.443 627.125 877.032 C 628.954 871.621 633.561 867.618 639.174 866.562 z"/>
<path transform="translate(0,0)" fill="rgb(253,254,254)" d="M 1127.78 679.982 L 1296.14 679.91 C 1295.41 687.321 1294.83 694.943 1294.37 702.381 C 1291.62 746.844 1287.14 791.535 1285 836.014 C 1247.13 835.466 1208.87 836.221 1170.99 835.934 C 1158.95 835.843 1129.45 836.992 1119.12 835.056 C 1116.19 831.46 1126.36 694.642 1127.78 679.982 z"/>
<path transform="translate(0,0)" fill="rgb(240,241,243)" d="M 1157.99 709.657 C 1166.27 706.744 1175.34 711.124 1178.21 719.421 C 1181.08 727.719 1176.64 736.763 1168.33 739.582 C 1160.08 742.377 1151.13 737.988 1148.29 729.758 C 1145.44 721.528 1149.78 712.547 1157.99 709.657 z"/>
<path transform="translate(0,0)" fill="rgb(253,254,254)" d="M 786.108 679.889 L 955.064 679.915 C 954.867 693.986 953.018 713.037 952.011 727.351 C 949.618 759.477 947.42 791.618 945.418 823.771 L 939.44 828.728 C 937.076 830.953 934.309 833.184 931.81 835.298 C 914.463 836.603 892.011 835.938 874.189 835.938 L 776.84 835.947 C 776.429 820.705 778.6 804.263 779.385 788.919 C 781.203 753.431 785.653 715.209 786.108 679.889 z"/>
<path transform="translate(0,0)" fill="rgb(240,241,243)" d="M 819.299 708.924 C 840.738 707.939 846.061 730.819 825.981 740.575 C 805.578 741.614 798.889 717.826 819.299 708.924 z"/>
<path transform="translate(0,0)" fill="rgb(253,254,254)" d="M 629.746 680.088 C 680.961 679.478 732.989 679.959 784.281 679.915 C 784.128 714.813 778.802 752.151 777.593 787.27 C 777.061 802.718 775.679 820.61 774.045 835.955 L 758.75 835.992 L 605.739 836 C 609.809 803.376 609.737 764.571 613.129 731.469 C 614.344 719.613 614.129 700.04 617.448 689.56 C 621.77 685.048 624.045 682.641 629.746 680.088 z"/>
<path transform="translate(0,0)" fill="rgb(240,241,243)" d="M 647.814 709.593 C 653.262 707.937 659.18 709.35 663.293 713.288 C 667.406 717.226 669.073 723.078 667.655 728.593 C 666.236 734.107 661.952 738.428 656.45 739.893 C 648.144 742.104 639.599 737.251 637.244 728.986 C 634.888 720.721 639.591 712.092 647.814 709.593 z"/>
<path transform="translate(0,0)" fill="rgb(253,254,254)" d="M 595.488 995.499 L 763.29 995.526 C 763.138 1010.33 753.699 1148.06 751.664 1150.67 C 712.534 1151.06 673.401 1151.11 634.27 1150.81 C 618.243 1150.81 600.693 1150.07 584.836 1150.79 C 587.196 1105.41 591.5 1059.91 593.853 1014.49 C 594.173 1008.33 594.744 1001.63 595.488 995.499 z"/>
<path transform="translate(0,0)" fill="rgb(240,241,243)" d="M 627.041 1024.67 C 632.461 1022.91 638.411 1024.19 642.615 1028.04 C 646.82 1031.89 648.629 1037.7 647.351 1043.26 C 646.074 1048.81 641.907 1053.25 636.443 1054.88 C 628.144 1057.34 619.402 1052.68 616.829 1044.41 C 614.256 1036.15 618.807 1027.35 627.041 1024.67 z"/>
<path transform="translate(0,0)" fill="rgb(253,254,254)" d="M 1298.12 679.93 C 1349.25 680.663 1400.82 679.368 1452 680.227 C 1458.47 684.173 1464.18 688.907 1463.91 697.389 C 1463.2 719.109 1461.12 740.922 1459.6 762.633 L 1456.39 808.664 C 1455.85 816.307 1455.36 828.776 1453.91 835.971 C 1398.71 835.383 1342.43 835.91 1287.14 835.902 C 1292.05 785.589 1292.67 730.72 1298.12 679.93 z"/>
<path transform="translate(0,0)" fill="rgb(240,241,243)" d="M 1327.91 709.589 C 1333.41 707.856 1339.42 709.253 1343.59 713.236 C 1347.76 717.219 1349.44 723.157 1347.96 728.734 C 1346.49 734.311 1342.1 738.643 1336.5 740.042 C 1328.2 742.115 1319.75 737.218 1317.43 728.984 C 1315.11 720.75 1319.75 712.16 1327.91 709.589 z"/>
<path transform="translate(0,0)" fill="rgb(253,254,254)" d="M 764.878 995.51 C 812.774 995.239 860.672 995.389 908.565 995.96 C 915.111 1007.29 923.1 1017.71 932.331 1026.98 L 924.056 1150.99 C 868.087 1150.55 811.536 1151.51 755.671 1150.46 C 755.59 1102.26 764.638 1045.27 764.878 995.51 z"/>
<path transform="translate(0,0)" fill="rgb(240,241,243)" d="M 796.709 1024.73 C 802.084 1022.71 808.129 1023.74 812.531 1027.43 C 816.934 1031.11 819.014 1036.88 817.977 1042.53 C 816.939 1048.17 812.944 1052.83 807.519 1054.7 C 799.278 1057.56 790.276 1053.26 787.317 1045.05 C 784.359 1036.85 788.545 1027.79 796.709 1024.73 z"/>
<path transform="translate(0,0)" fill="rgb(253,254,254)" d="M 1141.81 995.981 C 1183.95 995.108 1232.42 994.643 1274.42 995.881 C 1273.87 1006.85 1272.4 1018.31 1271.68 1029.47 C 1269.1 1069.91 1266.24 1110.34 1263.1 1150.75 L 1229.71 1150.86 C 1185.94 1150.88 1138.83 1149.86 1095.43 1151.26 C 1097.28 1140.8 1098.17 1121.63 1098.98 1110.59 C 1100.78 1086.86 1102.46 1063.13 1104 1039.39 C 1121.98 1023.7 1129.45 1016.04 1141.81 995.981 z"/>
<path transform="translate(0,0)" fill="rgb(240,241,243)" d="M 1136.86 1024.57 C 1145.16 1021.6 1154.28 1025.93 1157.23 1034.23 C 1160.18 1042.54 1155.82 1051.65 1147.51 1054.58 C 1139.23 1057.49 1130.16 1053.15 1127.22 1044.88 C 1124.29 1036.61 1128.6 1027.53 1136.86 1024.57 z"/>
<path transform="translate(0,0)" fill="rgb(253,254,254)" d="M 957.142 679.934 L 1126.04 679.958 C 1124.31 690.315 1123.84 710.124 1122.85 721.614 C 1119.73 757.941 1118.89 795.524 1114.93 831.716 C 1111.53 828.592 1107.06 825.076 1103.44 822.069 C 1088.8 811.726 1072.28 804.36 1054.8 800.391 C 1014.87 791.512 981.587 800.285 947.884 821.736 C 947.976 805.356 950.074 783.849 951.244 767.186 L 957.142 679.934 z"/>
<path transform="translate(0,0)" fill="rgb(240,241,243)" d="M 988.218 709.51 C 996.581 706.914 1005.46 711.612 1008.02 719.986 C 1010.58 728.361 1005.84 737.22 997.456 739.742 C 989.122 742.247 980.331 737.546 977.788 729.224 C 975.245 720.902 979.907 712.09 988.218 709.51 z"/>
<path transform="translate(0,0)" fill="rgb(253,254,254)" d="M 927.763 837.478 L 928.572 837.883 C 927.772 841.078 920.75 847.734 918.417 851.15 C 886.936 897.24 885.195 943.184 907.097 993.883 C 866.647 992.925 821.618 993.849 780.75 993.818 L 765.765 994.013 C 768.53 942.073 773.456 889.716 776.068 837.797 C 826.633 838.023 877.199 837.916 927.763 837.478 z"/>
<path transform="translate(0,0)" fill="rgb(240,241,243)" d="M 812.975 866.097 C 830.822 867.32 835.685 892.72 813.275 897.966 C 793.921 897.348 790.16 869.628 812.975 866.097 z"/>
<path transform="translate(0,0)" fill="rgb(253,254,254)" d="M 1120.43 837.447 C 1175.08 837.945 1229.74 838.074 1284.39 837.834 C 1283.15 869.278 1280.5 902.422 1278.34 933.907 C 1277.17 950.862 1276.23 977.457 1274.01 993.474 C 1229.93 994.354 1187.07 993.395 1143.26 993.341 C 1158.85 959.541 1161.48 935.947 1154.55 899.664 C 1151.11 887.015 1148.61 880.756 1143.38 869.047 C 1135.67 855.756 1131.5 848.62 1120.43 837.447 z"/>
<path transform="translate(0,0)" fill="rgb(240,241,243)" d="M 1143.38 869.047 C 1148.96 866.135 1151.41 864.703 1158.05 866.795 C 1162.14 868.111 1165.48 871.121 1167.2 875.061 C 1171.96 886.163 1165.04 894.074 1155.06 897.873 L 1154.55 899.664 C 1151.11 887.015 1148.61 880.756 1143.38 869.047 z"/>
<path transform="translate(0,0)" fill="rgb(253,254,254)" d="M 755.029 1152.81 C 811.2 1151.97 867.668 1153.2 923.877 1152.53 C 920.419 1182.25 919.748 1217.13 916.85 1247.91 C 913.307 1249.16 768.83 1248.19 748.857 1248.58 C 749.321 1219.4 752.922 1182.15 755.029 1152.81 z"/>
<path transform="translate(0,0)" fill="rgb(240,241,243)" d="M 787.475 1180.54 C 795.64 1177.89 804.416 1182.3 807.165 1190.43 C 809.915 1198.57 805.616 1207.4 797.521 1210.25 C 792.191 1212.13 786.264 1210.99 782.005 1207.28 C 777.745 1203.57 775.812 1197.85 776.945 1192.31 C 778.077 1186.78 782.1 1182.28 787.475 1180.54 z"/>
<path transform="translate(0,0)" fill="rgb(253,254,254)" d="M 933.889 1028.89 C 937.82 1031.42 943.167 1036.3 947.118 1039.33 C 979.53 1064.2 1024.59 1070.5 1063.39 1058.83 C 1077.44 1054.61 1088.63 1048.47 1101.45 1041.01 C 1100.74 1069.64 1097.34 1100.38 1095.68 1129.24 C 1094.93 1135.94 1094.61 1144.04 1093.96 1151.03 C 1040.1 1150.28 979.429 1149.93 925.735 1151.23 C 927.01 1111.83 933.033 1068.88 933.889 1028.89 z"/>
<path transform="translate(0,0)" fill="rgb(253,254,254)" d="M 1092.65 1152.46 C 1093 1152.94 1093.35 1153.42 1093.7 1153.89 C 1092.73 1174.79 1087.69 1231.21 1086.85 1248.51 L 920.988 1248.23 C 920.929 1248.17 920.854 1248.12 920.811 1248.05 C 917.3 1242.25 924.526 1164.85 925.846 1152.49 C 979.572 1153.17 1039.02 1153.57 1092.65 1152.46 z"/>
<path transform="translate(0,0)" fill="rgb(240,241,243)" d="M 957.654 1180.31 C 963.093 1178.51 969.075 1179.79 973.315 1183.64 C 977.554 1187.49 979.395 1193.32 978.134 1198.9 C 976.873 1204.49 972.705 1208.97 967.223 1210.62 C 958.893 1213.14 950.089 1208.49 947.47 1200.19 C 944.85 1191.89 949.39 1183.03 957.654 1180.31 z"/>
<path transform="translate(0,0)" fill="rgb(253,254,254)" d="M 643.875 1152.5 L 752.619 1152.56 C 751.487 1184.54 747.948 1216.58 746.679 1248.51 L 686.5 1248.49 C 655.148 1248.53 621.917 1249.07 590.678 1247.77 C 574.942 1237.37 579.831 1222.08 580.589 1205.77 C 581.404 1188.25 584.081 1170.41 584.088 1152.87 C 604.016 1152.6 623.945 1152.48 643.875 1152.5 z"/>
<path transform="translate(0,0)" fill="rgb(240,241,243)" d="M 616.431 1180.45 C 624.693 1177.58 633.717 1181.95 636.592 1190.21 C 639.467 1198.47 635.107 1207.5 626.85 1210.38 C 618.583 1213.27 609.542 1208.9 606.663 1200.63 C 603.784 1192.36 608.159 1183.32 616.431 1180.45 z"/>
<path transform="translate(0,0)" fill="rgb(253,254,254)" d="M 1095.87 1152.58 C 1150.54 1151.67 1208.31 1152.67 1263.15 1152.92 C 1261.72 1177.79 1258.3 1220.17 1256.49 1247.03 C 1256.02 1247.51 1255.55 1247.99 1255.07 1248.48 C 1199.67 1248.8 1144.27 1248.73 1088.87 1248.29 C 1090.39 1220.65 1092.87 1179.45 1095.87 1152.58 z"/>
<path transform="translate(0,0)" fill="rgb(240,241,243)" d="M 1127.7 1180.49 C 1136.01 1177.99 1144.76 1182.74 1147.2 1191.06 C 1149.63 1199.39 1144.82 1208.1 1136.47 1210.47 C 1128.22 1212.82 1119.62 1208.07 1117.21 1199.84 C 1114.8 1191.6 1119.49 1182.97 1127.7 1180.49 z"/>
<path transform="translate(0,0)" fill="rgb(253,254,254)" d="M 1265.08 1152.83 C 1284.61 1152.09 1306.08 1152.54 1325.83 1152.54 L 1431.25 1152.75 C 1430.75 1178.84 1426.86 1207.29 1425.82 1233.91 C 1423.13 1238 1421.45 1240.23 1418.3 1244 C 1407.99 1250.99 1369.9 1248.86 1355.2 1248.83 L 1258.89 1248.21 C 1259.34 1219.94 1263.39 1182.07 1265.08 1152.83 z"/>
<path transform="translate(0,0)" fill="rgb(240,241,243)" d="M 1295.78 1180.56 C 1301.29 1178.76 1307.33 1180.12 1311.55 1184.09 C 1315.76 1188.07 1317.46 1194.03 1315.98 1199.63 C 1314.51 1205.22 1310.09 1209.57 1304.47 1210.96 C 1296.21 1212.99 1287.82 1208.12 1285.48 1199.94 C 1283.14 1191.76 1287.69 1183.2 1295.78 1180.56 z"/>
<path transform="translate(0,0)" fill="rgb(240,241,243)" d="M 1172.67 618.202 C 1192.87 617.529 1214.6 618.977 1234.46 617.944 C 1253.62 616.948 1263.38 631.037 1247.39 641.066 C 1245.1 641.214 1242.8 641.335 1240.51 641.428 C 1224.46 642.092 1207.58 640.982 1191.74 641.764 C 1175.47 642.567 1149.62 636.392 1172.67 618.202 z"/>
<path transform="translate(0,0)" fill="rgb(240,241,243)" d="M 662.58 618.226 C 673.055 617.718 729.586 616.458 735.439 619.109 C 738.513 620.501 741.105 623.238 742.231 626.427 C 743.314 629.494 742.994 632.607 741.475 635.47 C 739.821 638.584 737.346 639.958 734.136 641.079 C 714.715 641.668 695.134 641.478 675.708 641.73 C 669.576 641.81 657.81 642.162 654.697 635.683 C 650.473 626.891 654.762 621.969 662.58 618.226 z"/>
<path transform="translate(0,0)" fill="rgb(240,241,243)" d="M 1343.48 618.246 C 1362.77 617.448 1383.32 618.747 1402.36 617.8 C 1422.01 616.822 1434.02 632.004 1416.02 641.181 C 1391.8 641.346 1365.39 642.56 1341.46 640.464 C 1334.54 639.858 1329.15 624.321 1343.48 618.246 z"/>
<path transform="translate(0,0)" fill="rgb(240,241,243)" d="M 831.502 618.223 C 852.832 617.367 875.639 618.078 897.069 618.18 C 911.67 618.249 920.123 631.248 905.217 641.171 C 885.204 641.889 863.514 640.439 843.821 641.507 C 823.459 642.612 813.678 628.712 831.502 618.223 z"/>
<path transform="translate(0,0)" fill="rgb(240,241,243)" d="M 1002.29 618.313 C 1023.79 617.11 1048.31 617.793 1069.87 618.414 C 1086.66 618.898 1089.27 630.99 1075.87 641.282 L 1001.31 641.233 C 990.023 634.555 990.634 624.176 1002.29 618.313 z"/>
<path transform="translate(0,0)" fill="rgb(115,213,176)" d="M 308.719 1027.35 C 295.311 975.261 297.676 908.208 324.645 860.175 C 327.933 854.317 332.551 846.92 338.269 843.254 C 341.598 842.756 344.329 843.321 346.885 845.849 C 387.674 886.181 404.16 945.213 404.123 1000.82 C 427.094 972.031 463.635 947.25 500.83 942.508 C 504.255 942.072 505.24 942.417 507.722 944.078 C 513.446 956.464 503.799 991.758 498.839 1005.2 C 482.623 1049.13 448.303 1085.42 406.611 1106.27 C 402.719 1108.22 398.169 1110.23 394.417 1112.34 L 393.398 1113.23 C 389.597 1113.23 388.969 1113.31 385.675 1111.48 C 379.104 1113.29 370.832 1112.91 363.888 1112.95 C 359.97 1113.09 355.765 1112.94 351.828 1112.83 C 339.761 1111.96 329.68 1113.5 316.061 1111.89 L 314.948 1111.5 C 310.794 1114.38 304.475 1112.62 299.874 1111.73 C 249.739 1097.24 207.446 1063.38 182.357 1017.62 C 179.604 1012.53 160.879 976.319 171.972 974.192 C 224.515 964.118 273.021 992.311 308.719 1027.35 z"/>
<path transform="translate(0,0)" fill="rgb(201,238,218)" d="M 171.806 977.278 C 216.437 972.516 253.834 986.533 288.303 1013.93 C 309.841 1031.05 310.739 1036.03 318.985 1060.21 C 324.295 1075.78 340.973 1100.18 351.828 1112.83 C 339.761 1111.96 329.68 1113.5 316.061 1111.89 L 314.948 1111.5 C 304.081 1108.31 289.824 1104.6 279.577 1100.42 C 232.259 1081.13 180.339 1029.18 171.806 977.278 z"/>
<path transform="translate(0,0)" fill="rgb(201,238,218)" d="M 363.888 1112.95 C 364.929 1066.61 383.961 1028.14 415.112 994.564 C 436.929 971.05 472.655 947.846 505.185 946.665 C 506.647 962.827 501.059 988.92 494.852 1004.16 C 472.581 1058.86 437.829 1088.2 385.675 1111.48 C 379.104 1113.29 370.832 1112.91 363.888 1112.95 z"/>
<path transform="translate(0,0)" fill="rgb(201,238,218)" d="M 339.982 846.487 C 343.26 848.224 348.057 852.323 350.429 855.154 C 386.572 898.291 401.468 950.79 399.603 1006.04 C 377.773 1033.55 360.719 1071.78 359.752 1107.25 C 359.644 1110.6 360.202 1110.01 358.46 1111.94 C 357.659 1111.63 356.607 1111.27 355.976 1110.64 C 298.331 1052.93 284.151 909.419 339.982 846.487 z"/>
<path transform="translate(0,0)" fill="rgb(240,241,243)" d="M 314.948 1111.5 L 316.061 1111.89 C 329.68 1113.5 339.761 1111.96 351.828 1112.83 C 355.765 1112.94 359.97 1113.09 363.888 1112.95 C 370.832 1112.91 379.104 1113.29 385.675 1111.48 C 388.969 1113.31 389.597 1113.23 393.398 1113.23 L 394.417 1112.34 C 404.829 1113.9 417.888 1112.28 428.678 1112.67 C 437.865 1113 447.115 1112.29 453.609 1120.47 C 460.865 1129.61 458.766 1140 456.987 1150.51 C 451.411 1183.44 445.457 1216.31 439.706 1249.21 C 435.46 1272.84 437.01 1283.25 414.957 1296.52 C 389.149 1304.5 380.532 1299.84 354.756 1301.84 L 339.532 1301.78 C 329.591 1302.37 265.828 1303.06 262.08 1299.26 L 263.15 1297.36 C 266.834 1295.43 287.244 1296.33 293.054 1296.34 C 278.542 1287.74 274.02 1278.88 271.59 1262.47 C 265.424 1220.8 257.924 1179.21 252.715 1137.42 C 252.372 1133.01 253.136 1129.08 255.005 1125.13 C 264.343 1105.45 286.261 1116.7 299.874 1111.73 C 304.475 1112.62 310.794 1114.38 314.948 1111.5 z"/>
<path transform="translate(0,0)" fill="rgb(195,195,198)" d="M 314.948 1111.5 L 316.061 1111.89 C 318.384 1119.43 321.868 1113.92 328.668 1116.93 C 315.863 1117.13 270.797 1113.79 262.867 1121.84 C 258.224 1126.55 256.928 1132.67 257.267 1139.06 C 257.803 1149.17 259.985 1159.53 261.542 1169.54 L 269.792 1222.1 C 271.726 1234.22 274.284 1248.2 275.617 1260.36 C 278.51 1286.76 294.773 1296.85 320.446 1296.68 C 345.199 1296.52 371.655 1297.43 396.574 1296.51 C 411.122 1295.88 427.59 1286.34 431.398 1271.17 C 437.308 1240.05 442.352 1208.84 447.916 1177.66 C 449.998 1166 455.185 1142.73 453.806 1131.49 C 453.331 1127.43 451.29 1123.71 448.118 1121.14 C 442.046 1116.23 432.489 1116.88 425.016 1116.91 C 412.475 1114.94 401.642 1115.95 389.049 1115.62 L 391.999 1115.26 L 393.398 1113.23 L 394.417 1112.34 C 404.829 1113.9 417.888 1112.28 428.678 1112.67 C 437.865 1113 447.115 1112.29 453.609 1120.47 C 460.865 1129.61 458.766 1140 456.987 1150.51 C 451.411 1183.44 445.457 1216.31 439.706 1249.21 C 435.46 1272.84 437.01 1283.25 414.957 1296.52 C 389.149 1304.5 380.532 1299.84 354.756 1301.84 L 339.532 1301.78 C 329.591 1302.37 265.828 1303.06 262.08 1299.26 L 263.15 1297.36 C 266.834 1295.43 287.244 1296.33 293.054 1296.34 C 278.542 1287.74 274.02 1278.88 271.59 1262.47 C 265.424 1220.8 257.924 1179.21 252.715 1137.42 C 252.372 1133.01 253.136 1129.08 255.005 1125.13 C 264.343 1105.45 286.261 1116.7 299.874 1111.73 C 304.475 1112.62 310.794 1114.38 314.948 1111.5 z"/>
<path transform="translate(0,0)" fill="rgb(214,229,243)" d="M 293.054 1296.34 C 297.11 1297.34 302.446 1300.13 305.94 1300.6 C 316.75 1302.07 328.785 1299.97 339.532 1301.78 C 329.591 1302.37 265.828 1303.06 262.08 1299.26 L 263.15 1297.36 C 266.834 1295.43 287.244 1296.33 293.054 1296.34 z"/>
<path transform="translate(0,0)" fill="rgb(161,168,179)" d="M 363.888 1112.95 C 370.832 1112.91 379.104 1113.29 385.675 1111.48 C 388.969 1113.31 389.597 1113.23 393.398 1113.23 L 391.999 1115.26 L 389.049 1115.62 C 401.642 1115.95 412.475 1114.94 425.016 1116.91 C 393.667 1117.13 359.886 1117.88 328.668 1116.93 C 321.868 1113.92 318.384 1119.43 316.061 1111.89 C 329.68 1113.5 339.761 1111.96 351.828 1112.83 C 355.765 1112.94 359.97 1113.09 363.888 1112.95 z"/>
<path transform="translate(0,0)" fill="rgb(129,151,183)" d="M 1575.04 164.283 C 1583.55 167.229 1584.57 194.089 1591.98 200.646 C 1600.05 207.801 1618.11 210.491 1625.75 217.428 C 1625.84 218.01 1625.93 218.593 1626.02 219.175 C 1618.24 224.13 1600.78 228.792 1593.89 234.385 C 1583.82 242.57 1583.58 263.528 1577.4 273.383 C 1571.35 270.224 1567.02 251.438 1565.31 244.33 C 1561.15 226.984 1530.35 226.952 1526.45 216.704 C 1533.12 212.24 1550.47 207.738 1557.69 202.176 C 1567.79 194.389 1568.48 173.136 1575.04 164.283 z"/>
<path transform="translate(0,0)" fill="rgb(214,229,243)" d="M 1576.21 173.716 C 1588.4 206.403 1584.9 206.292 1619.83 217.89 C 1587.4 229.11 1587.12 230.073 1576.68 262.326 L 1576 262.416 C 1573.3 257.979 1569.76 241.945 1564.57 232.772 C 1552.46 224.856 1547.24 222.525 1533.77 218.078 C 1564.79 207.484 1565.21 203.738 1576.21 173.716 z"/>
<path transform="translate(0,0)" fill="rgb(115,213,176)" d="M 330.956 516.108 C 331.904 516.405 333.04 516.76 334.366 517.175 C 340.022 525.838 341.95 542.974 348.948 550.896 C 354.932 557.67 375.851 559.997 380.632 566.954 L 380.308 568.681 C 369.875 576.748 349.874 575.382 343.634 591.807 C 339.623 602.362 337.647 610.889 335.19 621.878 C 334.415 621.688 333.64 621.498 332.865 621.309 C 329.152 620.84 325.785 605.218 324.929 601.537 C 319.071 576.333 309.216 580.759 288.591 569.689 C 286.231 568.422 285.748 567.999 285.234 565.904 C 294.658 558.012 314.718 558.508 321.235 544.849 C 325.774 535.335 328.063 526.195 330.956 516.108 z"/>
<path transform="translate(0,0)" fill="rgb(201,238,218)" d="M 332.962 525.978 C 344.047 555.726 343.586 555.479 373.102 567.092 C 353.246 574.821 344.955 576.293 336.913 597.361 C 335.417 603.19 334.203 607.243 332.19 612.906 C 330.59 605.248 329.775 600.841 326.884 593.464 C 320.717 578.808 313.721 575.13 298.991 569.143 C 296.999 568.335 294.987 567.574 292.959 566.859 C 320.984 556.322 323.623 554.998 332.962 525.978 z"/>
<path transform="translate(0,0)" fill="rgb(214,229,243)" d="M 354.756 1301.84 C 380.532 1299.84 389.149 1304.5 414.957 1296.52 C 437.35 1298 467.779 1296.62 490.816 1297.06 C 501.732 1297.27 535.567 1297.77 545.192 1296.79 C 547.748 1297.69 557.093 1300.86 558.802 1301.91 C 507.833 1303.08 456.284 1301.34 405.263 1302.06 C 388.612 1302.29 371.405 1302.25 354.756 1301.84 z"/>
<path transform="translate(0,0)" fill="rgb(214,229,243)" d="M 1596.61 1304.35 C 1597.54 1303.62 1606.26 1300.35 1609.05 1298.98 C 1623.94 1299.51 1740.55 1299.12 1744.55 1300.78 C 1745.5 1303.1 1745.41 1301.88 1744.35 1304.56 C 1740.72 1305.81 1607.24 1305.25 1596.61 1304.35 z"/>
<path transform="translate(0,0)" fill="rgb(214,229,243)" d="M 1776.95 1300.14 C 1786.19 1300.01 1810.95 1298.66 1819.72 1301.43 C 1820.78 1301.77 1820.58 1304.2 1820.69 1305.71 C 1812.18 1305.86 1786.52 1307.29 1778.22 1304.65 C 1777.11 1304.3 1777.17 1301.78 1776.95 1300.14 z"/>
<path transform="translate(0,0)" fill="rgb(214,229,243)" d="M 205.514 1296.17 C 212.408 1296.09 240.632 1294.57 244.681 1298.08 L 244.791 1301.29 C 236.663 1301.61 215.377 1303.33 207.096 1300.52 C 205.859 1300.1 205.859 1297.92 205.514 1296.17 z"/>
<path transform="translate(0,0)" fill="rgb(195,195,198)" d="M 1880.32 648.356 C 1885.13 649.18 1891.19 656.816 1893.88 660.749 C 1898.25 667.143 1900.64 667.948 1899.64 674.642 C 1894.23 673.32 1879.63 654.622 1880.32 648.356 z"/>
<path transform="translate(0,0)" fill="rgb(195,195,198)" d="M 1909.05 689.753 C 1915.08 691.829 1921.61 713.506 1918.8 719.243 C 1912.39 716.308 1911.48 704.04 1908.67 697.816 C 1907.03 694.18 1907.3 692.927 1909.05 689.753 z"/>
<path transform="translate(0,0)" fill="rgb(195,195,198)" d="M 1920.19 737.197 C 1921.75 737.644 1922.42 737.999 1923.9 738.651 C 1926.77 744.363 1927.77 761.973 1924.63 767.57 C 1923.65 767.003 1921.97 766.272 1921.62 765.424 C 1919.6 760.471 1919.39 741.876 1920.19 737.197 z"/>
<path transform="translate(0,0)" fill="rgb(195,195,198)" d="M 1786.22 615.427 C 1792.64 615.006 1802.93 613.703 1808.6 615.93 C 1810 618.646 1809.77 617.427 1808.78 620.989 C 1802.84 620.711 1787.46 622.408 1783.97 619.541 L 1783.95 617.705 L 1786.22 615.427 z"/>
<path transform="translate(0,0)" fill="rgb(195,195,198)" d="M 1822.2 639.439 C 1824.08 639.817 1824.04 640.039 1825.52 641.323 C 1826.14 647.646 1816.59 659.591 1812.6 664.527 L 1810.04 662.401 C 1809.71 658.128 1819.41 644.336 1822.2 639.439 z"/>
<path transform="translate(0,0)" fill="rgb(195,195,198)" d="M 1919.64 784.405 C 1921.12 785.178 1922.63 785.556 1923.02 786.867 C 1924.62 792.163 1920.34 807.39 1918.47 812.024 L 1915.11 810.37 C 1913.37 805.443 1917.58 789.395 1919.64 784.405 z"/>
<path transform="translate(0,0)" fill="rgb(195,195,198)" d="M 1842.12 622.346 C 1846.52 623.001 1860.96 629.785 1864.02 633.826 C 1865.28 635.495 1864.5 636.542 1863.95 638.596 C 1859.54 637.477 1845.71 630.61 1842.24 626.964 C 1841.15 625.819 1841.83 624.363 1842.12 622.346 z"/>
<path transform="translate(0,0)" fill="rgb(195,195,198)" d="M 1707.19 711.622 C 1713.47 713.131 1727.55 714.236 1730.53 717.048 L 1729.74 720.466 C 1722.97 720.956 1713.28 721.124 1707.56 717.348 C 1705.97 714.242 1706.26 715.615 1707.19 711.622 z"/>
<path transform="translate(0,0)" fill="rgb(195,195,198)" d="M 1908.49 828.299 C 1909.13 828.617 1910.74 829.811 1911.3 830.2 C 1912.8 836.241 1905.08 849.439 1902.15 854.872 L 1899.44 852.994 C 1897.81 848.016 1905.78 833.936 1908.49 828.299 z"/>
<path transform="translate(0,0)" fill="rgb(195,195,198)" d="M 1759.29 620.97 C 1761.7 622.168 1760.75 621.32 1762.18 623.644 C 1760.59 627.933 1746.68 632.402 1741.03 635.096 C 1739.56 634.325 1739.55 633.957 1738.36 632.605 L 1738.85 630.551 C 1743.26 626.57 1753.52 623.21 1759.29 620.97 z"/>
<path transform="translate(0,0)" fill="rgb(195,195,198)" d="M 1719.29 641.703 L 1721.37 644.011 C 1721.36 649.167 1709.41 659.54 1704.95 664.051 C 1703.52 662.366 1703.59 662.417 1702.76 660.353 C 1704.76 653.503 1713.79 646.587 1719.29 641.703 z"/>
<path transform="translate(0,0)" fill="rgb(195,195,198)" d="M 1693.13 677.291 C 1695.98 678.492 1694.91 677.558 1696.51 680.104 C 1696.44 684.511 1696.25 700.987 1694.65 703.698 C 1686.19 699.265 1689.15 684.218 1693.13 677.291 z"/>
<path transform="translate(0,0)" fill="rgb(195,195,198)" d="M 1888.02 869.291 C 1890.72 869.969 1889.58 869.331 1891.57 871.255 C 1892 876.338 1882.29 887.858 1878.89 892.428 C 1877.72 892.519 1877.29 892.167 1876.03 891.729 L 1875.3 890.018 C 1876.58 885.537 1884.88 873.998 1888.02 869.291 z"/>
<path transform="translate(0,0)" fill="rgb(195,195,198)" d="M 1796.28 498.461 C 1801.75 499.74 1814.92 505.821 1817.82 511.004 C 1818.45 512.132 1817.08 513.934 1816.48 515.12 C 1811.05 512.185 1800.67 507.166 1796.23 502.97 C 1795.13 501.931 1795.89 500.441 1796.28 498.461 z"/>
<path transform="translate(0,0)" fill="rgb(195,195,198)" d="M 1752.83 491.004 C 1757.94 490.725 1772.73 490.454 1776.9 493.749 C 1778.22 494.797 1777.93 496.101 1778.17 498.131 C 1772.76 498.146 1759.32 497.917 1754.57 495.311 C 1753.07 494.49 1753.26 493.08 1752.83 491.004 z"/>
<path transform="translate(0,0)" fill="rgb(195,195,198)" d="M 1829.61 525.333 C 1836.66 526.645 1842.82 544.157 1840.81 550.959 C 1839.55 550.278 1837.52 549.405 1837.08 547.99 C 1834.95 541.137 1827.45 532.099 1829.61 525.333 z"/>
<path transform="translate(0,0)" fill="rgb(195,195,198)" d="M 1841.59 566.478 C 1848.64 569.91 1844.98 590.023 1841.43 594.705 C 1839.6 593.31 1839.72 593.42 1838.71 591.338 C 1838.74 585.515 1838.92 571.273 1841.59 566.478 z"/>
<path transform="translate(0,0)" fill="rgb(195,195,198)" d="M 1795.97 675.563 C 1804.55 679.725 1787.01 692.366 1782.99 695.988 L 1780.62 694.344 L 1780.28 692.147 C 1782.98 687.662 1791.77 679.712 1795.97 675.563 z"/>
<path transform="translate(0,0)" fill="rgb(195,195,198)" d="M 1861.17 905.512 C 1863.68 906.67 1862.59 905.855 1864.34 908.326 C 1863.3 913.063 1853.79 921.357 1849.88 925.129 C 1849 924.857 1847.81 923.967 1846.95 923.415 L 1846.7 921.276 C 1849.18 916.772 1857.25 909.454 1861.17 905.512 z"/>
<path transform="translate(0,0)" fill="rgb(195,195,198)" d="M 1725.12 492.348 C 1729.86 491.448 1730.54 491.191 1733.78 493.285 C 1734.17 497.39 1720.71 498.771 1718.19 499.061 C 1714.13 500.027 1713.66 500.2 1710.65 498.519 C 1710.5 493.645 1721.95 492.712 1725.12 492.348 z"/>
<path transform="translate(0,0)" fill="rgb(195,195,198)" d="M 1689.3 500.934 L 1692.24 501.278 L 1693.23 502.817 C 1690.96 507.231 1681.47 510.154 1676.45 512.141 C 1675.62 512.25 1674.03 511.948 1673.1 511.827 L 1672.83 510.28 C 1675.09 505.593 1684.35 502.843 1689.3 500.934 z"/>
<path transform="translate(0,0)" fill="rgb(195,195,198)" d="M 1762.36 701.79 C 1765.69 702.172 1764.3 701.549 1766.79 703.458 L 1766.19 705.426 C 1762.29 709.036 1757.15 711.219 1752.34 713.598 L 1750.15 713.633 L 1750.53 713.508 L 1748.09 712.03 C 1749.77 707.403 1757.92 704.045 1762.36 701.79 z"/>
<path transform="translate(0,0)" fill="rgb(195,195,198)" d="M 1835.16 609.304 C 1838.16 610.797 1837.07 609.718 1838.64 612.52 C 1838.7 618.569 1836.26 622.564 1833.59 627.881 C 1830.35 625.597 1830.97 626.678 1829.5 623.423 C 1829.79 618.647 1832.88 613.713 1835.16 609.304 z"/>
</svg>