<svg width="1448" height="1086" viewBox="0 0 1448 1086" fill="none" xmlns="http://www.w3.org/2000/svg">
<g clip-path="url(#clip0_55_3)">
<path d="M658.869 233.168C658.609 216.658 660.748 204.333 672.775 191.896C704.354 159.24 756.403 182.29 756.559 227.175C756.559 229.193 756.545 231.211 756.509 233.229L795.544 233.066C805.775 233.047 819.166 231.276 827.106 238.989C833.844 245.529 832.932 254.659 832.869 263.191L904.993 263.127C918.285 263.117 934.674 261.911 947.379 264.226C978.107 269.826 973.992 305.154 974.6 327.502L976.438 388.167L983.459 605.065C1027.25 605.814 1068.99 623.786 1099.63 655.087C1104.33 659.95 1109.35 665.962 1113.87 671.116L1115.07 670.433C1114.63 663.012 1115.76 652.303 1116.38 644.676C1130.92 633.723 1149.46 621.546 1164.7 610.99C1164.35 621.95 1161.42 636.429 1161.68 646.792C1164.35 644.675 1166.51 642.521 1169.73 641.678L1171.04 642.073C1170.53 645.855 1166.29 647.707 1163.2 649.686C1174.21 654.143 1185.96 657.866 1197.27 661.571C1181.66 671.896 1164.94 682.289 1149.64 692.86C1141.74 690.627 1130.38 687.553 1122.8 684.721C1128.01 693.093 1132.61 700.368 1136.63 709.35C1151.35 742.213 1154.21 780.061 1146.1 814.953C1138.72 846.755 1122.08 871.458 1097.99 892.995C1088.63 901.366 1082.99 906.796 1072.13 913.484C1062.77 919.24 1052.87 924.062 1042.57 927.894C1039.19 929.053 1031.9 931.775 1028.71 932.32C1009.6 938.322 985.672 938.372 965.967 935.777C958.289 934.766 952.64 932.588 944.452 932.546C888.866 932.291 833.272 932.284 777.678 932.277L440.507 932.093C393.739 931.966 343.355 933.416 297.104 932.009C294.284 930.573 290.056 929.159 287.056 928.134C277.74 921.488 275.322 916.595 273.543 905.283C269.882 881.541 266.205 857.77 262.656 834.014C261.527 826.449 258.775 815.08 263.617 808.589C270.991 798.705 283.401 803.887 293.773 801.83C297.324 802.304 301.261 803.004 304.555 801.575C313.226 802.304 319.947 802.311 328.69 802.247C330.166 802.297 331.289 802.41 332.744 802.099L333.86 802.268L337.325 802.608C340.661 802.212 347.689 802.12 351.207 801.993C354.588 802.686 356.608 802.785 359.786 801.462C372.815 806.899 407.732 790.963 401.734 824.717C396.538 853.959 392.107 886.752 385.11 915.796C384.129 919.869 376.367 926.133 373.08 928.629C405.217 928.169 438.472 928.714 470.852 928.459C457.086 920.258 452.182 910.989 451.953 895.137C451.746 880.77 451.288 866.226 450.871 851.86L447.89 731.862L437.618 313.73C437.35 298.63 435.81 285.803 447.275 273.982C461.539 259.278 486.661 263.108 506.061 263.125L580.531 263.077C580.189 245.193 582.492 233.186 604.297 233.097C622.412 233.023 640.755 232.915 658.869 233.168Z" fill="#FCFDFE"/>
<path d="M832.869 263.191L904.993 263.127C918.285 263.117 934.674 261.911 947.379 264.226C978.107 269.826 973.992 305.154 974.6 327.502L976.438 388.167L983.459 605.065C1027.25 605.814 1068.99 623.786 1099.63 655.087C1104.33 659.95 1109.35 665.962 1113.87 671.116L1115.07 670.433C1114.63 663.011 1115.76 652.303 1116.38 644.676C1130.92 633.723 1149.46 621.546 1164.7 610.99C1164.35 621.95 1161.42 636.429 1161.68 646.792C1164.35 644.675 1166.51 642.521 1169.73 641.678L1171.04 642.073C1170.53 645.855 1166.29 647.707 1163.2 649.686C1174.21 654.143 1185.96 657.866 1197.27 661.571C1181.66 671.896 1164.94 682.289 1149.64 692.86C1141.74 690.627 1130.38 687.553 1122.8 684.721C1128.01 693.093 1132.61 700.368 1136.63 709.35C1151.35 742.213 1154.21 780.061 1146.1 814.953C1138.72 846.755 1122.08 871.458 1097.99 892.995C1088.63 901.366 1082.99 906.796 1072.13 913.484C1062.77 919.24 1052.87 924.062 1042.57 927.894C1039.19 929.053 1031.9 931.775 1028.71 932.32C1009.6 938.322 985.672 938.372 965.967 935.777C958.289 934.766 952.64 932.588 944.452 932.546C888.866 932.291 833.272 932.284 777.678 932.277L440.507 932.093C393.739 931.966 343.355 933.416 297.104 932.009C294.284 930.573 290.056 929.159 287.056 928.134C277.74 921.488 275.322 916.595 273.543 905.283C269.882 881.541 266.205 857.77 262.656 834.014C261.527 826.449 258.775 815.08 263.617 808.589C270.991 798.705 283.401 803.887 293.773 801.83C297.324 802.304 301.261 803.004 304.555 801.575C313.226 802.304 319.947 802.311 328.69 802.247C330.166 802.297 331.289 802.41 332.744 802.099L333.86 802.268L337.325 802.608C340.661 802.212 347.689 802.12 351.207 801.993C354.588 802.686 356.608 802.785 359.786 801.462C372.815 806.899 407.732 790.963 401.734 824.717C396.538 853.959 392.107 886.752 385.11 915.796C384.129 919.869 376.367 926.133 373.08 928.629C405.217 928.169 438.472 928.714 470.852 928.459C457.086 920.258 452.182 910.989 451.953 895.137C451.746 880.77 451.288 866.226 450.871 851.86L447.89 731.862L437.618 313.73C437.35 298.63 435.81 285.803 447.275 273.982C461.539 259.278 486.661 263.108 506.061 263.125L580.531 263.077L580.646 266.322L581.269 293.974C560.511 295.332 538.422 294.134 517.568 294.549C510.329 294.693 495.46 294.007 488.952 295.533C484.201 296.666 479.922 299.254 476.713 302.936C473.244 306.922 471.175 312.616 470.965 317.834C470.401 331.806 471.018 346.126 471.375 360.116L472.416 415.082L476.478 594.503L481.464 787.986L483.235 842.732C483.551 853.514 483.546 864.275 484.248 875.022C484.695 881.866 487.371 887.034 492.61 891.39C502.609 899.697 522.125 897.194 534.858 897.209L586.88 897.216L744.935 897.18L833.731 897.216C839.854 897.237 875.814 897.633 878.635 896.388C811.127 835.874 801.229 740.665 857.742 669.083C859.078 667.936 863.943 662.041 865.378 660.373C889.17 633.89 916.171 615.244 951.615 608.241C950.851 600.379 950.915 589.873 950.688 581.795L949.274 537.256L944.049 378C943.597 365.035 943.243 352.068 942.989 339.097C942.614 323.392 945.082 303.441 926.847 296.313C919.692 293.518 907.538 294.319 899.768 294.348L858.633 294.559C852.192 294.585 840.392 294.903 834.403 294.095L833.569 293.975L832.932 266.608L832.869 263.191Z" fill="#C0BFC0"/>
<path d="M863.858 669.538C874.838 655.575 884.694 644.013 899.521 634.01C973.243 584.271 1062.85 610.191 1114.21 677.413C1114.18 674.571 1114.54 673.182 1115.07 670.433C1114.63 663.011 1115.76 652.303 1116.38 644.676C1130.92 633.723 1149.46 621.546 1164.7 610.99C1164.35 621.95 1161.42 636.429 1161.68 646.792C1164.35 644.675 1166.51 642.521 1169.73 641.678L1171.04 642.073C1170.53 645.855 1166.29 647.707 1163.2 649.686C1174.21 654.143 1185.96 657.866 1197.27 661.571C1181.66 671.896 1164.94 682.289 1149.64 692.859C1141.74 690.627 1130.38 687.552 1122.8 684.721L1117.31 682.774C1165.27 745.685 1155.13 845.539 1090.94 893.744C1021.56 945.838 923.531 924.267 873.431 856.335C861.093 839.55 853.38 824.448 846.373 804.814C845.631 798.549 841.523 786.678 840.377 778.088C834.389 733.198 843.071 707.759 863.858 669.538Z" fill="#FCFDFE"/>
<path d="M1082.89 706.685C1083.77 708.785 1085.8 711.888 1087.07 713.904C1102.7 738.621 1108.36 768.5 1102.45 797.588C1097.21 824.243 1081.51 847.681 1058.86 862.684C1036.08 877.793 1008.2 883.153 981.437 877.567C948.85 870.765 920.371 851.124 902.419 823.083C885.691 797.213 877.935 765.566 884.588 735.129C890.456 707.767 906.965 683.865 930.467 668.683C954.223 653.57 980.348 649.062 1007.9 655.212C1035.36 661.343 1065.4 680.023 1080.56 704.069C1071.27 710.658 1061.42 717.417 1052.27 724.141L1049.81 725.838C1040.74 732.187 1030.03 739.307 1021.4 746.031L1018.95 747.671C1013.9 751.249 994.157 763.954 992.538 768.366L993.563 768.967C1000.59 766.252 1014.12 755.187 1021.35 750.365L1023.48 748.81L1051.86 728.751L1054.25 727.104L1082.89 706.685Z" fill="#E5E8ED"/>
<path d="M1051.86 728.751C1060.94 742.899 1065.84 756.241 1065.57 773.33C1065.4 791.811 1057.77 809.438 1044.41 822.207C1031.48 834.424 1014.57 839.996 996.942 839.303C976.495 838.362 957.278 829.263 943.583 814.047C929.195 798.62 921.608 778.06 922.527 756.983C923.468 739.244 930.75 722.183 944.099 710.255C957.448 698.495 974.954 692.578 992.7 693.83C1017.33 695.343 1034.27 708.063 1049.81 725.838C1040.74 732.187 1030.03 739.307 1021.4 746.031L1018.95 747.671C1013.9 751.249 994.157 763.954 992.538 768.366L993.563 768.967C1000.59 766.252 1014.12 755.187 1021.35 750.365L1023.48 748.81L1051.86 728.751Z" fill="#FCFDFE"/>
<path d="M1021.35 750.365C1030.55 773.697 1026.07 797.333 996.087 800.098C988.041 800.324 976.368 794.689 971.263 788.814C941.822 754.968 985.008 711.45 1018.95 747.671C1013.9 751.249 994.157 763.954 992.538 768.366L993.563 768.967C1000.59 766.252 1014.12 755.187 1021.35 750.365Z" fill="#E5E8ED"/>
<path d="M1023.48 748.81C1031.32 762.484 1031.85 779.516 1021.15 791.939C1007.7 807.557 984.244 805.273 969.997 792.059C955.8 778.887 954.492 754.827 968.131 740.771C974.183 734.584 982.469 731.113 991.116 731.134C1004.33 731.077 1012.57 737.292 1021.4 746.031L1018.95 747.671C985.008 711.45 941.822 754.968 971.263 788.814C976.368 794.689 988.041 800.324 996.087 800.098C1026.07 797.333 1030.55 773.697 1021.35 750.365L1023.48 748.81Z" fill="#C0BFC0"/>
<path d="M1054.25 727.104C1066.2 743.118 1070.81 764.428 1067.67 784.062C1064.75 802.629 1054.58 819.272 1039.39 830.33C1023.77 841.53 1005.02 844.118 986.273 841.212C923.065 831.419 892.606 741.464 948.645 702.825C964.143 692.324 983.176 688.388 1001.57 691.877C1020.1 695.358 1041.7 708.544 1052.27 724.141L1049.81 725.838C1034.27 708.063 1017.33 695.343 992.7 693.83C974.954 692.578 957.448 698.495 944.099 710.255C930.75 722.183 923.468 739.244 922.527 756.983C921.608 778.06 929.195 798.62 943.583 814.047C957.278 829.263 976.495 838.362 996.942 839.303C1014.57 839.996 1031.48 834.424 1044.41 822.207C1057.77 809.438 1065.4 791.811 1065.57 773.33C1065.84 756.241 1060.94 742.899 1051.86 728.751L1054.25 727.104Z" fill="#C0BFC0"/>
<path d="M1085.32 704.882C1101.95 724.87 1109.59 759.26 1107.41 784.953C1105.22 813.418 1091.7 839.812 1069.89 858.237C1047.91 876.599 1019.2 884.751 990.897 881.958C924.457 875.397 872.971 811.488 879.893 745.494C882.933 716.831 897.314 690.569 919.833 672.568C967.742 634.411 1034.7 647.2 1073.93 690.595C1077.28 694.296 1080.35 698.246 1083.43 702.167L1080.56 704.07C1065.4 680.023 1035.36 661.343 1007.9 655.212C980.348 649.062 954.223 653.57 930.467 668.683C906.965 683.865 890.456 707.767 884.588 735.129C877.935 765.566 885.691 797.213 902.419 823.083C920.371 851.124 948.85 870.766 981.437 877.567C1008.2 883.153 1036.08 877.793 1058.86 862.684C1081.51 847.681 1097.21 824.243 1102.45 797.588C1108.36 768.501 1102.7 738.621 1087.07 713.904C1085.8 711.889 1083.77 708.785 1082.89 706.686L1085.32 704.882Z" fill="#C0BFC0"/>
<path d="M1164.7 610.99C1164.35 621.95 1161.42 636.429 1161.68 646.792C1160.8 647.357 1159.06 648.553 1158.22 648.98L1117.92 677.329L1114.47 679.84L1114.21 677.413C1114.18 674.571 1114.54 673.182 1115.07 670.433C1114.63 663.011 1115.76 652.303 1116.38 644.676C1130.92 633.723 1149.46 621.546 1164.7 610.99Z" fill="#E5E8ED"/>
<path d="M1164.7 610.99C1164.35 621.95 1161.42 636.429 1161.68 646.792C1160.8 647.357 1159.06 648.553 1158.22 648.98C1158.94 638.54 1159.7 627.777 1161.03 617.401C1147.07 626.876 1133.26 636.977 1119.34 646.327C1118.75 653.763 1117.08 670.773 1117.92 677.329L1114.47 679.84L1114.21 677.413C1114.18 674.571 1114.54 673.182 1115.07 670.433C1114.63 663.011 1115.76 652.303 1116.38 644.676C1130.92 633.723 1149.46 621.546 1164.7 610.99Z" fill="#6F8AAF"/>
<path d="M1163.2 649.686C1174.21 654.143 1185.96 657.866 1197.27 661.571C1181.66 671.896 1164.94 682.289 1149.64 692.859C1141.74 690.627 1130.38 687.553 1122.8 684.721L1117.31 682.774L1116.37 682.634C1117.29 681.864 1118.81 681.048 1119.88 680.412C1132.57 672.128 1146.97 660.883 1159.91 652.002L1163.2 649.686Z" fill="#E5E8ED"/>
<path d="M1163.2 649.686C1174.21 654.143 1185.96 657.866 1197.27 661.571C1181.66 671.896 1164.94 682.289 1149.64 692.859C1141.74 690.627 1130.38 687.553 1122.8 684.721L1117.31 682.774L1116.37 682.634C1117.29 681.864 1118.81 681.048 1119.88 680.412C1128.44 683.554 1140.42 686.674 1149.38 689.226L1190.11 662.462C1180.36 659.251 1169.31 655.873 1159.91 652.002L1163.2 649.686Z" fill="#6F8AAF"/>
<path d="M1161.68 646.792C1164.35 644.675 1166.51 642.521 1169.73 641.678L1171.04 642.073C1170.53 645.855 1166.29 647.707 1163.2 649.686L1159.91 652.002C1146.97 660.883 1132.57 672.128 1119.88 680.412C1118.81 681.048 1117.29 681.864 1116.37 682.634C1106.1 690.156 1095.75 697.573 1085.32 704.882L1082.89 706.685L1054.25 727.104L1051.86 728.751L1023.48 748.81L1021.35 750.365C1014.12 755.187 1000.59 766.252 993.563 768.967L992.538 768.366C994.157 763.954 1013.9 751.249 1018.95 747.671L1021.4 746.031C1030.03 739.307 1040.74 732.187 1049.81 725.838L1052.27 724.141C1061.42 717.417 1071.27 710.658 1080.56 704.069L1083.43 702.167C1093.71 694.626 1104.05 687.183 1114.47 679.84L1117.92 677.329L1158.22 648.98C1159.06 648.553 1160.8 647.357 1161.68 646.792Z" fill="#4A4A4C"/>
<path d="M935.728 928.36L931.853 928.431C902.278 928.912 873.318 928.587 843.813 928.608L648.149 928.686L539.883 928.643C520.683 928.664 500.975 929.074 481.959 928.219C469.57 927.66 456.685 915.266 455.856 902.928C454.387 881.06 454.186 858.682 453.616 836.8L450.284 703.358L443.316 411.101C442.576 374.586 441.335 338.059 440.611 301.542C440.407 291.227 442.513 283.068 449.988 275.686C454.458 271.349 460.063 268.365 466.156 267.077C473.265 265.646 496.713 266.27 505.169 266.282L580.646 266.322L581.269 293.974C560.511 295.332 538.422 294.134 517.568 294.549C510.329 294.693 495.46 294.007 488.952 295.533C484.201 296.666 479.922 299.254 476.713 302.936C473.244 306.922 471.175 312.616 470.965 317.834C470.401 331.806 471.018 346.126 471.375 360.116L472.416 415.082L476.478 594.503L481.464 787.986L483.235 842.732C483.551 853.514 483.546 864.275 484.248 875.022C484.695 881.866 487.371 887.034 492.61 891.39C502.609 899.697 522.125 897.194 534.858 897.209L586.88 897.216L744.935 897.18L833.731 897.216C839.854 897.237 875.814 897.633 878.635 896.388C897.392 910.791 912.714 921.071 935.728 928.36Z" fill="#E5E8ED"/>
<path d="M832.932 266.608C855.289 265.736 879.158 266.092 901.585 266.276C918.257 266.414 948.419 262.96 960.502 274.344C965.225 278.755 968.407 284.57 969.573 290.929C970.931 298.533 970.881 316.271 971.107 324.72L973.009 383.736C975.314 457.273 976.99 531.721 980.242 605.18C969.771 605.275 961.93 605.876 951.615 608.241C950.851 600.379 950.915 589.873 950.688 581.795L949.274 537.256L944.049 378C943.597 365.035 943.243 352.068 942.989 339.097C942.614 323.392 945.082 303.441 926.847 296.313C919.692 293.518 907.538 294.319 899.768 294.348L858.633 294.559C852.192 294.585 840.391 294.903 834.403 294.095L833.569 293.975L832.932 266.608Z" fill="#E5E8ED"/>
<path d="M1068.95 911.752C1062.85 915.429 1056.52 918.702 1050 921.566C1010.82 938.952 968.626 937.884 928.99 922.534C888.378 906.895 855.635 875.778 837.952 836.015C820.722 796.789 819.075 755.534 834.749 715.593C839.147 704.398 853.401 674.129 863.858 669.538C843.071 707.759 834.389 733.198 840.377 778.088C841.523 786.678 845.631 798.549 846.373 804.814C844.853 806.058 845.39 811.375 846.041 813.164C875.715 895.377 966.667 946.375 1051.34 918.031C1057 916.136 1062.41 913.576 1068.19 911.964L1068.95 911.752Z" fill="#E5E8ED"/>
<path d="M274.363 805.457C290.926 805.068 307.775 805.549 324.386 805.471C345.095 805.372 365.834 805.33 386.551 805.351C397.027 805.365 400.142 813.8 398.861 822.921C396.915 832.197 395.83 843.856 393.58 852.849C389.515 869.097 387.862 906.075 379.536 918.943C370.722 928.339 359.54 929.647 347.27 928.53C332.746 927.215 304.181 931.33 291.513 926.175C285.709 923.842 281.107 919.24 278.773 913.435C274.716 903.091 266.535 834.346 263.824 818.028C263.619 816.791 264.818 813.142 265.461 811.856C267.428 807.932 270.574 806.8 274.363 805.457Z" fill="#E5E8ED"/>
<path d="M658.869 233.168C658.609 216.658 660.748 204.333 672.775 191.896C704.354 159.24 756.403 182.29 756.559 227.175C756.559 229.193 756.545 231.211 756.509 233.229L795.544 233.066C805.775 233.047 819.166 231.276 827.106 238.989C833.844 245.529 832.932 254.659 832.869 263.191L832.932 266.608L833.569 293.975C833.844 303.952 835.881 317.695 828.471 325.498C824.603 329.57 819.782 331.252 814.26 331.328C800.084 331.525 785.893 331.422 771.717 331.427L690.242 331.453L632.435 331.451C621.781 331.448 611.332 331.624 600.68 331.067C578.673 329.917 581.269 310.066 581.269 293.974L580.646 266.322L580.531 263.077C580.189 245.193 582.492 233.186 604.297 233.097C622.412 233.023 640.755 232.915 658.869 233.168Z" fill="#6F8AAF"/>
<path d="M703.986 179.807C718.266 178.325 732.357 184.755 741.683 195.529C752.663 208.213 753.985 220.1 752.953 236.128L791.062 236.074C805.662 236.046 829.715 232.477 829.722 253.724C829.722 273.946 831.759 296.323 830.048 316.584C829.673 320.988 822.398 327.384 817.802 327.792C805.634 328.872 792.9 328.42 780.577 328.384L710.39 328.347L635.263 328.364C624.637 328.378 613.908 328.533 603.286 328.28C598.56 328.167 594.134 327.601 590.439 324.443C586.029 320.675 584.815 316.096 584.72 310.54C584.318 298.658 584.11 286.811 583.834 274.929C583.722 267.211 583.25 259.64 583.825 251.949C584.973 236.607 599.135 235.702 611.245 236.015C614.914 236.11 619.122 236.03 622.863 236.043L662.432 236.112C661.757 221.392 662.148 211.226 671.31 198.525C679.439 187.255 690.464 181.822 703.986 179.807Z" fill="#E5E8ED"/>
<path d="M706.884 206.322C717.594 205.769 726.765 213.917 727.472 224.617C728.186 235.316 720.175 244.605 709.485 245.474C702.429 246.048 695.612 242.775 691.646 236.913C687.678 231.05 687.177 223.505 690.333 217.169C693.49 210.832 699.814 206.688 706.884 206.322Z" fill="#6F8AAF"/>
<path d="M703.728 209.968C712.511 207.669 721.497 212.898 723.837 221.668C726.178 230.437 720.995 239.45 712.235 241.832C703.416 244.231 694.329 239.002 691.973 230.173C689.616 221.345 694.888 212.283 703.728 209.968Z" fill="#FCFDFE"/>
<path d="M857.742 669.083C845.192 667.954 814.302 668.829 800.586 668.83L684.842 668.777C672.213 668.773 656.171 669.37 643.47 668.473C641.951 668.365 640.825 666.464 640.106 665.183C640.138 662.56 639.724 663.694 641.406 661.667C646.234 659.183 659.854 660.319 665.949 660.308L716.378 660.293L865.378 660.373C863.943 662.041 859.078 667.936 857.742 669.083Z" fill="#E5E8ED"/>
<path d="M567.537 526.077C587.382 524.949 604.383 540.123 605.51 559.968C606.637 579.812 591.463 596.814 571.618 597.941C551.774 599.067 534.774 583.894 533.647 564.049C532.52 544.205 547.693 527.204 567.537 526.077Z" fill="#E5E8ED"/>
<path d="M564.648 642.716C584.386 639.662 602.835 653.269 605.747 673.028C608.66 692.787 594.922 711.139 575.142 713.911C555.561 716.654 537.436 703.082 534.553 683.522C531.67 663.962 545.109 645.739 564.648 642.716Z" fill="#E5E8ED"/>
<path d="M565.163 409.511C584.778 407.559 602.305 421.77 604.451 441.364C606.596 460.959 592.559 478.625 572.987 480.964C553.14 483.336 535.17 469.059 532.994 449.188C530.819 429.319 545.272 411.49 565.163 409.511Z" fill="#E5E8ED"/>
<path d="M641.071 426.434C652.115 425.611 668.854 426.035 680.136 426.037L749.149 426.075L833.703 426.125C844.238 426.126 858.414 425.597 868.948 426.657C870.723 426.836 871.465 428.266 872.194 429.509C872.109 432.226 871.854 432.345 870.115 434.614C852.567 435.332 831.794 434.849 814.033 434.849L712.002 434.826C691.128 434.819 670.254 434.752 649.378 434.939C645.202 434.976 640.954 435.565 638.874 431.401C639 428.79 639.37 428.472 641.071 426.434Z" fill="#E5E8ED"/>
<path d="M642.037 543.775C715.509 542.106 789.818 544.768 863.377 543.573C867.513 543.505 872.151 542.912 874.11 547.059C873.848 549.725 873.452 550.044 871.642 552.075C796.753 553.001 721.596 551.628 646.679 552.216C643.153 552.243 640.628 551.458 639.46 548.05C639.934 545.637 640.178 545.565 642.037 543.775Z" fill="#E5E8ED"/>
<path d="M642.552 455.651C671.467 454.631 705.493 455.39 734.648 455.445L770.721 455.479C778.109 455.414 796.909 454.155 802.466 457.386C804.029 459.485 803.689 458.349 803.626 460.875C801.696 463.717 802.742 462.827 799.723 464.314L696.648 464.392C679.605 464.422 662.258 464.552 645.2 464.432C643.032 464.417 641.793 464.11 640.116 462.814C638.144 459.088 639.107 457.446 642.552 455.651Z" fill="#E5E8ED"/>
<path d="M642.619 572.954C652.649 572.634 662.934 572.695 673.024 572.779C716.463 573.141 760.094 571.959 803.463 573.373C804.856 573.419 805.521 575.302 805.952 576.276C805.74 578.887 805.372 579.21 803.697 581.267L689.116 581.342C681.816 581.344 646.079 581.795 641.8 580.641C639.761 578.76 640.357 579.719 639.757 576.913C640.681 574.028 640.029 575.091 642.619 572.954Z" fill="#E5E8ED"/>
<path d="M642.155 689.536C657.315 688.787 801.837 688.566 804.729 689.967C806.037 690.604 806.178 691.344 806.708 692.594C806.624 695.25 806.44 695.529 804.828 697.657C795.361 698.188 782.747 697.801 773.004 697.804L713.557 697.824L669.786 697.829C661.639 697.83 650.839 698.174 643.042 697.333C640.678 695.809 641.498 696.809 640.426 694.283C640.577 691.742 640.648 691.673 642.155 689.536Z" fill="#E5E8ED"/>
<path d="M299.204 743.564C292.601 710.489 290.968 680.684 302.28 648.226C304.623 641.503 312.907 619.246 320.736 616.588C325.01 615.137 333.676 626.723 336.347 630.436C353.095 653.714 361.844 680.463 364.676 708.827C368.348 711.669 369.945 712.27 374.259 714.151C387.774 701.688 402.603 692.053 420.271 686.539C425.262 684.981 433.443 681.76 437.77 685.814C441.635 695.678 434.411 722.48 429.608 732.923C414.107 766.627 392.307 785.802 359.786 801.462C356.608 802.785 354.588 802.686 351.207 801.993C347.689 802.12 340.661 802.212 337.325 802.608L333.86 802.268L332.744 802.099C331.289 802.41 330.166 802.297 328.69 802.247C319.947 802.311 313.226 802.304 304.555 801.575C301.261 803.004 297.324 802.304 293.773 801.83C277.761 796.937 265.805 792.016 251.905 782.203C232.136 768.416 216.493 749.51 206.653 727.507C204.235 722.141 199.135 712.815 202.879 707.533C205.637 705.876 207.583 705.826 210.654 705.634C245.892 703.423 275.077 719.758 299.204 743.564Z" fill="#C2EBD6"/>
<path d="M337.742 791.797C342.644 757.428 361.136 726.468 389.07 705.861C402.007 696.314 419.376 687.654 435.624 686.932C437.8 713.875 424.412 742.404 407.245 762.667C396.387 775.642 383.021 786.289 367.95 793.975C363.537 796.237 354.79 799.886 351.207 801.993C347.689 802.12 340.661 802.212 337.325 802.608L337.742 791.797Z" fill="#C2EBD6"/>
<path d="M203.771 709.456C231.973 705.395 258.799 714.78 281.287 731.53C288.262 736.727 296.414 743.797 301.078 751.178C302.314 753.137 304.272 760.914 305.544 763.926C310.662 776.059 319.783 792.561 328.69 802.247C319.947 802.311 313.226 802.304 304.555 801.576C256.716 789.132 216.228 759.606 203.771 709.456Z" fill="#C2EBD6"/>
<path d="M299.204 743.564C292.601 710.489 290.968 680.684 302.28 648.226C304.623 641.503 312.907 619.246 320.736 616.588C325.01 615.137 333.676 626.723 336.347 630.436C353.095 653.714 361.844 680.463 364.676 708.827C368.348 711.669 369.945 712.27 374.259 714.151C387.774 701.688 402.603 692.053 420.271 686.539C425.262 684.981 433.443 681.76 437.77 685.814C441.635 695.678 434.411 722.48 429.608 732.923C414.107 766.627 392.307 785.802 359.786 801.462C356.608 802.785 354.588 802.686 351.207 801.993C354.79 799.886 363.537 796.237 367.95 793.975C383.021 786.289 396.387 775.642 407.245 762.668C424.412 742.404 437.8 713.875 435.624 686.932C419.376 687.654 402.007 696.314 389.07 705.861C361.136 726.468 342.644 757.428 337.742 791.797L337.325 802.608L333.86 802.268C334.021 798.076 334.337 794.102 334.677 789.924C338.14 767.341 347.458 746.066 361.704 728.207C362.829 690.126 350.957 644.948 321.503 618.99C303.072 639.103 295.618 680.125 296.957 706.736C298.687 741.131 309.135 776.313 332.744 802.099C331.289 802.41 330.166 802.297 328.69 802.247C319.783 792.561 310.662 776.059 305.544 763.926C304.272 760.914 302.314 753.137 301.078 751.178C296.414 743.797 288.262 736.727 281.287 731.53C258.799 714.78 231.973 705.395 203.771 709.456C216.228 759.606 256.716 789.132 304.555 801.575C301.261 803.004 297.324 802.304 293.773 801.83C277.761 796.937 265.805 792.016 251.905 782.203C232.136 768.416 216.493 749.51 206.653 727.507C204.235 722.141 199.135 712.815 202.879 707.533C205.637 705.876 207.583 705.826 210.654 705.634C245.892 703.423 275.077 719.758 299.204 743.564Z" fill="#6BD2AC"/>
<path d="M364.676 708.827C368.348 711.669 369.945 712.27 374.259 714.151C371.21 717.411 368.182 720.698 365.173 724C365.065 718.973 364.843 713.861 364.676 708.827Z" fill="#FCFDFE"/>
<path d="M1169.64 184.734C1176.66 187.525 1176.18 205 1182.48 210.666C1188 215.623 1200.73 217.302 1205.97 222.268C1206.03 222.685 1206.1 223.102 1206.17 223.519C1201.08 226.812 1187.59 230.712 1183.22 234.191C1176.51 239.534 1175.5 253.032 1171.84 260.797C1165.21 259.148 1165.75 243.058 1161.31 237.247C1155.96 230.233 1139.44 227.388 1135.39 222.293L1135.73 221.141C1139.64 218.731 1142.92 218.247 1147.25 216.842C1165.77 210.824 1162.92 197.647 1169.64 184.734Z" fill="#6F8AAF"/>
<path d="M1170.58 192.123C1173.17 194.806 1175.43 205.868 1176.93 208.941C1180.37 215.979 1193.89 220.23 1201.03 222.596C1180.17 229.557 1176.54 232.271 1171.09 253.945C1168.71 251.29 1166.27 240.353 1165.15 237.502C1162.09 229.682 1148.1 225.344 1140.58 222.605C1162.84 214.46 1162.54 214.727 1170.58 192.123Z" fill="#E5E8ED"/>
<path d="M301.953 399.591C302.59 399.765 303.372 399.977 304.3 400.231C308.189 404.876 310.178 420.049 314.818 424.05C319.471 428.064 331.669 429.974 336.456 434.457C336.55 434.876 336.644 435.295 336.737 435.715C332.44 439.556 319.863 442.179 315.59 446.074C308.009 452.987 308.408 464.334 304.341 472.959C303.719 472.708 302.967 472.404 302.084 472.048C298.106 465.872 297.898 455.063 293.607 448.888C288.036 440.87 275.25 440.253 269.64 436.315L269.423 435.036C272.742 430.973 282.1 429.3 287.06 426.957C296.897 422.31 298.325 409.47 301.953 399.591Z" fill="#6BD2AC"/>
<path d="M303.166 407.198C305.866 411.476 308.502 419.653 310.467 423.989C312.608 428.712 326.472 433.226 331.648 435.041C311.046 442.964 309.596 444.209 303.519 465.169C301.49 463.507 299.609 453.375 298.279 450.486C294.194 441.609 283.218 438.048 274.691 435.046C294.418 429.13 296.421 425.818 303.166 407.198Z" fill="#C2EBD6"/>
<path d="M1028.71 932.32C1031.91 931.775 1039.19 929.053 1042.57 927.894C1056.13 929.527 1077.23 928.339 1091.37 928.339L1184.12 928.417C1195.98 928.396 1208.43 928.36 1220.33 928.396C1222.06 928.403 1222.51 929.074 1223.36 930.107L1223.16 931.443C1221.18 932.843 1157.71 932.277 1149.19 932.277L1028.71 932.32Z" fill="#C0BFC0"/>
<path d="M287.056 928.134C290.056 929.159 294.284 930.573 297.104 932.009C292.597 932.744 280.385 932.454 275.409 932.419L235.598 932.171C230.5 932.15 212.173 933.748 209.534 930.375C210.629 929.322 212.429 928.466 213.956 928.445C238.147 928.176 262.917 929.336 287.056 928.134Z" fill="#C0BFC0"/>
<path d="M160.475 928.58C166.343 928.488 191.251 927.215 194.18 929.796L194.255 932.185C188.241 932.27 163.837 933.409 160.739 931.068L160.475 928.58Z" fill="#C0BFC0"/>
<path d="M1238.35 928.396C1243.49 928.452 1257.01 927.102 1260.37 929.753L1260.49 932.235C1255.72 932.383 1243.72 933.394 1239.31 931.598C1238.58 931.302 1238.53 929.435 1238.35 928.396Z" fill="#C0BFC0"/>
<path d="M1267.45 521.357C1272.3 523.197 1277.67 531.025 1280.49 535.439C1281.53 537.06 1280.94 537.636 1280.38 539.534C1276.33 538.197 1269.74 528.35 1266.92 524.744C1266.19 523.822 1267.06 522.452 1267.45 521.357Z" fill="#C0BFC0"/>
<path d="M1286.83 550.272C1288.64 550.832 1289.38 550.691 1290.38 552.215C1292.72 555.789 1296.17 565.79 1295.38 569.854C1294.15 569.758 1292.81 569.891 1292.23 568.559C1290.49 564.494 1286.05 554.396 1286.83 550.272Z" fill="#C0BFC0"/>
<path d="M1201.63 498.792C1205.5 498.588 1215.83 497.085 1217.35 500.836L1216.59 502.281L1214.86 502.727C1211 502.941 1201.03 504.3 1198.64 501.095C1199.69 499.286 1199.37 499.852 1201.63 498.792Z" fill="#C0BFC0"/>
<path d="M1296.29 582.901C1297.5 583.593 1298.41 583.78 1298.8 585.134C1300.01 589.293 1300.64 599.777 1299.25 603.677C1297.81 603.359 1296.59 603.067 1296.35 601.421C1295.7 597.009 1294.12 586.534 1296.29 582.901Z" fill="#C0BFC0"/>
<path d="M1148.51 565.365C1153.6 566.903 1162.41 566.065 1164.84 569.162L1164.11 571.222C1159.13 571.825 1152.47 572.612 1148.38 569.713C1147.4 567.485 1147.65 568.31 1148.51 565.365Z" fill="#C0BFC0"/>
<path d="M1136.16 542.369C1138.67 543.012 1138 542.453 1139.37 544.232C1139.8 547.817 1141.13 557.754 1139.44 560.378C1132.96 558.681 1134.75 547.252 1136.16 542.369Z" fill="#C0BFC0"/>
<path d="M1237.74 464.654C1239.23 465.023 1239.14 465.034 1240.4 465.942C1242.61 470.549 1241.33 479.548 1240.16 484.417C1238.41 484.145 1238.52 484.218 1237.24 482.994C1236.69 478.83 1236.72 468.523 1237.74 464.654Z" fill="#C0BFC0"/>
<path d="M1238.68 503.841C1242.88 503.985 1251.31 507.927 1254.42 510.957C1255.92 512.415 1255.48 512.873 1255.51 515.057C1252.4 514.612 1242.49 509.401 1239.68 507.308C1238.38 506.342 1238.73 505.441 1238.68 503.841Z" fill="#C0BFC0"/>
<path d="M1287.72 645.688C1288.58 646.091 1289.3 646.664 1290.08 647.216C1291.17 651.114 1285.4 660.785 1283.49 664.406C1281.3 663.283 1282.07 664.086 1280.99 662.052C1281.69 657.852 1285.73 649.919 1287.72 645.688Z" fill="#C0BFC0"/>
<path d="M1296.04 615.44C1297.01 616.219 1297.85 616.575 1298.01 617.621C1298.72 622.246 1296.37 631.676 1294.05 635.389C1293.09 634.559 1291.8 633.774 1291.87 632.399C1292.11 628.209 1293.56 618.577 1296.04 615.44Z" fill="#C0BFC0"/>
<path d="M1227.94 435.856C1231.54 436.534 1234.89 443.924 1236.18 447.078C1237.53 450.346 1237.64 450.734 1236.37 453.662C1232.19 451.708 1229.77 443.186 1227.3 438.984C1226.64 437.867 1227.26 437.337 1227.94 435.856Z" fill="#C0BFC0"/>
<path d="M1170.55 413.632C1175.55 413.562 1184.68 412.806 1188.22 416.156L1188.28 418.376C1184.45 418.802 1175.78 418.28 1171.93 417.315C1170.23 415.64 1170.7 416.488 1170.55 413.632Z" fill="#C0BFC0"/>
<path d="M1207.9 540.61C1209.91 541.192 1209.03 540.688 1210.55 542.35C1210.24 545.987 1202.59 551.824 1199.58 554.473C1198.64 554.403 1198.38 554.156 1197.45 553.756L1197.03 552.259C1198.57 549.264 1205.23 543.265 1207.9 540.61Z" fill="#C0BFC0"/>
<path d="M1201.91 418.339C1206.39 418.682 1214.94 422.267 1217.91 425.88C1218.74 426.888 1218 428.075 1217.64 429.182C1214.36 428.146 1205.69 423.769 1202.76 421.686C1201.62 420.877 1201.93 419.747 1201.91 418.339Z" fill="#C0BFC0"/>
<path d="M1227.05 514.981C1228.47 515.564 1227.96 515.296 1229.12 516.422C1229.28 521.133 1222.99 529.14 1219.91 532.632L1218.26 531.271C1217.83 527.898 1224.81 518.622 1227.05 514.981Z" fill="#C0BFC0"/>
<path d="M1273.14 674.735C1274.57 675.027 1274.51 675.133 1275.65 676.097C1276.04 679.914 1269.48 687.541 1266.95 690.931C1264.7 689.936 1265.41 690.73 1264.54 688.666C1265.62 685.335 1270.88 678.106 1273.14 674.735Z" fill="#C0BFC0"/>
<path d="M1180.78 503.268C1181.23 503.287 1182.6 503.626 1183.12 503.74L1183.68 504.938C1181.72 508.08 1173.45 510.834 1169.63 512.4C1168.04 512.528 1168.74 512.728 1167.47 511.889L1167.37 510.607C1169.19 507.484 1177.19 504.714 1180.78 503.268Z" fill="#C0BFC0"/>
<path d="M1153.7 518.035C1155.13 518.257 1154.57 518.09 1155.83 519.076L1155.94 520.603C1154.43 523.29 1148.32 529.54 1145.96 532.167C1144.61 531.865 1144.63 531.715 1143.56 530.79C1143.8 526.403 1150.38 521.054 1153.7 518.035Z" fill="#C0BFC0"/>
<path d="M1103.41 432.611C1103.7 432.545 1105.32 432.597 1105.68 432.601L1106.2 433.493C1105.2 436.887 1098.18 440.68 1094.89 442.793L1093.93 443.174C1091.8 442.582 1092.58 443.186 1091.44 441.412C1092.4 438.091 1100.15 434.441 1103.41 432.611Z" fill="#C0BFC0"/>
<path d="M1079.64 448.776C1080.55 449.155 1080.66 449.441 1081.44 450.158C1080.79 454.207 1074.09 458.962 1070.68 461.9C1069.14 461.297 1069.72 461.623 1068.57 460.23C1069.4 456.128 1076.12 451.637 1079.64 448.776Z" fill="#C0BFC0"/>
<path d="M1057.44 469.865C1058.88 469.858 1058.81 469.962 1060.04 470.754C1060.33 474.07 1053.99 480.201 1051.34 483.586C1049.72 483.214 1050.32 483.423 1048.91 482.333C1048.89 478.424 1054.59 473.111 1057.44 469.865Z" fill="#C0BFC0"/>
<path d="M1254.46 699.771C1256.03 700.121 1255.43 699.889 1256.75 701.025C1256.29 704.9 1249.65 710.057 1246.48 713.006C1245.22 712.511 1245.61 712.617 1244.56 711.528C1244.91 707.901 1251.51 702.57 1254.46 699.771Z" fill="#C0BFC0"/>
<path d="M1151.21 415.222C1153.88 414.716 1155.29 414.146 1157.37 416.029L1156.88 417.607C1155.05 419.358 1153.44 419.236 1150.86 419.563C1147.75 420.342 1146.15 421.221 1143.71 418.932L1144.3 417.404C1146.38 415.555 1148.37 415.63 1151.21 415.222Z" fill="#C0BFC0"/>
<path d="M1129.42 420.509C1131.24 421 1130.37 420.604 1131.92 422.165L1131.48 423.612C1128.67 425.768 1124.22 427.251 1120.82 428.577L1118.45 428.469L1117.72 427.537C1119.34 424.084 1125.66 422.074 1129.42 420.509Z" fill="#C0BFC0"/>
<path d="M1185.03 558.367C1186.9 558.56 1187.33 558.454 1188.7 559.745L1188.46 560.882C1186.19 563.264 1183.22 564.475 1180.25 565.954L1177.31 566.727L1176.44 565.573L1176.79 564.154C1179.6 560.961 1181.22 560.342 1185.03 558.367Z" fill="#C0BFC0"/>
<path d="M1234.76 495.221C1236.31 496.049 1236.19 495.991 1237.17 497.462C1237.64 501.21 1236.56 503.891 1234.46 507.011C1232.15 505.537 1232.36 506.134 1231.26 504.016C1231.17 501.045 1233.27 498.007 1234.76 495.221Z" fill="#C0BFC0"/>
</g>
<defs>
<clipPath id="clip0_55_3">
<rect width="1448" height="1086" fill="white"/>
</clipPath>
</defs>
</svg>
