<svg width="1448" height="1086" viewBox="0 0 1448 1086" fill="none" xmlns="http://www.w3.org/2000/svg">
<g clip-path="url(#clip0_55_368)">
<path d="M699.929 726.468C714.434 722.374 725.018 721.525 739.88 723.116C767.497 728.688 788.948 740.41 804.941 764.393C819.378 786.169 824.42 812.839 818.933 838.376C814.938 857.806 809.204 867.082 797.531 882.262C813.687 881.922 831.271 882.488 847.646 882.502L966.526 882.509L1091.11 882.375C1108.71 882.368 1126.41 882.46 1144 882.17C1145.86 882.142 1149.34 882.757 1150.93 883.775C1145.02 884.567 1123.11 884.107 1116.31 884.114L1042.55 884.044L795.05 884.56C776.009 903.713 753.865 914.057 726.708 913.986C697.665 913.923 677.9 904.024 657.34 884.539C571.334 883.832 485.324 883.697 399.316 884.143C360.379 884.546 321.44 884.581 282.502 884.256C276.412 884.185 248.77 885.189 246.063 882.87C249.847 882.177 261.063 882.382 265.635 882.368L305.342 882.276C298.942 878.529 293.105 874.28 291.686 866.375C286.804 839.168 282.615 811.679 278.711 784.31C278.44 782.408 278.78 776.745 279.25 774.871C282.163 763.268 298.774 767.61 307.721 766.146C310.713 766.238 312.528 766.45 315.476 765.778C322.32 766.57 331.365 766.62 338.363 766.528L340.554 765.63L343.049 767.037L344.787 766.351C348.385 766.705 354.983 766.832 358.418 765.934C360.075 766.153 361.698 766.493 363.338 766.266C372.874 767.186 382.846 765.439 392.343 766.938C396 767.518 398.385 769.052 400.451 772.142C404.445 778.13 402.276 784.543 401.344 791.041C397.221 814.91 393.352 838.871 389.142 862.734C387.212 873.671 383.263 876.528 374.392 882.333C381.549 881.944 391.717 882.354 399.198 882.354L453.715 882.403L655.351 882.269C647.46 872.703 641.388 862.472 637.466 850.658C628.799 825.289 630.773 797.496 642.938 773.605C655.285 749.432 674.553 734.676 699.929 726.468Z" fill="#ABB1C0"/>
<path d="M721.568 725.774C772.615 722.989 816.282 762.045 819.181 813.079C822.086 864.119 783.129 907.87 732.103 910.896C680.903 913.923 636.972 874.81 634.061 823.606C631.148 772.403 670.361 728.567 721.568 725.774Z" fill="#FEFDFD"/>
<path d="M687.595 799.624C697.072 798.988 761.84 798.062 765.453 800.925C770.544 804.955 780.57 833.668 781.178 841.169C781.574 845.991 782.556 857.219 778.844 861.079C775.253 864.826 768.508 863.759 763.77 863.61C751.079 863.695 682.137 865.583 674.952 861.765C670.667 856.915 670.487 841.487 672.071 836.015C674.267 828.421 682.775 804.722 687.595 799.624Z" fill="#7592BA"/>
<path d="M688.335 802.403C713.635 802.261 738.933 802.275 764.237 802.445C768.904 813.128 773.414 823.889 777.756 834.714L752.981 834.693C741.725 834.636 746.979 839.592 740.714 843.389C736.981 845.659 716.852 845.277 712.129 844.089C709.909 843.523 706.892 837.408 705.607 835.117C698.282 834.353 682.875 834.693 674.953 834.629C678.71 824.667 683.947 812.117 688.335 802.403Z" fill="#FEFDFD"/>
<path d="M678.93 837.493C687.44 837.337 695.307 837.139 703.806 837.641C708.947 846.776 710.057 848.466 720.924 847.667C736.161 846.557 740.099 852.439 748.251 837.62L778.463 837.57C778.562 843.997 778.385 850.657 778.3 857.106C776.455 859.255 774.885 860.966 771.831 860.973C743.231 861.1 714.66 860.924 686.051 860.966C675.319 860.98 673.965 858.52 673.94 847.872C673.933 844.81 674.2 841.636 674.371 838.567C676.159 837.005 675.815 837.535 678.93 837.493Z" fill="#DBDBDF"/>
<path d="M724.58 755.972C726.043 756.255 725.845 756.255 727.238 756.856C729.105 760.73 728.765 776.497 727.641 780.895C726.135 780.626 726.192 780.562 724.87 779.749C723.067 775.366 724.049 761.169 724.58 755.972Z" fill="#AAD2F3"/>
<path d="M696.06 765.941C700.809 766.351 709.683 780.414 708.65 785.151C707.562 784.896 707.258 784.656 706.232 784.175C702.884 779.636 695.726 771.138 696.06 765.941Z" fill="#AAD2F3"/>
<path d="M753.957 766.104C755.583 766.733 754.911 766.217 755.894 767.843C755.569 771.993 747.523 781.849 744.716 785.526L743.083 783.681C742.786 780.131 751.574 769.349 753.957 766.104Z" fill="#AAD2F3"/>
<path d="M289.606 768.748C307.998 768.119 326.647 769.045 345.082 769.031C359.464 769.017 374.157 767.949 388.497 768.607C390.759 768.713 392.801 769.045 394.729 770.304C397.561 772.149 399.341 774.645 399.97 777.982C401.318 785.137 389.513 853.104 386.61 863.695C385.546 867.577 384.006 870.426 381.675 873.679C379.118 876.386 376.25 878.366 372.789 879.752C362.425 883.895 315.971 883.895 305.749 879.434C299.657 876.768 295.712 871.77 293.352 865.675C290.185 857.488 289.408 842.916 288.006 833.943C285.438 817.512 281.935 800.847 280.354 784.303C280.122 781.871 279.559 778.258 280.685 775.988C282.611 772.114 285.643 770.162 289.606 768.748Z" fill="#FEFDFD"/>
<path d="M311.134 713.642C302.67 679.707 303.478 643.089 318.706 611.079C320.842 606.59 324.291 599.779 328.83 597.395C331.517 597.366 333.264 598.407 335.091 600.416C360.238 628.083 368.209 660.891 369.789 696.913C386.272 678.79 404.549 663.916 430.96 660.824C431.952 660.708 432.804 661.111 433.661 661.552C436.682 666.519 433.735 682.194 432.378 687.745C423.307 724.834 397.594 751.426 363.338 766.266C361.698 766.493 360.075 766.153 358.418 765.934C354.983 766.832 348.385 766.705 344.787 766.351L343.049 767.037L340.554 765.63L338.363 766.528C331.365 766.62 322.32 766.57 315.476 765.778C312.528 766.45 310.713 766.238 307.721 766.146C275.143 755.901 251.188 737.971 234.871 707.625C232.815 703.804 221.996 682.699 228.846 681.252C260.407 674.585 290.185 692.557 311.134 713.642Z" fill="#CBEEDE"/>
<path d="M344.787 766.351C347.263 732.668 360.366 707.668 385.158 684.974C391.966 678.742 426.262 656.725 432.467 664.591C434.247 677.281 428.081 696.645 422.445 708.113C409 735.475 386.543 754.671 358.418 765.934C354.983 766.832 348.385 766.705 344.787 766.351Z" fill="#CBEEDE"/>
<path d="M227.917 682.884C253.437 679.804 275.655 687.342 295.724 702.89C299.755 706.014 311.319 716.385 312.644 720.175C318.378 736.557 325.68 753.61 338.363 766.528C331.365 766.62 322.32 766.57 315.476 765.778C271.851 753.681 239.989 727.952 227.917 682.884Z" fill="#CBEEDE"/>
<path d="M311.134 713.642C302.67 679.707 303.478 643.089 318.706 611.079C320.842 606.59 324.291 599.779 328.83 597.395C331.517 597.366 333.264 598.407 335.091 600.416C360.238 628.083 368.209 660.891 369.789 696.913C386.272 678.79 404.549 663.916 430.96 660.824C431.952 660.708 432.804 661.111 433.661 661.552C436.682 666.519 433.735 682.194 432.378 687.745C423.307 724.834 397.594 751.426 363.338 766.266C361.698 766.493 360.075 766.153 358.418 765.934C386.543 754.671 409 735.475 422.445 708.113C428.081 696.645 434.247 677.281 432.467 664.591C426.262 656.724 391.966 678.741 385.158 684.974C360.366 707.667 347.263 732.668 344.787 766.351L343.049 767.037C341.261 743.535 353.566 719.27 366.787 700.631C367.957 664.323 356.619 624.408 329.634 598.901C298.155 638.197 302.888 712.299 330.696 752.635C333.751 757.068 337.147 761.466 340.554 765.63L338.363 766.528C325.68 753.61 318.378 736.557 312.644 720.175C311.319 716.385 299.755 706.014 295.724 702.89C275.655 687.342 253.437 679.804 227.917 682.884C239.989 727.952 271.851 753.681 315.476 765.778C312.528 766.45 310.713 766.238 307.721 766.146C275.143 755.901 251.188 737.971 234.871 707.625C232.815 703.804 221.996 682.699 228.846 681.252C260.407 674.585 290.185 692.557 311.134 713.642Z" fill="#6AD5AF"/>
<path d="M477.803 276.521C505.576 275.455 539.751 276.374 568.105 276.377L742.043 276.39L897.527 276.397C912.876 276.395 976.962 274.521 986.733 277.97C992.474 279.996 996.9 283.899 999.474 289.441C1001.29 293.347 1001.75 296.788 1001.89 301.05C1002.99 333.757 1001.98 366.844 1001.98 399.591L1001.96 592.107L1001.94 771.442C1001.93 800.805 1001.98 830.175 1001.93 859.545C1001.93 862.755 1000.06 871.925 997.084 873.268C996.285 870.893 999.283 868.673 999.912 864.706C1001.01 857.728 1000.44 850.834 1000.41 843.778L1000.44 811.587L1000.46 686.3L1000.46 429.907L1000.48 345.648C1000.48 330.429 1000.62 315.173 1000.33 299.962C1000.11 288.478 991.3 279.821 980.306 277.971L650.445 277.93L536.798 277.959C518.352 277.968 499.747 277.72 481.309 277.997C478.402 278.102 475.863 278.338 473.18 279.569C460.379 285.444 458.371 294.78 458.419 307.609C458.556 344.118 458.479 380.568 458.496 417.046L458.458 637.368L458.397 785.3C458.413 809.798 458.204 834.311 458.571 858.803C458.642 863.582 461.534 868.553 460.189 871.338C455.229 866.587 456.852 823.147 456.845 814.931L456.857 704.783L456.86 435.947C456.863 392.586 456.732 349.224 456.831 305.865C456.869 289.655 461.444 280.925 477.803 276.521Z" fill="#DBDBDF"/>
<path d="M535.269 330.103C549.732 329.708 561.796 341.071 562.267 355.531C562.737 369.991 551.438 382.114 536.98 382.66C522.416 383.21 510.182 371.809 509.709 357.241C509.234 342.674 520.7 330.501 535.269 330.103Z" fill="#DBDBDF"/>
<path d="M530.727 334.944C542.586 332.031 554.556 339.299 557.443 351.165C560.328 363.03 553.033 374.984 541.161 377.843C529.327 380.692 517.42 373.426 514.543 361.598C511.666 349.771 518.907 337.847 530.727 334.944Z" fill="#FEFDFD"/>
<path d="M530.435 564.132C544.698 561.019 558.763 570.13 561.754 584.419C564.744 598.708 555.512 612.695 541.198 615.562C527.057 618.394 513.276 609.298 510.322 595.182C507.368 581.067 516.345 567.208 530.435 564.132Z" fill="#DBDBDF"/>
<path d="M530.526 568.368C542.248 565.351 554.21 572.355 557.316 584.053C560.423 595.752 553.511 607.767 541.836 610.962C530.034 614.192 517.86 607.189 514.72 595.363C511.58 583.537 518.677 571.418 530.526 568.368Z" fill="#FEFDFD"/>
<path d="M529.993 447.424C544.145 444.103 558.305 452.907 561.588 467.068C564.871 481.231 556.028 495.367 541.858 498.611C527.741 501.844 513.67 493.043 510.4 478.934C507.129 464.826 515.893 450.732 529.993 447.424Z" fill="#DBDBDF"/>
<path d="M534.121 450.999C546.152 449.968 556.772 458.81 557.941 470.828C559.11 482.846 550.391 493.567 538.387 494.874C530.498 495.733 522.757 492.285 518.118 485.846C513.479 479.408 512.659 470.973 515.971 463.762C519.282 456.551 526.214 451.676 534.121 450.999Z" fill="#FEFDFD"/>
<path d="M534.579 680.708C549.019 679.884 561.401 690.904 562.257 705.342C563.114 719.779 552.121 732.187 537.685 733.071C523.204 733.962 510.751 722.932 509.892 708.445C509.033 693.965 520.094 681.536 534.579 680.708Z" fill="#DBDBDF"/>
<path d="M534.4 684.898C546.504 684.007 557.043 693.088 557.951 705.191C558.858 717.297 549.79 727.846 537.688 728.765C525.564 729.692 514.99 720.606 514.082 708.481C513.173 696.354 522.273 685.792 534.4 684.898Z" fill="#FEFDFD"/>
<path d="M589.682 339.561C608.699 339.065 629.899 339.488 649.068 339.48L765.015 339.456L814.253 339.403C820.177 339.395 836.8 337.798 839.628 342.357C839.486 344.875 839.317 344.964 837.754 347.075C818.94 347.724 796.647 347.157 777.621 347.158L658.528 347.116L614.124 347.148C608.448 347.174 590.185 348.978 587.438 344.1C587.656 341.669 588 341.518 589.682 339.561Z" fill="#DBDBDF"/>
<path d="M589.709 690.259C669.023 688.749 748.944 691.104 828.323 690.017C832.353 689.961 837.874 689.38 839.861 693.443C839.331 695.843 839.402 695.725 837.662 697.46C821.125 698.519 796.103 697.782 779.049 697.777L669.999 697.739L614.605 697.79C608.989 697.793 590.269 699.467 587.51 694.785C587.68 692.362 588.029 692.212 589.709 690.259Z" fill="#DBDBDF"/>
<path d="M590.392 456.33C611.715 456.013 831.935 455.103 837.033 456.998C838.702 457.62 839.076 458.149 839.798 459.726C839.218 462.053 839.183 462.115 837.33 463.729C791.281 464.582 742.772 463.789 696.504 463.781L624.345 463.773C616.384 463.774 597.882 464.678 589.58 462.961C588.239 462.683 587.567 461.012 587.227 459.69C588.525 457.101 587.851 457.996 590.392 456.33Z" fill="#DBDBDF"/>
<path d="M588.568 573.438C589.676 573.383 590.785 573.356 591.893 573.356L757.754 573.268L810.703 573.286C818.841 573.294 827.276 573.211 835.421 573.376C837.698 573.421 837.839 573.866 839.211 575.226C839.79 577.558 839.409 577.956 838.461 580.327C810.64 581.47 775.741 580.555 747.417 580.546L600.82 580.616C596.874 580.593 590.448 581.22 588.01 578.752C587.422 576.318 587.744 575.937 588.568 573.438Z" fill="#DBDBDF"/>
<path d="M1157.55 214.303C1164.11 216.807 1162.51 229.505 1167.7 235.562C1172 240.586 1186.08 242.35 1188.35 247.075C1184.64 249.5 1174 253.092 1167.48 257.058C1163.75 264.838 1162.42 270.463 1159.82 278.639L1157.78 278.163C1154.56 274.355 1153.33 261.219 1149.22 256.799C1145.26 252.53 1132.03 250.353 1129.16 245.686C1134.38 242.3 1141.85 240.622 1148.2 236.532L1148.96 236.031C1153.23 228.511 1154.88 222.409 1157.55 214.303Z" fill="#7592BA"/>
<path d="M1158.62 219.745C1160.89 222.227 1162.66 232.137 1164.01 235.047C1166.69 240.835 1178.2 244.337 1183.93 246.2C1165.41 252.949 1164.25 254.801 1158.99 272.983C1156.99 270.296 1154.82 260.692 1151.7 255.221C1144.87 250.561 1141.51 248.97 1133.72 246.21C1152.25 239.358 1152.45 238.428 1158.62 219.745Z" fill="#DBDBDF"/>
<path d="M281.372 374.202C287.14 376.15 286.03 388.719 290.971 394.637C295.088 399.567 307.821 401.211 310.98 405.53C309.047 408.264 294.138 411.16 290.048 417.926C285.482 425.477 286.577 432.343 283.162 438.895C277.537 435.432 279.619 423.276 273.746 416.461C268.373 410.226 257.102 409.839 254.315 405.038C256.982 400.916 262.901 401.052 267.727 398.711C277.13 394.149 278.016 383.492 281.372 374.202Z" fill="#6AD5AF"/>
<path d="M282.442 380.212C285.411 385.242 286.309 394.743 291.736 398.653C295.668 401.485 302.129 403.401 306.733 405.016C287.939 412.249 287.922 413.987 282.421 433.095C275.44 414.868 279.364 412.586 258.134 405.1C263.967 403.174 269.568 400.606 274.835 397.443C277.407 393.365 280.519 384.958 282.442 380.212Z" fill="#CBEEDE"/>
<path d="M588.398 367.783C597.634 366.7 625.977 367.339 636.25 367.339L727.309 367.407C731.947 367.444 736.069 366.638 739.06 369.681C739.357 372.596 739.47 371.407 738.24 374.364C736.712 374.582 733.969 374.674 732.407 374.676C703.026 374.727 673.56 374.708 644.185 374.734L608.561 374.751C603.465 374.749 591.332 375.861 588.045 372.75C587.361 370.36 587.505 370.227 588.398 367.783Z" fill="#DBDBDF"/>
<path d="M589.71 601.115C633.1 600.05 677.028 601.94 720.458 600.911C725.704 600.786 736.408 599.709 739.371 604.295C738.911 606.968 739.272 605.987 737.37 608.171C692.084 609.749 645.56 607.329 600.146 608.433C596.097 608.531 590.034 609.201 587.661 605.774C588.036 602.636 587.601 603.858 589.71 601.115Z" fill="#DBDBDF"/>
<path d="M589.035 484.422C621.447 483.727 655.336 484.297 687.87 484.26L719.708 484.198C724.29 484.19 736.493 483.067 739.187 486.353C739.145 489.532 739.42 488.266 737.66 491.292C692.823 493.165 646.058 490.084 601.027 491.539C596.937 491.672 590.638 492.294 587.94 489.33C587.546 486.917 587.829 486.716 589.035 484.422Z" fill="#DBDBDF"/>
<path d="M699.929 726.468C693.255 722.296 592.785 728.638 587.861 723.562C587.472 720.847 587.227 721.766 588.311 719.546C592.404 716.788 607.437 717.99 613.038 718.004L656.473 717.948L710.573 718.082C717.99 718.153 730.717 717.686 737.639 718.634C739.632 720.316 739.038 720.055 739.88 723.116C725.018 721.525 714.434 722.374 699.929 726.468Z" fill="#DBDBDF"/>
<path d="M1231.7 537.908C1235.5 539.673 1238.66 550.941 1238.13 554.684C1233.44 553.42 1230.39 541.988 1231.7 537.908Z" fill="#DBDBDF"/>
<path d="M1215.47 514.319C1219.46 515.645 1227.1 524.967 1226.88 529.384C1222.7 528.159 1215.46 518.838 1215.47 514.319Z" fill="#DBDBDF"/>
<path d="M1167.75 882.658C1171.53 882.241 1195.16 881.781 1197.15 883.174L1196.99 884.164C1187.93 884.121 1178.45 884.652 1169.44 884.185C1168.52 884.136 1168.66 883.803 1167.75 882.658Z" fill="#ABB1C0"/>
<path d="M1237.83 565.109C1238.97 565.537 1240.2 565.736 1240.49 567.094C1241.31 571.088 1241.77 579.366 1239.98 582.78C1238.73 582.088 1239.13 582.298 1238.16 581.131C1237.51 576.995 1236.95 569.176 1237.83 565.109Z" fill="#DBDBDF"/>
<path d="M1193.28 499.208C1196.32 499.926 1203.61 503.367 1205.5 506.1C1206.41 507.416 1206.05 507.238 1205.79 509.169C1202.95 508.134 1194.27 504.037 1192.67 501.294L1193.28 499.208Z" fill="#DBDBDF"/>
<path d="M1184.15 443.155C1188.36 444.915 1192.3 453.704 1191.83 457.925C1187.88 456.864 1183.11 447.223 1184.15 443.155Z" fill="#DBDBDF"/>
<path d="M1237.33 592.046C1241.84 594.688 1238.02 604.768 1236.13 608.463L1234.29 607.104C1233.6 603.801 1236.35 595.549 1237.33 592.046Z" fill="#DBDBDF"/>
<path d="M199.421 882.721C204.18 882.241 226.8 881.512 229.956 883.605C229.507 883.683 229.057 883.761 228.608 883.838C222.884 883.612 203.09 885.719 199.421 882.721Z" fill="#ABB1C0"/>
<path d="M1110.11 531.092L1111.62 531.484C1113.69 533.438 1113.19 541.305 1113.73 545.777C1113 545.715 1111.98 545.499 1111.26 545.373C1108.09 541.563 1108.97 535.61 1110.11 531.092Z" fill="#DBDBDF"/>
<path d="M1119.22 550.67C1122.24 550.922 1131.04 550.976 1133.06 552.68L1133.2 554.823C1128.03 555.467 1120.14 557.013 1119.22 550.67Z" fill="#DBDBDF"/>
<path d="M1192.02 466.995C1196.91 468.66 1194.47 479.439 1193.89 483.397C1191.85 482.842 1192.61 483.405 1191.45 481.78C1190.99 477.798 1191.31 470.954 1192.02 466.995Z" fill="#DBDBDF"/>
<path d="M1124.54 510.875C1126.36 512.127 1125.78 511.32 1126.48 513.263C1125.03 515.883 1120.41 520.231 1118.06 522.792L1116.17 521.98L1116.03 520.492C1117.78 517.268 1121.83 513.591 1124.54 510.875Z" fill="#DBDBDF"/>
<path d="M1219.16 640.223L1220.68 641.763C1220.66 645.597 1215.61 651.2 1213.1 654.331C1211.56 652.653 1211.93 653.588 1211.62 651.606C1213.19 647.731 1216.59 643.644 1219.16 640.223Z" fill="#DBDBDF"/>
<path d="M1163.06 429.078C1167.12 428.72 1175.84 432.966 1177.43 436.967C1173.31 437.803 1164.72 433.109 1163.06 429.078Z" fill="#DBDBDF"/>
<path d="M1230.57 617.383C1231.75 617.895 1231.54 617.863 1232.56 618.71C1232.94 622.596 1229.05 628.93 1227.1 632.553C1225.43 631.625 1226.06 632.251 1225.09 630.634C1225.7 627.575 1229.15 620.606 1230.57 617.383Z" fill="#DBDBDF"/>
<path d="M1167.91 529.998C1168.64 530.24 1169.04 530.616 1169.71 531.074C1169.5 534.449 1163.67 538.997 1160.9 541.562C1159.39 540.809 1160.04 541.329 1159.03 539.79C1159.86 536.913 1165.52 532.242 1167.91 529.998Z" fill="#DBDBDF"/>
<path d="M1183.16 508.7L1184.66 510.034C1184.89 513.667 1180.1 519.678 1177.89 522.799C1176.38 522.282 1177.05 522.688 1175.92 521.381C1176.21 518.654 1181.5 511.212 1183.16 508.7Z" fill="#DBDBDF"/>
<path d="M1137.97 424.956C1141.63 424.651 1148.08 424.368 1151.47 425.916C1152.83 426.536 1152.37 426.524 1153.01 428.425C1149.35 428.561 1143.03 429.14 1139.64 427.69C1138.35 427.139 1138.54 426.596 1137.97 424.956Z" fill="#DBDBDF"/>
<path d="M1064.46 453.703C1065.11 454.104 1065.4 454.511 1065.95 455.08C1065.56 457.896 1059.06 463.113 1056.76 465.167C1055.22 463.127 1055.44 464.18 1055.48 462.077C1057.39 458.991 1061.52 456.058 1064.46 453.703Z" fill="#DBDBDF"/>
<path d="M1203.47 660.748C1203.86 660.843 1204.82 661.362 1205.22 661.563L1205.25 663.086C1203.69 665.852 1199.51 669.581 1197.06 671.95L1195.59 670.934L1195.4 669.39C1197.11 666.461 1200.89 663.205 1203.47 660.748Z" fill="#DBDBDF"/>
<path d="M1146.48 499.023C1147.73 499.433 1147.26 499.229 1148.27 500.287L1147.93 501.398C1145.46 503.336 1140.34 505.307 1137.26 506.643C1135.85 506.565 1136.48 506.784 1135.43 505.759C1137.08 502.242 1142.76 500.549 1146.48 499.023Z" fill="#DBDBDF"/>
<path d="M1047.51 470.652C1049.06 472.131 1048.7 471.269 1048.83 473.215C1047.21 476.562 1043.68 479.795 1041.03 482.534L1039.52 481.315C1039.66 477.746 1044.79 473.403 1047.51 470.652Z" fill="#DBDBDF"/>
<path d="M1083.35 440.357C1084.04 440.372 1084.79 440.662 1085.51 440.864L1085.67 442.068C1083.65 444.426 1079.21 447.058 1076.44 448.875C1075.1 448.816 1075.54 448.809 1074.23 448.039L1074.41 446.709C1076.71 444.197 1080.38 442.194 1083.35 440.357Z" fill="#DBDBDF"/>
<path d="M1161.36 495.885C1165.2 495.65 1171.44 495.089 1174.94 496.555L1175.12 497.939L1173.75 498.466C1169.4 498.369 1165.32 499.209 1161.19 498.521L1160.44 497.478L1161.36 495.885Z" fill="#DBDBDF"/>
<path d="M1104.57 430.453C1105.25 430.58 1105.9 430.969 1106.57 431.287L1106.47 432.644C1103.76 434.784 1100.74 435.683 1097.5 436.944C1095.85 436.896 1096.63 437.087 1095.11 436.156L1095.43 435.079C1098.05 432.964 1101.43 431.778 1104.57 430.453Z" fill="#DBDBDF"/>
<path d="M1124.24 425.84C1126.75 425.506 1125.65 425.275 1127.71 426.143L1127.4 427.362C1124.6 429.514 1122.83 429.447 1119.39 429.855C1117.65 430.265 1117.77 430.226 1116.09 429.573L1116.28 428.508C1119.4 426.273 1120.47 426.327 1124.24 425.84Z" fill="#DBDBDF"/>
<path d="M1150.23 544.271L1151.91 545.043L1152.14 546.274C1150.15 548.576 1147.18 549.747 1144.39 551.17C1143.17 551.105 1143.64 551.089 1142.36 550.307L1142.6 549.105C1144.94 546.845 1147.36 545.797 1150.23 544.271Z" fill="#DBDBDF"/>
<path d="M1189.62 492.286C1191.01 492.884 1190.5 492.552 1191.47 493.859C1191.85 497.567 1190.85 499.245 1188.69 502.281C1187.83 501.603 1187.49 501.162 1186.75 500.365C1186.67 497.551 1188.33 494.936 1189.62 492.286Z" fill="#DBDBDF"/>
</g>
<defs>
<clipPath id="clip0_55_368">
<rect width="1448" height="1086" fill="white"/>
</clipPath>
</defs>
</svg>
