<svg width="200" height="200" viewBox="0 0 200 200" fill="none" xmlns="http://www.w3.org/2000/svg">
<g clip-path="url(#clip0_52_9)">
<path d="M102.078 31.1526C104.488 31.2225 106.587 31.5636 107.871 32.3909C108.672 33.0452 109.199 34.0757 109.347 35.1956C109.497 36.333 109.244 37.4559 108.621 38.2601C107.583 39.6007 106.127 39.9767 104.267 40.0042C103.326 40.0181 102.358 39.9428 101.322 39.8831C100.312 39.825 99.247 39.783 98.2279 39.8919C97.1524 40.0067 95.84 40.0535 94.4438 40.1311C93.0813 40.2069 91.6495 40.3122 90.4516 40.555C85.367 41.5854 80.0243 43.4424 75.2641 45.3772L75.2436 45.386L75.224 45.3948C68.7466 48.3588 62.8797 52.8642 57.7953 57.6399C56.2967 59.0476 54.4888 61.511 53.3168 63.0413C43.3265 75.9656 38.8798 92.3296 40.9555 108.533L40.9565 108.539C41.3632 111.56 42.2699 113.866 42.9604 116.548C47.7108 135.002 61.8817 149.525 79.3412 156.395L80.1752 156.716C81.1373 157.079 82.1488 157.342 83.1205 157.577C84.1108 157.818 85.0438 158.027 85.9398 158.292C86.4043 158.43 86.8471 158.621 87.3607 158.839C87.8556 159.049 88.416 159.285 89.0248 159.446L89.0834 159.461L89.144 159.47C95.6629 160.364 102.787 160.764 109.426 159.881C113.758 159.305 119.667 157.155 123.701 155.825C124.787 155.467 125.972 154.809 127.063 154.159C128.199 153.483 129.219 152.827 130.121 152.346C141.715 146.168 149.904 136.149 155.759 124.719V124.718C156.309 123.645 156.709 122.452 157.055 121.299C157.412 120.11 157.699 119.015 158.051 117.969C158.727 115.96 159.52 113.757 159.986 111.578L159.993 111.546L159.997 111.513C160.504 108.033 160.798 104.244 160.802 100.714C160.803 99.9552 160.76 98.6565 160.741 97.47C160.72 96.2244 160.727 95.1363 160.801 94.6341C160.893 94.0186 161.143 93.4375 161.526 92.9476L161.529 92.9436C162.378 91.8488 163.817 91.2711 165.297 91.3177C166.775 91.3642 168.131 92.0253 168.859 93.2005C169.375 94.0342 169.441 94.7916 169.604 96.0394L169.606 96.0813C169.894 102.016 169.502 111.521 168.02 117.247C165.593 126.622 159.73 137.768 153.337 145.077C151.805 146.562 150.146 148.322 148.52 149.958C146.857 151.632 145.19 153.216 143.561 154.446C132.075 163.112 118.212 168.855 103.801 169.028C95.2671 169.13 89.3499 168.933 81.3275 166.388C71.3518 163.223 62.8572 158.946 55.2025 151.795L55.1791 151.774L54.0785 150.789C42.8434 140.532 35.8176 127.615 32.5033 112.721C32.0612 110.734 31.734 106.196 31.683 103.965C31.5036 96.0882 31.6404 87.7028 34.3441 80.4515L34.3549 80.4231L34.3637 80.3948C37.3989 70.4617 42.3965 61.1315 49.4731 53.4847C61.4749 40.5152 77.6792 32.1145 95.3676 31.3558L95.3666 31.3548C97.2432 31.2783 99.6809 31.0831 102.078 31.1526Z" fill="white" stroke="#303030" stroke-width="2"/>
<path d="M165.441 10.8103C165.654 10.8355 166.004 10.9004 166.428 10.9929C166.808 11.0757 167.151 11.1574 167.447 11.2263C168.207 12.0099 168.694 12.456 169.066 13.0154C169.415 13.54 169.652 14.1723 169.686 15.322C169.832 20.2393 169.731 25.1913 169.675 30.154L169.663 31.2605L170.765 31.1618C174.931 30.7871 181.69 31.1502 186.111 31.3396H186.112C188.135 31.4264 189.367 32.5821 189.767 34.0427C190.176 35.537 189.747 37.5044 188.048 39.1609C185.837 41.3172 183.705 43.5307 181.575 45.7175C179.441 47.909 177.305 50.0782 175.064 52.1716C172.096 54.9438 169.269 58.1938 166.423 61.1862C163.591 64.1643 160.696 66.9365 157.445 69.0075C155.126 69.4485 151.706 69.5335 148.102 69.5417C144.463 69.55 140.653 69.4818 137.891 69.6755L137.529 69.7009L137.267 69.9529C134.839 72.291 131.907 75.4316 129.531 77.8454L119.241 88.1511L119.237 88.156C118.754 88.646 118.128 89.2987 117.438 90.0163C116.745 90.7366 115.984 91.5269 115.222 92.3015C113.678 93.8715 112.194 95.3122 111.289 95.989L111.186 96.0661L111.106 96.1677C109.875 97.7149 108.028 99.719 105.997 101.426C104.041 103.07 102.024 104.339 100.287 104.759C97.7533 103.761 96.5852 102.433 96.3011 101.109C96.003 99.7193 96.5832 97.9138 98.4817 95.8454C106.218 87.4182 114.53 79.7312 122.57 71.4636C125.077 68.885 128.137 65.757 130.93 63.7927L131.328 63.5124L131.354 63.0271C131.409 61.9606 131.373 60.2681 131.323 58.3405C131.271 56.3926 131.203 54.1692 131.188 51.9851C131.172 49.7981 131.21 47.6798 131.365 45.946C131.442 45.079 131.547 44.3293 131.683 43.7263C131.823 43.1036 131.978 42.7216 132.11 42.5271C133.263 40.8192 135.664 38.2669 138.266 35.6618C139.555 34.3713 140.874 33.0858 142.087 31.907C143.296 30.7319 144.404 29.6573 145.258 28.7995L154.299 19.7741L154.3 19.7751C155.763 18.3162 157.664 16.2716 159.725 14.447C161.756 12.6488 163.762 11.237 165.441 10.8103ZM159.06 27.9411C158.635 28.5878 158.109 29.145 157.511 29.7234C156.936 30.2795 156.242 30.9005 155.629 31.5739C152.179 35.3656 148.511 38.993 144.814 42.5896L141.114 46.1814C140.909 46.3799 140.788 46.6186 140.713 46.8005C140.633 46.9955 140.572 47.2097 140.524 47.4236C140.427 47.8515 140.359 48.372 140.31 48.9323C140.211 50.0579 140.178 51.4657 140.169 52.8806C140.161 54.2977 140.177 55.7568 140.183 56.9743C140.189 58.2215 140.182 59.1698 140.137 59.6413L140.017 60.8835L141.256 60.7302C142.844 60.5326 145.208 60.5992 147.612 60.6599C149.926 60.7183 152.341 60.7746 153.806 60.4919L154.136 60.4284L154.361 60.1775C156.073 58.2668 159.783 54.2152 163.566 50.3357C165.457 48.3955 167.361 46.5056 169.037 44.9499C170.733 43.377 172.139 42.2002 173.054 41.6394L176.252 39.6794L172.503 39.7878C169.488 39.8747 167.376 39.9118 164.461 39.5964C163.333 38.6884 162.591 38.1165 162.025 37.4177C161.468 36.7301 161.067 35.8886 160.817 34.3923C160.772 34.1234 160.767 33.6892 160.797 33.1091C160.827 32.544 160.885 31.922 160.94 31.2917C160.993 30.6781 161.045 30.0472 161.049 29.5212C161.051 29.2585 161.042 28.992 161.008 28.7497C160.979 28.5366 160.915 28.2097 160.72 27.9255L159.878 26.695L159.06 27.9411Z" fill="white" stroke="#303030" stroke-width="2"/>
<path d="M98.7793 61.0227C100.02 60.9166 101.032 60.9579 101.895 61.2424C102.729 61.518 103.494 62.0456 104.2 63.0491L104.201 63.051C104.809 63.91 105.037 64.9806 104.834 66.0129L104.832 66.0217C104.613 67.1865 104.166 67.8504 103.642 68.2688C103.093 68.7064 102.353 68.96 101.407 69.1047C100.45 69.2512 99.4122 69.2703 98.2695 69.3215C97.1677 69.3709 95.9766 69.451 94.8848 69.7551C93.3019 70.1961 91.1062 70.9068 88.9775 71.7434C86.8697 72.5718 84.743 73.5559 83.3545 74.5598C75.8812 79.9627 71.8054 87.0961 70.124 96.011C69.4024 99.425 69.7784 103.516 70.7881 107.374C71.7363 110.998 73.2679 114.509 75.084 117.173L75.4512 117.695C82.5874 127.51 96.193 133.699 108.339 129.87C120.001 126.194 127.648 118.569 130.957 106.628C131.151 105.928 131.235 104.998 131.299 104.064C131.365 103.084 131.409 102.07 131.502 101.04C131.594 100.019 131.728 99.0686 131.954 98.2834C132.159 97.5719 132.411 97.0975 132.683 96.8166C134.906 95.9728 136.377 95.9497 137.332 96.2766C138.265 96.5961 138.892 97.3158 139.286 98.4045C139.689 99.517 139.814 100.939 139.746 102.453C139.679 103.947 139.427 105.462 139.127 106.73C138.716 108.315 138.214 110.362 137.632 112.369C137.046 114.389 136.401 116.283 135.728 117.563C129.445 129.494 117.672 137.802 104.285 138.647C91.2274 139.471 81.0966 135.343 74.039 128.666C66.9666 121.975 62.9263 112.671 62.1709 103.072C61.4156 93.4726 63.949 83.629 69.957 75.8625C75.953 68.1118 85.4577 62.3659 98.7793 61.0227Z" fill="white" stroke="#303030" stroke-width="2"/>
<path d="M108.704 1C109.187 1.27553 109.776 1.48794 110.397 1.66309C111.168 1.88015 112.078 2.06579 113.067 2.23926C114.979 2.57433 117.512 2.9123 119.89 3.31055C122.35 3.72258 124.863 4.23058 127.124 4.96191C129.281 5.65961 131.14 6.54052 132.495 7.67871C132.945 9.22535 133.196 10.3331 132.573 11.3809C132.031 12.2934 131.35 12.7989 130.58 13.0713C129.783 13.3534 128.834 13.4046 127.756 13.2969C126.679 13.1892 125.543 12.9311 124.389 12.6475C123.404 12.4055 122.382 12.1385 121.439 11.9658L121.041 11.8975C115.543 11.0389 110.374 10.1133 104.797 9.55762H104.796C98.9047 8.90838 93.0035 9.71657 87.3428 10.6846C83.9469 11.2653 79.5004 11.7631 76.0459 12.7305L76.043 12.7314C57.6442 17.9558 41.3523 28.8114 29.4492 43.7627L28.8857 44.4775C27.1663 46.6621 24.997 49.3121 23.5146 51.8105C19.0935 59.2615 15.3083 67.6884 12.6982 75.958C12.2421 77.4033 11.8664 79.4984 11.5469 81.5439C11.219 83.6432 10.9551 85.6577 10.707 87.1338L10.7041 87.1475C10.5132 88.3886 10.3157 89.6134 10.1172 90.8428C9.91886 92.071 9.71974 93.3041 9.52637 94.5557C8.37635 101.999 9.93844 108.527 10.8965 115.389C12.152 124.381 13.9683 129.308 17.5088 137.516C25.2159 155.382 38.7967 169.932 55.6455 179.528H55.6465C61.1987 182.682 69.1859 185.999 75.3555 188C77.8461 188.808 82.3461 189.418 84.8857 189.846C90.4259 190.779 96.3261 191.811 102.151 191.548H102.159L102.167 191.547C109.439 191.106 117.287 189.78 124.367 188.252C126.44 187.805 128.718 186.964 130.914 186.064C132.016 185.613 133.11 185.141 134.155 184.69C135.205 184.238 136.203 183.808 137.13 183.433C139.841 182.335 142.694 180.931 145.188 179.46C147.13 178.315 149.055 176.925 150.862 175.749C163.064 168.092 172.51 157.081 179.674 144.785L179.675 144.783C182.657 139.637 186.387 130.38 188.125 124.635L188.135 124.604L188.143 124.571C189.189 120.075 189.95 115.281 190.517 110.732C190.604 110.027 190.725 109.224 190.854 108.359C190.984 107.5 191.122 106.582 191.243 105.667C191.482 103.854 191.665 101.967 191.557 100.461C190.979 92.4345 189.837 83.1427 187.928 75.1787L187.535 73.6045C187.389 73.0395 187.235 72.4765 187.074 71.915C187.572 70.3456 188.246 69.4272 189.395 68.0527C190.221 67.9517 190.725 67.8902 191.229 67.8994C191.709 67.9082 192.21 67.9819 192.989 68.1982C196.855 73.5581 197.421 79.9803 198.299 86.7666C198.39 87.4747 198.459 88.403 198.568 89.4336C198.664 90.33 198.792 91.3031 199 92.0303V108.817C198.38 111.142 198.196 113.866 197.983 116.442C197.762 119.129 197.508 121.674 196.779 123.78C196.004 126.024 195.333 128.459 194.652 130.82C194.052 132.902 193.442 134.935 192.733 136.807L192.425 137.595C184.009 158.102 169.016 175.23 149.803 186.286C143.194 190.032 137.056 193.036 129.851 194.904L129.15 195.082C127.874 195.397 126.592 195.869 125.393 196.28C124.166 196.701 122.997 197.068 121.827 197.243L121.793 197.249L121.759 197.256C119.996 197.647 117.963 197.859 115.866 198.089C113.851 198.31 111.774 198.551 109.97 199H91.3975C89.3511 198.612 87.2042 198.355 85.0918 198.104C82.9324 197.848 80.8078 197.598 78.7871 197.22C75.8319 196.665 73.5575 195.689 70.5723 194.731C67.9458 193.889 65.6323 193.333 63.1504 192.344H63.1494C41.7481 183.583 24.0721 167.631 13.1689 147.237C12.3929 145.777 11.2194 143.54 10.124 141.278C9.15712 139.281 8.27592 137.314 7.77441 135.853L7.58398 135.259C6.19878 130.36 4.47408 125.939 3.48535 121.115C3.3441 120.426 3.219 119.504 3.08398 118.436C2.95088 117.382 2.80963 116.199 2.63477 115.04C2.46 113.881 2.24767 112.715 1.96777 111.684C1.72823 110.801 1.42142 109.945 1 109.267V91.6025C1.44957 90.8756 1.77152 89.8488 2.02637 88.792C2.331 87.5287 2.57992 86.0369 2.7998 84.543C3.01682 83.0684 3.21782 81.4951 3.40527 80.1846C3.59882 78.8315 3.78371 77.7156 3.98047 76.9863C7.80634 62.8083 13.2255 51.1999 22.1699 39.4883C34.4264 23.5976 51.3203 11.9105 70.5127 6.04688V6.04785L70.5195 6.0459C71.7213 5.67021 74.5301 4.80817 75.7236 4.2832C76.3784 3.99519 77.5456 3.74392 79.0791 3.50977C80.5845 3.27992 82.3135 3.0835 84.0508 2.86621C85.7697 2.65122 87.4935 2.41536 88.9229 2.10938C89.6379 1.95629 90.3049 1.78062 90.873 1.57129C91.2806 1.42112 91.6846 1.23659 92.0293 1H108.704Z" fill="white" stroke="#303030" stroke-width="2"/>
</g>
<defs>
<clipPath id="clip0_52_9">
<rect width="200" height="200" fill="white"/>
</clipPath>
</defs>
</svg>
