<svg width="200" height="200" viewBox="0 0 200 200" fill="none" xmlns="http://www.w3.org/2000/svg">
<g clip-path="url(#clip0_52_15)">
<path d="M95.3244 30.3568C98.9699 30.2084 105.387 29.5545 108.456 31.5777C110.571 33.2559 111.043 36.7662 109.412 38.8721C106.781 42.2699 102.054 40.4889 98.3344 40.8863C96.1158 41.1232 92.8885 41.0813 90.6498 41.535C85.651 42.548 80.3729 44.3803 75.6402 46.3039C69.2967 49.2066 63.5197 53.6354 58.4801 58.3691C57.0572 59.7057 55.3152 62.077 54.108 63.6531C44.2799 76.3676 39.9055 92.4656 41.9475 108.405C42.3445 111.355 43.2006 113.471 43.9285 116.299C48.6639 134.694 62.9553 149.151 80.5285 155.78C82.3303 156.46 84.3684 156.784 86.2236 157.334C87.284 157.648 88.2188 158.198 89.2799 158.479C95.7506 159.366 102.777 159.756 109.294 158.89C113.506 158.33 119.284 156.229 123.388 154.876C125.331 154.235 127.793 152.453 129.65 151.464C141.013 145.41 149.076 135.571 154.869 124.263C155.882 122.283 156.388 119.775 157.103 117.65C157.79 115.609 158.558 113.477 159.008 111.369C159.509 107.933 159.798 104.192 159.802 100.713C159.803 99.2113 159.635 95.6855 159.812 94.4859C159.929 93.6998 160.248 92.9574 160.738 92.3312C162.899 89.543 167.828 89.6373 169.709 92.6744C170.367 93.7369 170.443 94.7424 170.6 95.9463L170.605 96.0307C170.896 102.009 170.507 111.631 168.988 117.498C166.52 127.034 160.572 138.336 154.067 145.763C150.993 148.736 147.541 152.696 144.163 155.244C132.546 164.009 118.481 169.851 103.813 170.027C95.2469 170.13 89.2022 169.936 81.0256 167.341C70.95 164.144 62.3115 159.804 54.5199 152.526C42.4676 141.963 34.9903 128.502 31.5272 112.938C31.0625 110.85 30.734 106.229 30.6828 103.988C30.5035 96.1139 30.6293 87.5529 33.4072 80.1025C36.4803 70.0457 41.5471 60.5779 48.7395 52.8059C60.8969 39.6684 77.3397 31.1283 95.3244 30.3568Z" fill="#9EC1FD"/>
<path d="M165.362 9.79953C165.929 9.82375 167.34 10.1795 167.958 10.318C169.572 12.0053 170.608 12.6895 170.686 15.2925C170.833 20.2361 170.731 25.2162 170.675 30.1654C174.926 29.783 181.776 30.1533 186.154 30.3408C191.054 30.5506 192.596 36.1215 188.746 39.8764C184.347 44.166 180.266 48.6805 175.746 52.9021C169.866 58.3951 164.671 65.6543 157.823 69.9543C152.956 70.9443 143.395 70.2922 137.961 70.6732C135.541 73.0035 132.648 76.1045 130.238 78.5518L119.949 88.858C118.039 90.7959 113.843 95.3285 111.888 96.7898C109.358 99.9709 104.319 105.007 100.208 105.803C94.4592 103.672 93.7508 99.5203 97.7449 95.169C105.482 86.74 113.874 78.9719 121.853 70.7666C124.343 68.2061 127.47 65.0037 130.355 62.975C130.565 58.8996 129.391 44.7656 131.281 41.967C133.714 38.3662 141.163 31.4955 144.552 28.0922L153.594 19.0668C156.447 16.2222 161.4 10.6854 165.362 9.79953ZM141.132 59.7375C144.495 59.3191 150.953 60.0244 153.616 59.5103C157.055 55.6744 168.496 43.2609 172.532 40.7869C169.412 40.8768 167.203 40.9199 164.066 40.5621C161.654 38.6111 160.375 37.8068 159.831 34.5574C159.572 33.0158 160.369 29.182 159.895 28.4902C158.922 29.9711 157.538 30.9627 156.369 32.2471C151.743 37.3312 146.727 42.1201 141.81 46.8982C140.798 47.8824 141.338 57.6029 141.132 59.7375Z" fill="#9EC1FD"/>
<path d="M98.6795 60.0285C101.278 59.8043 103.377 60.1436 105.017 62.4734C105.783 63.5561 106.072 64.9055 105.815 66.2066C104.795 71.6373 99.0375 69.6369 95.1535 70.7186C92.0498 71.5832 86.5022 73.5184 83.9406 75.3703C76.6928 80.6102 72.7399 87.5133 71.1026 96.2174C69.7457 102.636 72.4822 111.911 76.26 117.107C83.2012 126.654 96.3889 132.589 108.038 128.917C119.389 125.339 126.778 117.964 129.993 106.361C130.644 104.011 129.993 97.7529 132.147 95.9506C141.844 92.1527 141.346 101.708 140.095 106.98C139.282 110.115 138.062 115.277 136.612 118.029C130.183 130.237 118.118 138.776 104.348 139.645C51.0752 143.007 44.3793 65.5029 98.6795 60.0285Z" fill="#172C4E"/>
<path d="M91.6857 0H108.988C112.061 2.1527 127.297 1.6732 133.373 7.11527C133.842 8.70836 134.354 10.3429 133.432 11.8923C130.784 16.3465 124.859 13.5063 120.887 12.8859C115.361 12.023 110.239 11.1052 104.698 10.5532C98.9531 9.91811 93.1674 10.7028 87.5113 11.67C84.0211 12.2668 79.7049 12.7442 76.3158 13.6932C57.8293 18.9425 41.4936 29.9398 29.6742 45.0928C27.9303 47.3086 25.8154 49.8932 24.375 52.3209C19.9924 59.7068 16.239 68.0631 13.6522 76.2586C12.7914 78.9859 12.1874 84.357 11.6929 87.2994C11.3097 89.7902 10.9003 92.2133 10.5147 94.7086C9.39395 101.963 10.9128 108.272 11.887 115.25C13.1253 124.12 14.905 128.954 18.4272 137.12C26.0426 154.774 39.4676 169.163 56.1408 178.659C61.6205 181.771 69.542 185.064 75.6643 187.049C78.0621 187.827 82.4311 188.418 85.0522 188.859C90.6176 189.797 96.4074 190.807 102.106 190.549C109.308 190.113 117.102 188.797 124.156 187.274C128.123 186.418 132.999 184.027 136.755 182.506C139.421 181.426 142.229 180.044 144.681 178.599C146.608 177.462 148.455 176.121 150.331 174.902C162.363 167.351 171.705 156.476 178.81 144.282C181.743 139.221 185.445 130.04 187.168 124.345C188.204 119.894 188.961 115.136 189.524 110.608C189.883 107.726 190.76 103.324 190.559 100.533C189.946 92.0016 188.693 82.0668 186.567 73.8549C186.399 73.202 186.22 72.5514 186.032 71.9037C186.633 69.8379 187.494 68.7551 188.883 67.1066C190.939 66.8578 191.562 66.7279 193.598 67.3338C197.83 73.0016 198.41 79.8312 199.291 86.6385C199.475 88.0674 199.596 90.6328 200 91.8885V108.945C198.762 113.43 199.277 119.619 197.725 124.107C196.195 128.53 195.082 133.701 193.35 137.974C184.849 158.688 169.704 175.99 150.296 187.156C143.442 191.041 137.029 194.168 129.39 196.053C126.948 196.654 124.51 197.854 121.975 198.232C118.32 199.043 113.595 199.1 110.087 200H91.3057C87.2371 199.219 82.7232 198.975 78.6037 198.203C75.5666 197.633 73.1523 196.609 70.2666 195.684C67.7303 194.87 65.3 194.277 62.7803 193.273C41.1592 184.425 23.3023 168.311 12.2878 147.709C10.7321 144.783 7.56092 138.704 6.62471 135.543C5.27641 130.772 3.50178 126.177 2.50533 121.316C1.90448 118.385 1.64896 111.825 0 109.572V91.2941C1.66797 89.1402 2.15525 79.9117 3.01508 76.7254C6.8717 62.4334 12.345 50.7037 21.3779 38.8771C33.7611 22.8223 50.8299 11.0152 70.2207 5.091C71.4617 4.70305 74.1939 3.86354 75.3213 3.36764C78.4889 1.97443 89.6463 1.89988 91.6857 0Z" fill="#172C4E"/>
</g>
<defs>
<clipPath id="clip0_52_15">
<rect width="200" height="200" fill="white"/>
</clipPath>
</defs>
</svg>
